<?xml version="1.0" standalone="no"?>
<!DOCTYPE svg PUBLIC "-//W3C//DTD SVG 1.1//EN" "http://www.w3.org/Graphics/SVG/1.1/DTD/svg11.dtd" >
<svg>
<metadata>
Created by FontForge 20090622 at Thu Jun 23 11:19:51 2016
 By deploy user
&#194;&#169; 2014 Apple Inc. All rights reserved.
</metadata>
<defs>
<font id="SanFranciscoText-Regular" horiz-adv-x="0" >
  <font-face 
    font-family="San Francisco Text"
    font-weight="400"
    font-stretch="normal"
    units-per-em="2048"
    panose-1="2 1 6 4 3 2 2 6 2 4"
    ascent="1638"
    descent="-410"
    x-height="1049"
    cap-height="1365"
    bbox="-481 -497.696 2048 1980"
    underline-thickness="102"
    underline-position="-59"
    unicode-range="U+0020-U+FB02"
  />
<missing-glyph horiz-adv-x="1293" 
d="M120 0v1365h1053v-1365h-1053zM501 313q0 -47 33.5 -77t86.5 -30q55 0 88.5 29.5t33.5 77.5q0 49 -33.5 78.5t-88.5 29.5q-54 0 -87 -30t-33 -78zM339 888h169q1 59 34.5 94.5t90.5 35.5q54 0 87 -30t33 -80q0 -38 -20.5 -65.5t-82.5 -72.5q-69 -48 -96 -100t-22 -121
l1 -18h166v15q0 48 19 76t88 77q73 52 103 102t30 116q0 113 -81 181.5t-215 68.5q-143 0 -225.5 -76t-78.5 -203z" />
    <glyph glyph-name=".notdef" horiz-adv-x="1293" 
d="M120 0v1365h1053v-1365h-1053zM501 313q0 -47 33.5 -77t86.5 -30q55 0 88.5 29.5t33.5 77.5q0 49 -33.5 78.5t-88.5 29.5q-54 0 -87 -30t-33 -78zM339 888h169q1 59 34.5 94.5t90.5 35.5q54 0 87 -30t33 -80q0 -38 -20.5 -65.5t-82.5 -72.5q-69 -48 -96 -100t-22 -121
l1 -18h166v15q0 48 19 76t88 77q73 52 103 102t30 116q0 113 -81 181.5t-215 68.5q-143 0 -225.5 -76t-78.5 -203z" />
    <glyph glyph-name=".null" 
 />
    <glyph glyph-name="nonmarkingreturn" 
 />
    <glyph glyph-name="space" unicode=" " horiz-adv-x="465" 
 />
    <glyph glyph-name="exclam" unicode="!" horiz-adv-x="565" 
d="M147 116q0 59 39 98t94 39q59 0 98.5 -39t39.5 -98q0 -56 -39.5 -94.5t-98.5 -38.5q-55 0 -94 38.5t-39 94.5zM193 1365h179l-20 -873h-139z" />
    <glyph glyph-name="quotedbl" unicode="&#x22;" horiz-adv-x="831" 
d="M140 1365h177l-25 -488h-127zM514 1365h177l-25 -488h-127z" />
    <glyph glyph-name="numbersign" unicode="#" horiz-adv-x="1238" 
d="M1162 855h-220l-69 -334h207l-26 -128h-208l-79 -393h-128l80 393h-297l-80 -393h-128l79 393h-206l27 128h207l68 334h-195l26 127h196l77 383h129l-78 -383h297l78 383h127l-78 -383h220zM517 855l-69 -334h297l69 334h-297z" />
    <glyph glyph-name="dollar" unicode="$" horiz-adv-x="1128" 
d="M269 1021q0 -136 171 -202q35 -13 61 -20v444q-105 -13 -168.5 -70t-63.5 -152zM892 372q0 84 -50.5 138.5t-178.5 93.5q-22 6 -34 9v-479q120 11 191.5 72.5t71.5 165.5zM629 -129h-128v127q-200 15 -308 120.5t-110 253.5h154q7 -95 74.5 -158t189.5 -78v509l-74 20
q-62 16 -114 42t-97.5 66.5t-71.5 101t-26 135.5q0 164 106.5 259t276.5 112v132h128v-131q166 -15 276.5 -111t115.5 -254h-152q-3 89 -67 151t-173 75v-479l79 -20q167 -45 251.5 -128.5t84.5 -233.5q0 -117 -56 -202t-147.5 -128.5t-211.5 -52.5v-128z" />
    <glyph glyph-name="percent" unicode="%" horiz-adv-x="1453" 
d="M170 1034v-7q0 -106 40.5 -172t114.5 -66q73 0 114.5 65t41.5 170v7q0 105 -40 170t-115 65q-76 0 -116 -65.5t-40 -166.5zM50 1017v26q0 141 74 237t201 96t201.5 -96t74.5 -240v-26q0 -143 -75 -239.5t-203 -96.5q-127 0 -200 96.5t-73 242.5zM972 347v-7
q0 -106 40.5 -172t114.5 -66q73 0 114.5 65t41.5 170v7q0 105 -40 170t-115 65q-76 0 -116 -65.5t-40 -166.5zM852 330v26q0 141 74 237t201 96t201.5 -96t74.5 -240v-26q0 -143 -75 -239.5t-203 -96.5q-127 0 -200 96.5t-73 242.5zM276 0h-143l520 683l519 682h143
l-519 -682z" />
    <glyph glyph-name="ampersand" unicode="&#x26;" horiz-adv-x="1345" 
d="M1126 0l-126 136q-98 -86 -212 -124t-222 -38q-193 0 -323.5 105t-130.5 281q0 127 70.5 217.5t198.5 160.5q5 3 22 11.5l27 13.5q-81 86 -124.5 157t-43.5 157q0 126 95 213t244 87q147 0 244 -86t97 -218q0 -60 -21.5 -111t-65 -93t-90.5 -73.5t-115 -67.5l341 -372
q65 123 65 386v37h150v-36q0 -323 -110 -494l234 -249h-204zM473 643q-100 -55 -151 -118.5t-51 -154.5q0 -85 45 -146t113 -88t150 -27q87 0 176 32t151 97l-388 428q-38 -19 -45 -23zM562 820q115 59 171 113.5t56 136.5q0 80 -52.5 130t-134.5 50q-83 0 -134.5 -51.5
t-51.5 -130.5q0 -55 32 -110t114 -138z" />
    <glyph glyph-name="quotesingle" unicode="'" horiz-adv-x="457" 
d="M140 1365h177l-25 -488h-127z" />
    <glyph glyph-name="parenleft" unicode="(" horiz-adv-x="646" 
d="M419 1363h127q-35 -40 -71 -104t-75.5 -161.5t-64.5 -237t-25 -292.5q0 -104 10 -199.5t32.5 -178.5t41 -142t52.5 -128t49 -97t48 -85h-134q-46 56 -85.5 125t-80 170.5t-64.5 239.5t-24 293q0 127 17 238t40.5 187.5t62.5 152t69 119t75 100.5z" />
    <glyph glyph-name="parenright" unicode=")" horiz-adv-x="646" 
d="M100 1363h125q45 -57 75 -100t70 -119t63.5 -152.5t40.5 -187.5t17 -238q0 -155 -24.5 -293t-66 -239.5t-81 -170t-85.5 -125.5h-132q38 66 58 103.5t58.5 126t59 165.5t38 194t17.5 241q0 153 -24.5 292.5t-63.5 237t-74.5 161.5t-70.5 104z" />
    <glyph glyph-name="asterisk" unicode="*" horiz-adv-x="984" 
d="M553 579h-126l16 328l-276 -178l-63 109l293 151l-293 150l63 109l276 -179l-16 329h126l-16 -329l276 179l63 -109l-293 -150l293 -151l-63 -109l-276 178z" />
    <glyph glyph-name="plus" unicode="+" horiz-adv-x="1128" 
d="M627 476v-450h-127v450h-410v129h410v425h127v-425h412v-129h-412z" />
    <glyph glyph-name="comma" unicode="," horiz-adv-x="505" 
d="M170 -381h-123l139 548h187z" />
    <glyph glyph-name="hyphen" unicode="-" horiz-adv-x="840" 
d="M735 490h-630v140h630v-140z" />
    <glyph glyph-name="period" unicode="." horiz-adv-x="593" 
d="M161 116q0 59 39 98t94 39q59 0 98.5 -39t39.5 -98q0 -56 -39.5 -94.5t-98.5 -38.5q-55 0 -94 38.5t-39 94.5z" />
    <glyph glyph-name="slash" unicode="/" horiz-adv-x="746" 
d="M189 -309h-139l507 1746h139z" />
    <glyph glyph-name="zero" unicode="0" horiz-adv-x="1237" 
d="M297 704v-45q0 -254 87 -400.5t235 -146.5t234.5 146.5t86.5 400.5v45q0 254 -86.5 401.5t-234.5 147.5t-235 -147.5t-87 -401.5zM140 657v48q0 315 127 502t353 187q150 0 258.5 -86t163.5 -240.5t55 -362.5v-48q0 -315 -126 -500.5t-352 -185.5t-352.5 185.5
t-126.5 500.5z" />
    <glyph glyph-name="one" unicode="1" horiz-adv-x="922" 
d="M648 0h-157v1186h-8l-317 -231v167l325 243h157v-1365z" />
    <glyph glyph-name="two" unicode="2" horiz-adv-x="1136" 
d="M306 993h-156v5q0 164 113.5 280t310.5 116q186 0 301 -105t115 -267q0 -48 -13 -95.5t-29 -83t-52.5 -85.5t-61 -79.5l-75.5 -88.5l-378 -437v-11h635v-142h-864v101l518 599q49 56 77 93t54 98t26 121q0 110 -72.5 176t-184.5 66q-121 0 -192.5 -74.5t-71.5 -181.5v-5z
" />
    <glyph glyph-name="three" unicode="3" horiz-adv-x="1156" 
d="M417 633v142h140q112 0 186 69t73 176q-1 104 -73 169t-187 65q-108 0 -179 -57t-78 -138h-153q2 63 29.5 121.5t76.5 106.5t128 77t175 30q186 1 302 -98t121 -249q2 -69 -22 -130t-63 -101.5t-82.5 -66t-84.5 -32.5v-9q46 -5 94 -26.5t95 -59.5t77.5 -101.5
t32.5 -142.5q4 -176 -130 -292t-345 -116q-191 0 -311.5 96.5t-128.5 242.5h151q10 -84 91.5 -141t202.5 -58q140 -1 225 74t83 192q-1 116 -84 186.5t-214 70.5h-148z" />
    <glyph glyph-name="four" unicode="4" horiz-adv-x="1187" 
d="M684 1365h238v-934h180v-143h-180v-288h-153v288h-664v144l139.5 239l136.5 221l157 245.5zM269 431h500v790h-9q-276 -408 -491 -780v-10z" />
    <glyph glyph-name="five" unicode="5" horiz-adv-x="1184" 
d="M155 309h155q20 -101 102.5 -149.5t189.5 -48.5q55 0 108 21.5t96 61.5t69.5 103.5t26.5 141.5q0 137 -89 219.5t-215 82.5q-101 0 -173 -47t-107 -109h-133l62 780h752v-142h-614l-39 -458h9q28 42 100.5 79t173.5 37q185 0 310 -119.5t125 -318.5q0 -210 -131.5 -341
t-342.5 -131q-181 0 -302.5 95t-132.5 243z" />
    <glyph glyph-name="six" unicode="6" horiz-adv-x="1214" 
d="M1055 1092h-162q-13 59 -77.5 109t-176.5 50q-152 0 -247 -146t-96 -438h8q33 84 123 146.5t230 62.5q80 0 155.5 -29t136.5 -82t98 -137.5t37 -187.5q0 -219 -129.5 -343.5t-332.5 -124.5q-258 0 -382 201q-100 164 -100 451q0 385 137 576t369 191q175 0 287.5 -90
t121.5 -209zM320 432q0 -147 88 -233.5t216 -86.5q132 0 217 81t85 237q0 76 -25.5 136t-68.5 96t-96 55t-111 19q-133 0 -219 -85.5t-86 -218.5z" />
    <glyph glyph-name="seven" unicode="7" horiz-adv-x="1084" 
d="M120 1365h854v-149l-560 -1216h-167l565 1212v11h-692v142z" />
    <glyph glyph-name="eight" unicode="8" horiz-adv-x="1208" 
d="M605 109q138 0 228.5 74.5t90.5 192.5t-90.5 193.5t-228.5 75.5t-229 -75.5t-91 -193.5q0 -117 91 -192t229 -75zM605 781q117 0 191.5 67t74.5 172q0 104 -74.5 169t-191.5 65t-192 -65t-75 -169q0 -105 75.5 -172t191.5 -67zM600 -29q-206 0 -338 111t-132 289
q0 76 26.5 139.5t69.5 104t87.5 65t90.5 36.5v9q-37 12 -73 35.5t-70.5 59.5t-55.5 90.5t-21 118.5q0 158 120 261.5t301 103.5t301 -103.5t120 -261.5q0 -65 -22 -120.5t-57.5 -91t-70.5 -58t-71 -34.5v-9q36 -9 72 -26t73 -46.5t65 -66.5t45.5 -90t17.5 -114
q0 -177 -135.5 -289.5t-342.5 -112.5z" />
    <glyph glyph-name="nine" unicode="9" horiz-adv-x="1212" 
d="M167 251h163q17 -55 79 -96t159 -41q96 0 167 45.5t110.5 126.5t57 183t14.5 225h-9q-36 -95 -123.5 -156.5t-219.5 -61.5q-189 0 -312 125.5t-123 336.5t132 334.5t334 123.5q73 0 136.5 -17t128 -63t109.5 -120t73.5 -196.5t28.5 -282.5q0 -373 -124 -558t-384 -185
q-173 0 -277.5 79.5t-119.5 197.5zM888 927q0 154 -85.5 241t-218.5 87q-124 0 -209.5 -87.5t-85.5 -235.5q0 -152 86.5 -233t213.5 -81q124 0 211.5 80t87.5 229z" />
    <glyph glyph-name="colon" unicode=":" horiz-adv-x="631" 
d="M180 799q0 59 39 98t94 39q59 0 98.5 -39t39.5 -98q0 -56 -39.5 -94.5t-98.5 -38.5q-55 0 -94 38.5t-39 94.5zM180 116q0 59 39 98t94 39q59 0 98.5 -39t39.5 -98q0 -56 -39.5 -94.5t-98.5 -38.5q-55 0 -94 38.5t-39 94.5z" />
    <glyph glyph-name="semicolon" unicode=";" horiz-adv-x="631" 
d="M180 804q0 59 39 98t94 39q59 0 98.5 -39t39.5 -98q0 -56 -39.5 -94.5t-98.5 -38.5q-55 0 -94 38.5t-39 94.5zM188 -413h-140l159 594h213z" />
    <glyph glyph-name="less" unicode="&#x3c;" horiz-adv-x="1128" 
d="M142 440v136l844 515v-170l-683 -402v-9l683 -378v-170z" />
    <glyph glyph-name="equal" unicode="=" horiz-adv-x="1128" 
d="M974 302h-820v127h820v-127zM974 659h-820v129h820v-129z" />
    <glyph glyph-name="greater" unicode="&#x3e;" horiz-adv-x="1129" 
d="M987 576v-136l-845 -478v170l685 378v9l-685 402v170z" />
    <glyph glyph-name="question" unicode="?" horiz-adv-x="996" 
d="M346 116q0 59 39 98t94 39q59 0 98.5 -39t39.5 -98q0 -56 -39.5 -94.5t-98.5 -38.5q-55 0 -94 38.5t-39 94.5zM97 1010q0 106 37 185t99 121.5t129.5 62t141.5 19.5q77 0 146.5 -21t125.5 -61.5t89 -106.5t33 -149q0 -59 -15 -107.5t-47.5 -89.5t-58.5 -66t-71 -62
q-43 -35 -61.5 -51.5t-42 -41t-32 -44t-14.5 -46.5t-6 -62v-62h-157v91q0 50 15 93t48 82.5t58 62.5t72 62q43 35 64 54.5t45 48.5t33 59.5t9 69.5q0 106 -68.5 158t-170.5 52q-121 0 -185 -70t-64 -181h-152z" />
    <glyph glyph-name="at" unicode="@" horiz-adv-x="1716" 
d="M1267 133q-101 0 -159 41.5t-68 95.5h-10q-14 -50 -74.5 -93.5t-143.5 -43.5q-122 0 -190 89.5t-68 238.5v87q0 146 70.5 235t197.5 89q77 0 128 -38.5t67 -86.5h8v111h134v-486q0 -59 35 -91t91 -32q83 0 138.5 88t55.5 256v37q0 110 -39.5 209.5t-113 176.5t-187 122.5
t-252.5 45.5h-8q-131 0 -245 -45.5t-198 -128t-132.5 -206t-48.5 -271.5v-48q0 -125 32 -229t89 -178.5t135 -126t170 -76.5t194 -25h8q212 0 331 52v-123q-106 -49 -331 -49h-8q-157 0 -293 47.5t-239.5 138.5t-163 235.5t-59.5 327.5v60q0 172 58 316.5t159.5 242t241 152
t300.5 54.5h8q137 0 255 -36.5t203 -100t145.5 -149t90 -183t29.5 -201.5v-51q0 -203 -97.5 -326.5t-245.5 -123.5zM693 478q0 -114 44.5 -168t121.5 -54t121.5 53t44.5 162v79q0 98 -47 153.5t-121 55.5q-72 0 -118 -55t-46 -162v-64z" />
    <glyph glyph-name="A" unicode="A" horiz-adv-x="1243" 
d="M217 0h-163l490 1365h155l490 -1365h-171l-142 420h-516zM621 1168h-6l-210 -617h426z" />
    <glyph glyph-name="B" unicode="B" horiz-adv-x="1270" 
d="M194 0v1365h503q170 0 272.5 -89.5t102.5 -246.5q0 -119 -57.5 -194.5t-158.5 -107.5v-7q143 -20 219 -110t76 -228q0 -183 -130 -282.5t-347 -99.5h-480zM353 1220v-446h214q174 0 258.5 53.5t84.5 174.5q0 110 -65 164t-171 54h-321zM353 630v-485h243q73 0 127 5
t106.5 20t85.5 40t53 67.5t20 100.5q0 124 -79.5 188t-214.5 64h-341z" />
    <glyph glyph-name="C" unicode="C" horiz-adv-x="1297" 
d="M299 778v-200q0 -231 100 -346.5t276 -115.5q158 0 246 83t88 204h158q0 -58 -18 -116.5t-57.5 -115.5t-96 -101.5t-141.5 -71.5t-186 -27q-246 0 -387 155.5t-141 449.5v205q0 289 143.5 451t386.5 162q97 0 179.5 -26.5t140 -71.5t98 -104t60 -124t19.5 -131h-158
q0 122 -91.5 217t-247.5 95q-169 0 -270 -121t-101 -350z" />
    <glyph glyph-name="D" unicode="D" horiz-adv-x="1339" 
d="M194 1365h428q161 0 278 -50t186 -143t101.5 -214.5t32.5 -275.5q0 -120 -19 -220t-63 -187t-112 -147t-170.5 -94t-233.5 -34h-428v1365zM353 1221v-1076h263q439 0 439 537q0 539 -439 539h-263z" />
    <glyph glyph-name="E" unicode="E" horiz-adv-x="1147" 
d="M1003 145v-145h-809v1365h809v-145h-650v-450h614v-144h-614v-481h650z" />
    <glyph glyph-name="F" unicode="F" horiz-adv-x="1077" 
d="M353 0h-159v1365h796v-145h-637v-478h585v-145h-585v-597z" />
    <glyph glyph-name="G" unicode="G" horiz-adv-x="1322" 
d="M1178 953h-158q-19 147 -114 221.5t-229 74.5q-79 0 -145.5 -27t-119.5 -81.5t-83 -146.5t-30 -213v-190q0 -225 96 -350t277 -125q154 0 254 86.5t100 221.5v140h-364v144h520v-284q0 -55 -15.5 -113.5t-53 -120.5t-93.5 -109.5t-145.5 -78.5t-199.5 -31
q-261 0 -398 164t-137 456v190q0 289 147.5 451t393.5 162q222 0 352.5 -127t144.5 -314z" />
    <glyph glyph-name="H" unicode="H" horiz-adv-x="1412" 
d="M1218 0h-159v636h-706v-636h-159v1365h159v-585h706v585h159v-1365z" />
    <glyph glyph-name="I" unicode="I" horiz-adv-x="547" 
d="M353 0h-159v1365h159v-1365z" />
    <glyph glyph-name="J" unicode="J" horiz-adv-x="1003" 
d="M51 301h156q4 -85 65.5 -135t146.5 -50q108 0 171.5 62t63.5 194v993h159v-975q0 -207 -107 -313t-287 -106q-165 0 -266.5 91t-101.5 239z" />
    <glyph glyph-name="K" unicode="K" horiz-adv-x="1227" 
d="M1157 1365l-512 -580l540 -785h-205l-454 674l-173 -187v-487h-159v1365h159v-668h7l606 668h191z" />
    <glyph glyph-name="L" unicode="L" horiz-adv-x="1038" 
d="M990 145v-145h-796v1365h159v-1220h637z" />
    <glyph glyph-name="M" unicode="M" horiz-adv-x="1631" 
d="M344 0h-145v1365h153l461 -1093h6l459 1093h154v-1365h-145v1017h-9l-391 -912h-143l-392 912h-8v-1017z" />
    <glyph glyph-name="N" unicode="N" horiz-adv-x="1412" 
d="M353 0h-159v1365h159l698 -1092h8v1092h159v-1365h-159l-699 1092h-7v-1092z" />
    <glyph glyph-name="O" unicode="O" horiz-adv-x="1360" 
d="M299 778v-205q0 -225 105 -341t275 -116q171 0 276.5 116t105.5 341v205q0 227 -106.5 349t-275.5 122q-168 0 -274 -122t-106 -349zM140 573v205q0 288 147 452t394 164t393 -164t146 -452v-205q0 -286 -147 -444t-396 -158q-248 0 -392.5 158t-144.5 444z" />
    <glyph glyph-name="P" unicode="P" horiz-adv-x="1195" 
d="M194 1365h489q192 0 311 -115.5t119 -304.5q0 -190 -119 -304.5t-311 -114.5h-330v-526h-159v1365zM353 1220v-549h214q98 0 163 10.5t117.5 39.5t77 84t24.5 140q0 131 -71 203t-201 72h-324z" />
    <glyph glyph-name="Q" unicode="Q" horiz-adv-x="1362" 
d="M140 580v205q0 287 145.5 448t393.5 161t394.5 -161t146.5 -448v-205q0 -312 -174 -475l190 -262h-184l-130 178q-109 -50 -243 -50q-248 0 -393.5 161t-145.5 448zM299 783v-201q0 -227 105.5 -346.5t274.5 -119.5q81 0 151 29l-191 259h188l126 -170q108 124 108 348
v201q0 226 -106 346t-276 120q-169 0 -274.5 -120t-105.5 -346z" />
    <glyph glyph-name="R" unicode="R" horiz-adv-x="1259" 
d="M679 1365q109 0 193.5 -33t135.5 -90t77 -128t26 -152q0 -80 -22 -146.5t-60 -111.5t-80.5 -74.5t-92.5 -47.5l279 -582h-183l-254 549h-345v-549h-159v1365h485zM353 694h298q146 0 221 66.5t75 190.5q0 131 -76.5 200t-211.5 69h-306v-526z" />
    <glyph glyph-name="S" unicode="S" horiz-adv-x="1200" 
d="M88 365h161q11 -109 101 -179t244 -70q147 0 234 67t87 182q0 86 -54.5 139.5t-170.5 83.5l-245 65q-63 17 -116.5 44.5t-99.5 69t-72.5 103.5t-26.5 138q0 122 68 212.5t172.5 134t226.5 43.5q87 0 167 -23t147.5 -68.5t109 -121.5t43.5 -173h-160q-10 107 -90 174
t-221 67q-134 0 -217.5 -62t-83.5 -172q0 -159 193 -209l240 -65q172 -46 262.5 -131.5t90.5 -237.5q0 -98 -39.5 -176t-109 -127.5t-160 -75.5t-195.5 -26q-86 0 -159 17t-124.5 46.5t-90.5 67.5t-62.5 83t-35.5 89.5t-14 90.5z" />
    <glyph glyph-name="T" unicode="T" horiz-adv-x="1093" 
d="M626 0h-159v1221h-418v144h995v-144h-418v-1221z" />
    <glyph glyph-name="U" unicode="U" horiz-adv-x="1380" 
d="M337 1365v-891q0 -163 95.5 -260.5t257.5 -97.5t257.5 97.5t95.5 260.5v891h159v-891q0 -226 -141.5 -364.5t-370.5 -138.5q-228 0 -370 140.5t-142 366.5v887h159z" />
    <glyph glyph-name="V" unicode="V" horiz-adv-x="1242" 
d="M698 0h-156l-497 1365h181l391 -1172h9l389 1172h182z" />
    <glyph glyph-name="W" unicode="W" horiz-adv-x="1715" 
d="M561 0h-141l-378 1365h188l261 -1113h8l273 1113h171l272 -1113h9l261 1113h188l-379 -1365h-142l-291 1102h-9z" />
    <glyph glyph-name="X" unicode="X" horiz-adv-x="1168" 
d="M1132 1365l-456 -690l446 -675h-194l-349 549h-9l-352 -549h-182l450 688l-443 677h192l354 -549h9l350 549h184z" />
    <glyph glyph-name="Y" unicode="Y" horiz-adv-x="1131" 
d="M645 0h-159v599l-456 766h183l348 -610h9l348 610h183l-456 -766v-599z" />
    <glyph glyph-name="Z" unicode="Z" horiz-adv-x="1195" 
d="M110 0v113l742 1098v10h-715v144h913v-113l-737 -1098v-10h754v-144h-957z" />
    <glyph glyph-name="bracketleft" unicode="[" horiz-adv-x="674" 
d="M155 1365h416v-119h-266v-1355h279v-119h-429v1593z" />
    <glyph glyph-name="backslash" unicode="\" horiz-adv-x="746" 
d="M696 -309h-139l-507 1746h139z" />
    <glyph glyph-name="bracketright" unicode="]" horiz-adv-x="674" 
d="M103 1365h416v-1593h-429v119h280v1355h-267v119z" />
    <glyph glyph-name="asciicircum" unicode="^" horiz-adv-x="792" 
d="M716 795h-133l-185 441h-4l-185 -441h-133l243 570h155z" />
    <glyph glyph-name="underscore" unicode="_" horiz-adv-x="894" 
d="M895 -228h-896v125h896v-125z" />
    <glyph glyph-name="grave" unicode="`" horiz-adv-x="1000" 
d="M659 1221h-122l-278 354h161z" />
    <glyph glyph-name="a" unicode="a" horiz-adv-x="1108" 
d="M465 -17q-153 0 -247.5 89t-94.5 233q0 140 95.5 223.5t271.5 83.5h280v107q0 104 -61 156t-172 52q-182 0 -221 -128h-153q12 132 112.5 199.5t268.5 67.5q82 0 149.5 -19t121.5 -58.5t84 -108t30 -160.5v-720h-152v141h-7q-99 -158 -305 -158zM505 122q113 0 189 68.5
t76 170.5v120h-277q-106 0 -157 -47t-51 -126q0 -91 63.5 -138.5t156.5 -47.5z" />
    <glyph glyph-name="b" unicode="b" horiz-adv-x="1198" 
d="M655 -17q-122 0 -201 49t-112 122h-8v-154h-149v1477h157v-594h8q21 73 102 128t209 55q184 0 294.5 -119.5t110.5 -325.5v-192q0 -207 -112 -326.5t-299 -119.5zM635 122q126 0 200 86.5t74 254.5v117q0 167 -73.5 257t-205.5 90q-133 0 -210.5 -87.5t-77.5 -233.5v-186
q0 -128 81.5 -213t211.5 -85z" />
    <glyph glyph-name="c" unicode="c" horiz-adv-x="1076" 
d="M132 434v184q0 204 116 326t314 122q93 0 169.5 -27t123.5 -72t73 -98.5t28 -109.5h-157q-5 26 -18 51t-38 52.5t-71.5 44t-107.5 16.5q-134 0 -204.5 -83t-70.5 -229v-179q0 -140 73.5 -223t201.5 -83q204 0 243 151h157q-3 -55 -28 -106t-72 -93.5t-125 -68.5t-177 -26
q-198 0 -314 122t-116 329z" />
    <glyph glyph-name="d" unicode="d" horiz-adv-x="1200" 
d="M543 1067q121 0 198.5 -49.5t106.5 -121.5h8v581h157v-1477h-149v167h-8q-20 -72 -105 -127.5t-213 -55.5q-183 0 -294.5 117.5t-111.5 314.5v218q0 194 112 313.5t299 119.5zM564 928q-128 0 -201.5 -88t-73.5 -245v-137q0 -159 75 -247t206 -88t208.5 85.5t77.5 230.5
v196q0 127 -82 210t-210 83z" />
    <glyph glyph-name="e" unicode="e" horiz-adv-x="1112" 
d="M572 -17q-207 0 -323.5 123.5t-116.5 332.5v170q0 206 119 331.5t308 125.5t308 -125.5t119 -331.5v-128h-696v-54q0 -133 73.5 -219t207.5 -86q91 0 154 37t79 89h167q-7 -43 -34.5 -87t-74.5 -85t-123 -67t-167 -26zM290 603h538v19q0 138 -73.5 221.5t-195.5 83.5
t-195.5 -83.5t-73.5 -221.5v-19z" />
    <glyph glyph-name="f" unicode="f" horiz-adv-x="790" 
d="M273 0v918h-178v131h178v105q0 151 76 222t244 71q58 0 112 -6v-133q-32 4 -93 4q-99 0 -140.5 -36.5t-41.5 -133.5v-93h245v-131h-245v-918h-157z" />
    <glyph glyph-name="g" unicode="g" horiz-adv-x="1161" 
d="M550 -255q143 0 216.5 73t73.5 204v161h-9q-33 -71 -112 -117.5t-183 -46.5q-117 0 -211.5 51.5t-151 151t-56.5 231.5v177q0 198 119.5 317t298.5 119q111 0 194 -52.5t112 -121.5h7v157h149v-1024q0 -209 -120 -314t-334 -105q-187 0 -288.5 79t-114.5 203h164
q11 -61 76.5 -102t169.5 -41zM566 927q-134 0 -213 -92t-79 -242v-103q0 -147 82.5 -239.5t211.5 -92.5q126 0 199 88t73 209v169q0 123 -75 213t-199 90z" />
    <glyph glyph-name="h" unicode="h" horiz-adv-x="1213" 
d="M187 0v1477h157v-620h8q9 32 30 64t57.5 66.5t99.5 56.5t141 22q159 0 256.5 -89.5t97.5 -258.5v-718h-157v666q0 125 -65 193t-179 68q-139 0 -214 -96.5t-75 -245.5v-585h-157z" />
    <glyph glyph-name="i" unicode="i" horiz-adv-x="579" 
d="M211 0v1049h157v-1049h-157zM171 1376q0 51 34 85t83 34q52 0 86 -33.5t34 -85.5q0 -50 -34 -83.5t-86 -33.5q-49 0 -83 33.5t-34 83.5z" />
    <glyph glyph-name="j" unicode="j" horiz-adv-x="579" 
d="M171 1376q0 51 34 85t83 34q52 0 86 -33.5t34 -85.5q0 -50 -34 -83.5t-86 -33.5q-49 0 -83 33.5t-34 83.5zM368 1049v-1083q0 -342 -274 -342q-64 0 -98 9v128q27 -5 67 -5q81 0 114.5 50t33.5 162v1081h157z" />
    <glyph glyph-name="k" unicode="k" horiz-adv-x="1050" 
d="M344 392v-392h-157v1477h157v-909h6l444 481h184l-419 -456l446 -593h-189l-371 493z" />
    <glyph glyph-name="l" unicode="l" horiz-adv-x="537" 
d="M190 0v1477h157v-1477h-157z" />
    <glyph glyph-name="m" unicode="m" horiz-adv-x="1780" 
d="M184 0v1049h157v-165h8q62 182 284 182q115 0 190.5 -54.5t102.5 -142.5h7q37 87 116.5 142t203.5 55q164 0 256 -84.5t92 -241.5v-740h-157v698q0 104 -59 166.5t-170 62.5q-104 0 -174 -72t-70 -182v-673h-157v690q0 105 -63 171t-171 66q-105 0 -172 -71t-67 -181
v-675h-157z" />
    <glyph glyph-name="n" unicode="n" horiz-adv-x="1206" 
d="M184 0v1049h157v-192h8q68 209 320 209q164 0 261 -88t97 -258v-720h-157v668q0 126 -62 192.5t-176 66.5q-142 0 -216.5 -96t-74.5 -246v-585h-157z" />
    <glyph glyph-name="o" unicode="o" horiz-adv-x="1155" 
d="M578 1066q195 0 320 -122.5t125 -335.5v-166q0 -214 -125 -336.5t-320 -122.5q-199 0 -322.5 121.5t-123.5 337.5v166q0 207 126 332.5t320 125.5zM579 927q-131 0 -210.5 -93t-79.5 -244v-132q0 -155 77 -245.5t213 -90.5q135 0 211 90t76 246v132q0 152 -78 244.5
t-209 92.5z" />
    <glyph glyph-name="p" unicode="p" horiz-adv-x="1197" 
d="M652 -17q-121 0 -195 48t-107 123h-8v-521h-157v1417h149v-167h8q30 78 111.5 130.5t205.5 52.5q184 0 294 -119.5t110 -325.5v-192q0 -207 -112 -326.5t-299 -119.5zM630 122q126 0 201 86.5t75 256.5v117q0 167 -74 256t-207 89t-208 -85t-75 -231v-196
q0 -128 79.5 -210.5t208.5 -82.5z" />
    <glyph glyph-name="q" unicode="q" horiz-adv-x="1195" 
d="M537 1066q118 0 199.5 -50.5t116.5 -130.5h8v164h149v-1417h-157v525h-8q-33 -76 -112 -125t-199 -49q-185 0 -293.5 120.5t-108.5 321.5v198q0 199 110.5 321t294.5 122zM565 926q-130 0 -203 -90t-73 -243v-137q0 -158 73.5 -246.5t206.5 -88.5q132 0 208 85.5
t76 230.5v196q0 127 -80.5 210t-207.5 83z" />
    <glyph glyph-name="r" unicode="r" horiz-adv-x="787" 
d="M202 0v1049h157v-161h8q12 30 31.5 57.5t53 56.5t87.5 46t122 17q19 0 61 -4v-146q-23 4 -80 4q-136 0 -209.5 -72t-73.5 -184v-663h-157z" />
    <glyph glyph-name="s" unicode="s" horiz-adv-x="1030" 
d="M131 751q0 79 31.5 141t85.5 99t121.5 56t144.5 19q166 0 267 -80.5t101 -209.5h-148q-5 64 -64 111.5t-163 47.5q-99 0 -160.5 -44t-61.5 -123q0 -96 107 -135q37 -13 150 -34q68 -12 115 -24t98 -34.5t82 -51.5t51 -75.5t20 -106.5q0 -153 -112.5 -238.5t-297.5 -85.5
q-173 0 -279 75.5t-106 212.5h154q24 -158 238 -158q125 0 186.5 49t61.5 126q0 30 -8 53t-28 40.5t-39 29t-55.5 22t-61.5 16t-72 14.5q-51 11 -82.5 18.5t-74 20.5t-68 26.5t-54 35t-44 47t-25.5 61.5t-10 79z" />
    <glyph glyph-name="t" unicode="t" horiz-adv-x="754" 
d="M237 1049v264h157v-264h238v-131h-238v-633q0 -96 36.5 -128.5t137.5 -32.5q41 0 81 5v-131q-37 -8 -121 -8q-91 0 -149 17.5t-89 58t-42 92.5t-11 135v625h-160v131h160z" />
    <glyph glyph-name="u" unicode="u" horiz-adv-x="1200" 
d="M1016 1049v-1049h-157v174h-9q-26 -76 -106.5 -133.5t-206.5 -57.5q-168 0 -264.5 80t-96.5 253v733h157v-690q0 -125 65.5 -181t174.5 -56q120 0 203 76.5t83 180.5v670h157z" />
    <glyph glyph-name="v" unicode="v" horiz-adv-x="1025" 
d="M430 0l-375 1049h175l273 -880h7l292 880h168l-383 -1049h-157z" />
    <glyph glyph-name="w" unicode="w" horiz-adv-x="1496" 
d="M1436 1049l-281 -1049h-153l-246 819h-4l-240 -819h-154l-298 1049h179l194 -839h7l239 839h148l246 -839h7l199 839h157z" />
    <glyph glyph-name="x" unicode="x" horiz-adv-x="1054" 
d="M784 0l-258 399h-6l-259 -399h-179l356 518l-358 531h190l251 -398h7l259 398h181l-358 -513l364 -536h-190z" />
    <glyph glyph-name="y" unicode="y" horiz-adv-x="1080" 
d="M1000 1049l-379 -1060l-27 -73q-20 -54 -36.5 -90.5t-45.5 -80t-62 -69.5t-83 -43.5t-111 -17.5q-49 0 -101 8v133q27 -5 76 -5q89 0 136 42.5t72 129.5l17 60l-391 1066h175l293 -886h7l293 886h167z" />
    <glyph glyph-name="z" unicode="z" horiz-adv-x="1015" 
d="M124 0v111l570 789v10h-574v139h771v-111l-571 -790v-9h575v-139h-771z" />
    <glyph glyph-name="braceleft" unicode="{" horiz-adv-x="739" 
d="M249 595v-22q166 -15 166 -222v-325q0 -111 51 -162.5t172 -51.5h41v-126h-52q-357 0 -357 331v279q0 110 -35.5 156t-134.5 46v171q99 0 134.5 46.5t35.5 155.5v249q0 171 91.5 246.5t265.5 75.5h52v-126h-41q-121 0 -172 -51t-51 -162v-286q0 -205 -166 -222z" />
    <glyph glyph-name="bar" unicode="|" horiz-adv-x="711" 
d="M421 -309h-131v1746h131v-1746z" />
    <glyph glyph-name="braceright" unicode="}" horiz-adv-x="739" 
d="M490 573v22q-166 17 -166 222v286q0 111 -51 162t-172 51h-41v126h52q174 0 265.5 -75.5t91.5 -246.5v-249q0 -109 35.5 -155.5t134.5 -46.5v-171q-99 0 -134.5 -46t-35.5 -156v-279q0 -331 -357 -331h-52v126h41q121 0 172 51.5t51 162.5v325q0 207 166 222z" />
    <glyph glyph-name="asciitilde" unicode="~" horiz-adv-x="1167" 
d="M792 494q-61 0 -113 23t-88.5 56t-69 65.5t-69 55.5t-73.5 23q-59 0 -94 -50.5t-38 -127.5h-144q0 84 28.5 154t92 117t153.5 47q45 0 85.5 -12.5t70.5 -32t57 -43t50.5 -47.5t46 -43.5t49 -32t53.5 -12.5q59 0 93 50.5t38 127.5h144q0 -83 -28.5 -153.5t-92 -117.5
t-151.5 -47z" />
    <glyph glyph-name="nonbreakingspace" unicode="&#xa0;" horiz-adv-x="465" 
 />
    <glyph glyph-name="exclamdown" unicode="&#xa1;" horiz-adv-x="565" 
d="M372 -276h-179l20 873h139zM418 973q0 -59 -39 -98t-94 -39q-59 0 -98.5 39t-39.5 98q0 56 39.5 94.5t98.5 38.5q55 0 94 -38.5t39 -94.5z" />
    <glyph glyph-name="cent" unicode="&#xa2;" horiz-adv-x="1128" 
d="M973 430q-2 -50 -23.5 -97.5t-61.5 -88.5t-105 -69t-148 -36v-228h-128v229q-171 20 -268.5 139t-97.5 308v184q0 186 98 305.5t268 138.5v248h128v-247q153 -18 239.5 -106.5t90.5 -197.5h-157q-5 27 -18 52t-38 53.5t-71.5 46t-107.5 17.5q-134 0 -205 -85.5
t-71 -231.5v-179q0 -140 74 -221t202 -81q205 0 243 147h157z" />
    <glyph glyph-name="sterling" unicode="&#xa3;" horiz-adv-x="1128" 
d="M1037 134v-134h-914v143q32 0 49.5 1t39.5 6t33 15.5t23.5 29t17.5 47t8.5 68t3.5 94.5v234h-198v126h198v300q0 158 107 244t267 86t256 -83t101 -220h-148q-5 73 -62 121t-149 48q-107 0 -161 -60t-54 -151v-285h299v-126h-299v-241q0 -105 -13.5 -166.5t-52.5 -86.5
v-10h648z" />
    <glyph glyph-name="currency" unicode="&#xa4;" horiz-adv-x="1128" 
d="M945 177l-177 177q-91 -59 -198 -59q-112 0 -203 63l-180 -181l-92 92l179 180q-66 93 -66 207q0 111 61 200l-174 174l93 93l172 -173q93 68 210 68q112 0 205 -64l169 169l93 -93l-169 -169q64 -93 64 -205q0 -118 -70 -213l175 -174zM320 656q0 -103 73 -176t177 -73
q103 0 177 73t74 176t-74 177t-177 74t-176.5 -73.5t-73.5 -177.5z" />
    <glyph glyph-name="yen" unicode="&#xa5;" horiz-adv-x="1128" 
d="M932 299h-288v-299h-158v299h-288v116h288v151h-288v116h239l-407 683h183l347 -610h9l349 610h183l-407 -683h238v-116h-288v-151h288v-116z" />
    <glyph glyph-name="brokenbar" unicode="&#xa6;" horiz-adv-x="451" 
d="M291 783h-131v654h131v-654zM291 -309h-131v685h131v-685z" />
    <glyph glyph-name="section" unicode="&#xa7;" horiz-adv-x="984" 
d="M719 72q0 36 -13 64t-35 46t-54.5 31.5t-67.5 23.5t-79 20q-7 1 -10 2q-78 19 -133.5 40.5t-105 56t-74.5 86.5t-25 121q0 88 49.5 147.5t119.5 94.5v8q-164 90 -164 254q0 155 108 241.5t262 86.5q161 0 262 -88t101 -221h-148q-4 63 -61.5 117t-158.5 54
q-93 0 -151 -50.5t-58 -132.5q0 -38 15 -67t35.5 -47t58.5 -33.5t66 -23t76 -18.5q44 -10 74 -17.5t69.5 -21.5t66.5 -29t55.5 -38t45 -50.5t27.5 -65.5t11 -83q0 -82 -43 -145.5t-107 -104.5v-8q65 -42 104.5 -95.5t39.5 -139.5q0 -154 -110.5 -247t-282.5 -93
q-162 0 -273 83.5t-111 223.5h155q12 -78 71.5 -122.5t160.5 -44.5q118 0 175 52.5t57 132.5zM605 366q51 19 86 75t35 118q0 80 -58.5 124.5t-173.5 68.5q-75 16 -81 17q-47 -12 -91.5 -66.5t-44.5 -121.5q0 -80 57.5 -122t170.5 -70q7 -2 100 -23z" />
    <glyph glyph-name="dieresis" unicode="&#xa8;" horiz-adv-x="1000" 
d="M666 1225q-42 0 -72.5 29.5t-30.5 71.5q0 44 30.5 73.5t72.5 29.5q47 0 78.5 -29.5t31.5 -73.5q0 -42 -32 -71.5t-78 -29.5zM311 1225q-44 0 -75 29.5t-31 71.5q0 44 31 73.5t75 29.5q45 0 76 -29.5t31 -73.5q0 -42 -31.5 -71.5t-75.5 -29.5z" />
    <glyph glyph-name="copyright" unicode="&#xa9;" horiz-adv-x="1693" 
d="M537 632v99q0 158 85.5 245t235.5 87q70 0 126.5 -21.5t92 -56.5t55 -77.5t20.5 -87.5h-118q-4 22 -13.5 42t-28 42.5t-53 36t-80.5 13.5q-102 0 -153.5 -58.5t-51.5 -170.5v-94q0 -108 54 -163t151 -55q152 0 181 115h118q-2 -43 -20.5 -83t-53.5 -73.5t-93.5 -54
t-132.5 -20.5q-151 0 -236 87t-85 248zM253 640q0 -257 165.5 -422t433.5 -165t435 165t167 422v107q0 117 -44.5 221t-122.5 180t-191 120.5t-244 44.5t-243.5 -44.5t-190 -120.5t-121.5 -180t-44 -221v-107zM852 -64q-209 0 -374 92t-255.5 253.5t-90.5 362.5v103
q0 142 54 268t148 218t229 145.5t289 53.5q155 0 290 -54t228.5 -146.5t147.5 -218.5t54 -266v-103q0 -151 -53 -282t-146.5 -224.5t-228.5 -147.5t-292 -54z" />
    <glyph glyph-name="ordfeminine" unicode="&#xaa;" horiz-adv-x="684" 
d="M294 787q-85 0 -137 46.5t-52 127.5q0 80 53 125.5t153 45.5h148v53q0 96 -116 96q-94 0 -109 -62h-108q6 73 63 115t158 42t162.5 -46t61.5 -146v-388h-107v75h-5q-50 -84 -165 -84zM328 877q55 0 93 32.5t38 80.5v60h-133q-55 1 -83 -21.5t-28 -60.5q0 -44 32.5 -67.5
t80.5 -23.5z" />
    <glyph glyph-name="guillemotleft" unicode="&#xab;" horiz-adv-x="1311" 
d="M612 565l344 404h185l-339 -403v-6l339 -405h-194l-335 402v8zM140 565l344 404h185l-339 -403v-6l339 -405h-194l-335 402v8z" />
    <glyph glyph-name="logicalnot" unicode="&#xac;" horiz-adv-x="1128" 
d="M1039 100h-138v380h-811v129h949v-509z" />
    <glyph glyph-name="registered" unicode="&#xae;" horiz-adv-x="1211" 
d="M609 414q-209 0 -346 132t-137 332v68q0 189 138.5 319t344.5 130q205 0 344 -131t139 -318v-68q0 -200 -136.5 -332t-346.5 -132zM609 507q170 0 280.5 105t110.5 266v68q0 151 -111.5 254.5t-279.5 103.5t-279 -103.5t-111 -254.5v-68q0 -161 110 -266t280 -105z
M530 1085v-157h77q104 0 104 79q0 38 -25 58t-65 20h-91zM530 676h-90v477h216q63 0 104.5 -41t41.5 -101q0 -51 -26.5 -89.5t-67.5 -50.5l109 -195h-107l-95 185h-85v-185z" />
    <glyph glyph-name="macron" unicode="&#xaf;" horiz-adv-x="1000" 
d="M787 1252h-588v111h588v-111z" />
    <glyph glyph-name="degree" unicode="&#xb0;" horiz-adv-x="730" 
d="M366 820q-118 0 -200 82.5t-82 199.5q0 116 82 198t200 82q116 0 198 -82t82 -198q0 -117 -82 -199.5t-198 -82.5zM366 943q66 0 112.5 47t46.5 112q0 66 -46.5 112.5t-112.5 46.5q-64 0 -111.5 -47t-47.5 -112q0 -64 47.5 -111.5t111.5 -47.5z" />
    <glyph glyph-name="plusminus" unicode="&#xb1;" horiz-adv-x="1128" 
d="M625 659v-294h-127v294h-410v129h410v281h127v-281h412v-129h-412zM1040 127h-949v129h949v-129z" />
    <glyph glyph-name="twosuperior" unicode="&#xb2;" horiz-adv-x="690" 
d="M226 1161h-114v9q0 84 59.5 145t163.5 61q98 0 159.5 -54.5t61.5 -137.5q0 -59 -30.5 -108.5t-85.5 -107.5l-172 -173h300v-106h-446v78l243 271q73 77 73 138q0 44 -29.5 70t-75.5 26q-49 0 -78 -30t-29 -72v-9z" />
    <glyph glyph-name="threesuperior" unicode="&#xb3;" horiz-adv-x="697" 
d="M260 986v102h76q46 0 75 26.5t29 68.5q0 41 -28 66.5t-74 25.5q-47 0 -76.5 -25.5t-32.5 -61.5h-110q3 78 61.5 133t158.5 55q95 0 155.5 -49t60.5 -127q0 -56 -32.5 -98t-87.5 -58q63 -12 103.5 -53t40.5 -109q0 -89 -67.5 -146.5t-172.5 -57.5t-168.5 56.5t-66.5 134.5
h110q4 -38 38 -63.5t85 -25.5q56 0 90.5 29.5t34.5 74.5q0 44 -33.5 73t-89.5 29h-79z" />
    <glyph glyph-name="acute" unicode="&#xb4;" horiz-adv-x="1000" 
d="M325 1221l239 354h161l-278 -354h-122z" />
    <glyph glyph-name="paragraph" unicode="&#xb6;" horiz-adv-x="1272" 
d="M739 -210h-157v747h-20q-49 0 -103.5 12t-114.5 42.5t-107 75.5t-78 118.5t-31 163.5q0 98 31 174.5t77.5 121t108 73t114 38t104.5 9.5h176v-1575zM897 -210v1575h157v-1575h-157z" />
    <glyph glyph-name="periodcentered" unicode="&#xb7;" horiz-adv-x="659" 
d="M194 737q0 59 39 98t94 39q59 0 98.5 -39t39.5 -98q0 -56 -39.5 -94.5t-98.5 -38.5q-55 0 -94 38.5t-39 94.5z" />
    <glyph glyph-name="cedilla" unicode="&#xb8;" horiz-adv-x="1000" 
d="M388 -234v75l63 169h114l-55 -150q100 0 157.5 -40.5t57.5 -119.5q0 -89 -61 -135.5t-158 -51.5q-82 -4 -151 15v102q47 -14 117 -14q49 0 84 19t35 62q0 17 -5.5 29.5t-19 20t-23.5 11.5t-33 6t-33 2h-37h-52z" />
    <glyph glyph-name="onesuperior" unicode="&#xb9;" horiz-adv-x="653" 
d="M442 689h-118v549h-5l-152 -116v120l157 123h118v-676z" />
    <glyph glyph-name="ordmasculine" unicode="&#xba;" horiz-adv-x="673" 
d="M338 1281q-67 0 -105 -46t-38 -120v-66q0 -76 37 -121t106 -45q68 0 104.5 45t36.5 121v66q0 74 -37.5 120t-103.5 46zM338 1376q114 0 185 -69t71 -187v-76q0 -120 -71 -188.5t-185 -68.5q-116 0 -186.5 68t-70.5 189v76q0 115 71.5 185.5t185.5 70.5z" />
    <glyph glyph-name="guillemotright" unicode="&#xbb;" horiz-adv-x="1311" 
d="M1171 565v-8l-335 -402h-194l339 405v6l-339 403h185zM699 565v-8l-335 -402h-194l339 405v6l-339 403h185z" />
    <glyph glyph-name="onequarter" unicode="&#xbc;" horiz-adv-x="1480" 
d="M959 224h214v350h-5q-73 -109 -209 -347v-3zM1120 678h159v-454h81v-98h-81v-126h-106v126h-334v93l69 119l65 106.5l77.5 123zM395 689h-118v549h-5l-152 -116v120l157 123h118v-676zM283 0h-143l520 683l519 682h143l-519 -682z" />
    <glyph glyph-name="onehalf" unicode="&#xbd;" horiz-adv-x="1530" 
d="M395 689h-118v549h-5l-152 -116v120l157 123h118v-676zM283 0h-143l520 683l519 682h143l-519 -682zM1062 458h-117v9q0 86 61 148t167 62q100 0 162.5 -56t62.5 -140q0 -59 -31 -110t-87 -110l-176 -176h306v-108h-455v80l248 276q75 77 75 140q0 44 -30 71t-77 27
q-50 0 -79.5 -30.5t-29.5 -73.5v-9z" />
    <glyph glyph-name="threequarters" unicode="&#xbe;" horiz-adv-x="1540" 
d="M1019 226h214v348h-5q-81 -120 -209 -345v-3zM1180 678h161v-452h79v-100h-79v-126h-108v126h-334v93l69 119l65 106.5l77.5 123zM278 962v104h77q47 0 76.5 26.5t29.5 69.5q0 42 -29 68t-75 26q-47 0 -77 -26t-34 -63h-111q3 79 62 135t161 56q96 0 157.5 -50t61.5 -129
q0 -57 -32.5 -99.5t-88.5 -58.5q63 -12 104.5 -53.5t41.5 -110.5q0 -91 -68.5 -149t-175.5 -58q-106 0 -170.5 57t-67.5 137h111q4 -39 38.5 -65t86.5 -26q56 0 91.5 30t35.5 76q0 45 -34 74t-91 29h-80zM343 0h-143l520 683l519 682h143l-519 -682z" />
    <glyph glyph-name="questiondown" unicode="&#xbf;" horiz-adv-x="995" 
d="M649 955q0 -59 -39 -98t-94 -39q-59 0 -98.5 39t-39.5 98q0 56 39.5 94.5t98.5 38.5q55 0 94 -38.5t39 -94.5zM898 61q0 -106 -37 -185t-99 -121.5t-129.5 -62t-141.5 -19.5q-77 0 -146.5 21t-125.5 61.5t-89 106.5t-33 149q0 59 15 107.5t47.5 89.5t58.5 66t71 62
q43 35 61.5 51.5t42 41t32 44t14.5 46.5t6 62v62h157v-91q0 -50 -15 -93t-48 -82.5t-58 -62.5t-72 -62q-43 -35 -64 -54.5t-45 -48.5t-33 -59.5t-9 -69.5q0 -106 68.5 -158t170.5 -52q121 0 185 70t64 181h152z" />
    <glyph glyph-name="Agrave" unicode="&#xc0;" horiz-adv-x="1243" 
d="M217 0h-163l490 1365h155l490 -1365h-171l-142 420h-516zM621 1168h-6l-210 -617h426zM704 1514h-122l-278 354h161z" />
    <glyph glyph-name="Aacute" unicode="&#xc1;" horiz-adv-x="1243" 
d="M217 0h-163l490 1365h155l490 -1365h-171l-142 420h-516zM621 1168h-6l-210 -617h426zM540 1514l239 354h161l-278 -354h-122z" />
    <glyph glyph-name="Acircumflex" unicode="&#xc2;" horiz-adv-x="1243" 
d="M217 0h-163l490 1365h155l490 -1365h-171l-142 420h-516zM621 1168h-6l-210 -617h426zM674 1747l271 -244h-163l-158 144h-5l-167 -144h-159l282 244h99z" />
    <glyph glyph-name="Atilde" unicode="&#xc3;" horiz-adv-x="1243" 
d="M217 0h-163l490 1365h155l490 -1365h-171l-142 420h-516zM621 1168h-6l-210 -617h426zM741 1463q-44 0 -81.5 19t-59 42t-48.5 42t-51 19q-20 0 -34.5 -11t-22 -29t-11 -34.5t-4.5 -33.5h-106q0 86 45.5 147t127.5 61q43 0 81 -19t61 -42t50.5 -42t51.5 -19q36 0 56 32.5
t22 73.5h106q0 -80 -48.5 -143t-134.5 -63z" />
    <glyph glyph-name="Adieresis" unicode="&#xc4;" horiz-adv-x="1243" 
d="M217 0h-163l490 1365h155l490 -1365h-171l-142 420h-516zM621 1168h-6l-210 -617h426zM793 1483q-42 0 -71.5 28t-29.5 70q0 43 29 71t72 28q46 0 76 -28t30 -71q0 -42 -30 -70t-76 -28zM446 1483q-43 0 -72.5 28t-29.5 70q0 43 29.5 71t72.5 28q45 0 74.5 -28t29.5 -71
q0 -42 -29.5 -70t-74.5 -28z" />
    <glyph glyph-name="Aring" unicode="&#xc5;" horiz-adv-x="1243" 
d="M217 0h-163l490 1365h155l490 -1365h-171l-142 420h-516zM621 1168h-6l-210 -617h426zM622 1488q-78 0 -132 52.5t-54 129.5t54 129.5t132 52.5t132 -52.5t54 -129.5t-54 -129.5t-132 -52.5zM519 1670q0 -44 30 -74.5t73 -30.5t72.5 30.5t29.5 74.5t-29.5 74t-72.5 30
t-73 -30t-30 -74z" />
    <glyph glyph-name="AE" unicode="&#xc6;" horiz-adv-x="1897" 
d="M881 1220l-356 -669h429v669h-73zM954 420h-499l-232 -420h-181l754 1365h957v-145h-640v-450h604v-144h-604v-481h640v-145h-799v420z" />
    <glyph glyph-name="Ccedilla" unicode="&#xc7;" horiz-adv-x="1297" 
d="M663 -487q-82 -4 -151 15v102q47 -14 117 -14q49 0 84 19t35 62q0 17 -5.5 29.5t-19 20t-23.5 11.5t-33 6t-33 2h-37h-52v75l50 134q-214 22 -334.5 176t-120.5 425v205q0 289 143.5 451t386.5 162q97 0 179.5 -26.5t140 -71.5t98 -104t60 -124t19.5 -131h-158
q0 122 -91.5 217t-247.5 95q-169 0 -270 -121t-101 -350v-200q0 -231 100 -346t276 -115q158 0 246 82.5t88 203.5h158q0 -55 -16.5 -111.5t-53 -112t-89 -99.5t-130 -73.5t-170.5 -34.5l-41 -112q100 0 157.5 -40.5t57.5 -119.5q0 -89 -61 -135.5t-158 -51.5z" />
    <glyph glyph-name="Egrave" unicode="&#xc8;" horiz-adv-x="1147" 
d="M1003 145v-145h-809v1365h809v-145h-650v-450h614v-144h-614v-481h650zM678 1514h-122l-278 354h161z" />
    <glyph glyph-name="Eacute" unicode="&#xc9;" horiz-adv-x="1147" 
d="M1003 145v-145h-809v1365h809v-145h-650v-450h614v-144h-614v-481h650zM514 1514l239 354h161l-278 -354h-122z" />
    <glyph glyph-name="Ecircumflex" unicode="&#xca;" horiz-adv-x="1147" 
d="M1003 145v-145h-809v1365h809v-145h-650v-450h614v-144h-614v-481h650zM648 1747l271 -244h-163l-158 144h-5l-167 -144h-159l282 244h99z" />
    <glyph glyph-name="Edieresis" unicode="&#xcb;" horiz-adv-x="1147" 
d="M1003 145v-145h-809v1365h809v-145h-650v-450h614v-144h-614v-481h650zM767 1483q-42 0 -71.5 28t-29.5 70q0 43 29 71t72 28q46 0 76 -28t30 -71q0 -42 -30 -70t-76 -28zM420 1483q-43 0 -72.5 28t-29.5 70q0 43 29.5 71t72.5 28q45 0 74.5 -28t29.5 -71
q0 -42 -29.5 -70t-74.5 -28z" />
    <glyph glyph-name="Igrave" unicode="&#xcc;" horiz-adv-x="547" 
d="M353 0h-159v1365h159v-1365zM356 1514h-122l-278 354h161z" />
    <glyph glyph-name="Iacute" unicode="&#xcd;" horiz-adv-x="547" 
d="M353 0h-159v1365h159v-1365zM192 1514l239 354h161l-278 -354h-122z" />
    <glyph glyph-name="Icircumflex" unicode="&#xce;" horiz-adv-x="547" 
d="M353 0h-159v1365h159v-1365zM326 1747l271 -244h-163l-158 144h-5l-167 -144h-159l282 244h99z" />
    <glyph glyph-name="Idieresis" unicode="&#xcf;" horiz-adv-x="547" 
d="M353 0h-159v1365h159v-1365zM445 1483q-42 0 -71.5 28t-29.5 70q0 43 29 71t72 28q46 0 76 -28t30 -71q0 -42 -30 -70t-76 -28zM98 1483q-43 0 -72.5 28t-29.5 70q0 43 29.5 71t72.5 28q45 0 74.5 -28t29.5 -71q0 -42 -29.5 -70t-74.5 -28z" />
    <glyph glyph-name="Eth" unicode="&#xd0;" horiz-adv-x="1415" 
d="M698 0h-428v627h-160v144h160v594h428q161 0 278 -50t186 -143t101.5 -214.5t32.5 -275.5q0 -120 -19 -220t-63 -187t-112 -147t-170.5 -94t-233.5 -34zM429 145h263q439 0 439 537q0 538 -439 538h-263v-449h317v-144h-317v-482z" />
    <glyph glyph-name="Ntilde" unicode="&#xd1;" horiz-adv-x="1412" 
d="M353 0h-159v1365h159l698 -1092h8v1092h159v-1365h-159l-699 1092h-7v-1092zM825 1463q-44 0 -81.5 19t-59 42t-48.5 42t-51 19q-20 0 -34.5 -11t-22 -29t-11 -34.5t-4.5 -33.5h-106q0 86 45.5 147t127.5 61q43 0 81 -19t61 -42t50.5 -42t51.5 -19q36 0 56 32.5t22 73.5
h106q0 -80 -48.5 -143t-134.5 -63z" />
    <glyph glyph-name="Ograve" unicode="&#xd2;" horiz-adv-x="1360" 
d="M299 778v-205q0 -225 105 -341t275 -116q171 0 276.5 116t105.5 341v205q0 227 -106.5 349t-275.5 122q-168 0 -274 -122t-106 -349zM140 573v205q0 288 147 452t394 164t393 -164t146 -452v-205q0 -286 -147 -444t-396 -158q-248 0 -392.5 158t-144.5 444zM762 1514
h-122l-278 354h161z" />
    <glyph glyph-name="Oacute" unicode="&#xd3;" horiz-adv-x="1360" 
d="M299 778v-205q0 -225 105 -341t275 -116q171 0 276.5 116t105.5 341v205q0 227 -106.5 349t-275.5 122q-168 0 -274 -122t-106 -349zM140 573v205q0 288 147 452t394 164t393 -164t146 -452v-205q0 -286 -147 -444t-396 -158q-248 0 -392.5 158t-144.5 444zM598 1514
l239 354h161l-278 -354h-122z" />
    <glyph glyph-name="Ocircumflex" unicode="&#xd4;" horiz-adv-x="1360" 
d="M299 778v-205q0 -225 105 -341t275 -116q171 0 276.5 116t105.5 341v205q0 227 -106.5 349t-275.5 122q-168 0 -274 -122t-106 -349zM140 573v205q0 288 147 452t394 164t393 -164t146 -452v-205q0 -286 -147 -444t-396 -158q-248 0 -392.5 158t-144.5 444zM732 1747
l271 -244h-163l-158 144h-5l-167 -144h-159l282 244h99z" />
    <glyph glyph-name="Otilde" unicode="&#xd5;" horiz-adv-x="1360" 
d="M299 778v-205q0 -225 105 -341t275 -116q171 0 276.5 116t105.5 341v205q0 227 -106.5 349t-275.5 122q-168 0 -274 -122t-106 -349zM140 573v205q0 288 147 452t394 164t393 -164t146 -452v-205q0 -286 -147 -444t-396 -158q-248 0 -392.5 158t-144.5 444zM799 1463
q-44 0 -81.5 19t-59 42t-48.5 42t-51 19q-20 0 -34.5 -11t-22 -29t-11 -34.5t-4.5 -33.5h-106q0 86 45.5 147t127.5 61q43 0 81 -19t61 -42t50.5 -42t51.5 -19q36 0 56 32.5t22 73.5h106q0 -80 -48.5 -143t-134.5 -63z" />
    <glyph glyph-name="Odieresis" unicode="&#xd6;" horiz-adv-x="1360" 
d="M299 778v-205q0 -225 105 -341t275 -116q171 0 276.5 116t105.5 341v205q0 227 -106.5 349t-275.5 122q-168 0 -274 -122t-106 -349zM140 573v205q0 288 147 452t394 164t393 -164t146 -452v-205q0 -286 -147 -444t-396 -158q-248 0 -392.5 158t-144.5 444zM851 1483
q-42 0 -71.5 28t-29.5 70q0 43 29 71t72 28q46 0 76 -28t30 -71q0 -42 -30 -70t-76 -28zM504 1483q-43 0 -72.5 28t-29.5 70q0 43 29.5 71t72.5 28q45 0 74.5 -28t29.5 -71q0 -42 -29.5 -70t-74.5 -28z" />
    <glyph glyph-name="multiply" unicode="&#xd7;" horiz-adv-x="1128" 
d="M878 78l-314 315l-315 -315l-91 92l314 314l-314 315l91 91l315 -315l314 315l91 -91l-314 -315l314 -314z" />
    <glyph glyph-name="Oslash" unicode="&#xd8;" horiz-adv-x="1360" 
d="M677 -29q-240 0 -381 146l-101 -126l-94 77l120 149q-81 146 -81 356v205q0 288 147 452t394 164q229 0 373 -142l99 123l98 -70l-122 -151q91 -153 91 -376v-205q0 -286 -147 -444t-396 -158zM298 573q0 -124 34 -218l622 773q-104 121 -275 121q-168 0 -274.5 -122
t-106.5 -349v-205zM679 117q171 0 276.5 115.5t105.5 340.5v205q0 135 -41 239l-624 -776q102 -124 283 -124z" />
    <glyph glyph-name="Ugrave" unicode="&#xd9;" horiz-adv-x="1380" 
d="M337 1365v-891q0 -163 95.5 -260.5t257.5 -97.5t257.5 97.5t95.5 260.5v891h159v-891q0 -226 -141.5 -364.5t-370.5 -138.5q-228 0 -370 140.5t-142 366.5v887h159zM772 1514h-122l-278 354h161z" />
    <glyph glyph-name="Uacute" unicode="&#xda;" horiz-adv-x="1380" 
d="M337 1365v-891q0 -163 95.5 -260.5t257.5 -97.5t257.5 97.5t95.5 260.5v891h159v-891q0 -226 -141.5 -364.5t-370.5 -138.5q-228 0 -370 140.5t-142 366.5v887h159zM608 1514l239 354h161l-278 -354h-122z" />
    <glyph glyph-name="Ucircumflex" unicode="&#xdb;" horiz-adv-x="1380" 
d="M337 1365v-891q0 -163 95.5 -260.5t257.5 -97.5t257.5 97.5t95.5 260.5v891h159v-891q0 -226 -141.5 -364.5t-370.5 -138.5q-228 0 -370 140.5t-142 366.5v887h159zM742 1747l271 -244h-163l-158 144h-5l-167 -144h-159l282 244h99z" />
    <glyph glyph-name="Udieresis" unicode="&#xdc;" horiz-adv-x="1380" 
d="M337 1365v-891q0 -163 95.5 -260.5t257.5 -97.5t257.5 97.5t95.5 260.5v891h159v-891q0 -226 -141.5 -364.5t-370.5 -138.5q-228 0 -370 140.5t-142 366.5v887h159zM861 1483q-42 0 -71.5 28t-29.5 70q0 43 29 71t72 28q46 0 76 -28t30 -71q0 -42 -30 -70t-76 -28z
M514 1483q-43 0 -72.5 28t-29.5 70q0 43 29.5 71t72.5 28q45 0 74.5 -28t29.5 -71q0 -42 -29.5 -70t-74.5 -28z" />
    <glyph glyph-name="Yacute" unicode="&#xdd;" horiz-adv-x="1131" 
d="M645 0h-159v599l-456 766h183l348 -610h9l348 610h183l-456 -766v-599zM484 1514l239 354h161l-278 -354h-122z" />
    <glyph glyph-name="Thorn" unicode="&#xde;" horiz-adv-x="1191" 
d="M194 1365h158v-268h311q197 0 313.5 -97t116.5 -282q0 -186 -116 -283t-314 -97h-310v-338h-159v1365zM353 953v-471h260q61 0 101.5 3.5t85 17t70 38t42.5 69t17 108.5q0 235 -272 235h-304z" />
    <glyph glyph-name="germandbls" unicode="&#xdf;" horiz-adv-x="1266" 
d="M353 0h-159v1044q0 181 110.5 286.5t301.5 106.5q185 1 299 -96t113 -254q0 -77 -28 -141t-70.5 -102t-85.5 -59.5t-81 -24.5v-12q72 0 140.5 -23t125.5 -66.5t92 -114.5t35 -159q0 -98 -40.5 -176.5t-108 -126.5t-151.5 -73.5t-175 -25.5q-82 0 -143 19v132
q50 -19 144 -19q45 0 87.5 8t84.5 27.5t73 49t50.5 76t19.5 105.5q0 127 -96 201.5t-259 74.5h-76v162h46q95 0 176.5 73t81.5 185q0 100 -68 162.5t-182 62.5q-257 0 -257 -275v-1027z" />
    <glyph glyph-name="agrave" unicode="&#xe0;" horiz-adv-x="1108" 
d="M465 -17q-153 0 -247.5 89t-94.5 233q0 140 95.5 223.5t271.5 83.5h280v107q0 104 -61 156t-172 52q-182 0 -221 -128h-153q12 132 112.5 199.5t268.5 67.5q82 0 149.5 -19t121.5 -58.5t84 -108t30 -160.5v-720h-152v141h-7q-99 -158 -305 -158zM505 122q113 0 189 68.5
t76 170.5v120h-277q-106 0 -157 -47t-51 -126q0 -91 63.5 -138.5t156.5 -47.5zM635 1221h-122l-278 354h161z" />
    <glyph glyph-name="aacute" unicode="&#xe1;" horiz-adv-x="1108" 
d="M465 -17q-153 0 -247.5 89t-94.5 233q0 140 95.5 223.5t271.5 83.5h280v107q0 104 -61 156t-172 52q-182 0 -221 -128h-153q12 132 112.5 199.5t268.5 67.5q82 0 149.5 -19t121.5 -58.5t84 -108t30 -160.5v-720h-152v141h-7q-99 -158 -305 -158zM505 122q113 0 189 68.5
t76 170.5v120h-277q-106 0 -157 -47t-51 -126q0 -91 63.5 -138.5t156.5 -47.5zM473 1221l239 354h161l-278 -354h-122z" />
    <glyph glyph-name="acircumflex" unicode="&#xe2;" horiz-adv-x="1108" 
d="M465 -17q-153 0 -247.5 89t-94.5 233q0 140 95.5 223.5t271.5 83.5h280v107q0 104 -61 156t-172 52q-182 0 -221 -128h-153q12 132 112.5 199.5t268.5 67.5q82 0 149.5 -19t121.5 -58.5t84 -108t30 -160.5v-720h-152v141h-7q-99 -158 -305 -158zM505 122q113 0 189 68.5
t76 170.5v120h-277q-106 0 -157 -47t-51 -126q0 -91 63.5 -138.5t156.5 -47.5zM255 1221l249 382h100l249 -382h-138l-159 263h-4l-159 -263h-138z" />
    <glyph glyph-name="atilde" unicode="&#xe3;" horiz-adv-x="1108" 
d="M465 -17q-153 0 -247.5 89t-94.5 233q0 140 95.5 223.5t271.5 83.5h280v107q0 104 -61 156t-172 52q-182 0 -221 -128h-153q12 132 112.5 199.5t268.5 67.5q82 0 149.5 -19t121.5 -58.5t84 -108t30 -160.5v-720h-152v141h-7q-99 -158 -305 -158zM505 122q113 0 189 68.5
t76 170.5v120h-277q-106 0 -157 -47t-51 -126q0 -91 63.5 -138.5t156.5 -47.5zM678 1214q-39 0 -69.5 16t-50 39t-36.5 45.5t-38 38.5t-45 16q-21 0 -36 -11.5t-22.5 -33t-10.5 -41.5t-5 -49h-110q0 108 46.5 176.5t136.5 68.5q41 0 74 -16t53 -38.5t37 -45.5t35.5 -39
t38.5 -16q61 0 72 135h110q0 -63 -17.5 -116.5t-60 -91t-102.5 -37.5z" />
    <glyph glyph-name="adieresis" unicode="&#xe4;" horiz-adv-x="1108" 
d="M465 -17q-153 0 -247.5 89t-94.5 233q0 140 95.5 223.5t271.5 83.5h280v107q0 104 -61 156t-172 52q-182 0 -221 -128h-153q12 132 112.5 199.5t268.5 67.5q82 0 149.5 -19t121.5 -58.5t84 -108t30 -160.5v-720h-152v141h-7q-99 -158 -305 -158zM505 122q113 0 189 68.5
t76 170.5v120h-277q-106 0 -157 -47t-51 -126q0 -91 63.5 -138.5t156.5 -47.5zM730 1225q-42 0 -72.5 29.5t-30.5 71.5q0 44 30.5 73.5t72.5 29.5q47 0 78.5 -29.5t31.5 -73.5q0 -42 -32 -71.5t-78 -29.5zM375 1225q-44 0 -75 29.5t-31 71.5q0 44 31 73.5t75 29.5
q45 0 76 -29.5t31 -73.5q0 -42 -31.5 -71.5t-75.5 -29.5z" />
    <glyph glyph-name="aring" unicode="&#xe5;" horiz-adv-x="1108" 
d="M465 -17q-153 0 -247.5 89t-94.5 233q0 140 95.5 223.5t271.5 83.5h280v107q0 104 -61 156t-172 52q-182 0 -221 -128h-153q12 132 112.5 199.5t268.5 67.5q82 0 149.5 -19t121.5 -58.5t84 -108t30 -160.5v-720h-152v141h-7q-99 -158 -305 -158zM505 122q113 0 189 68.5
t76 170.5v120h-277q-106 0 -157 -47t-51 -126q0 -91 63.5 -138.5t156.5 -47.5zM554 1231q-78 0 -132 52.5t-54 129.5t54 129.5t132 52.5t132 -52.5t54 -129.5t-54 -129.5t-132 -52.5zM451 1413q0 -44 30 -74.5t73 -30.5t72.5 30.5t29.5 74.5t-29.5 74t-72.5 30t-73 -30
t-30 -74z" />
    <glyph glyph-name="ae" unicode="&#xe6;" horiz-adv-x="1747" 
d="M1213 -17q-148 0 -246.5 59.5t-131.5 147.5h-13q-40 -87 -129 -147t-222 -60q-156 0 -253.5 86t-97.5 233q0 144 98 227t278 83h277v107q0 104 -61 155t-172 51q-189 0 -228 -126h-153q12 131 115.5 199t272.5 68q108 0 193 -35.5t127 -107.5h12q45 69 131.5 106
t189.5 37q188 0 303 -125t115 -332v-128h-686v-83q0 -119 76 -197t204 -78q91 0 149.5 36t74.5 89h167q-7 -43 -33 -87t-71.5 -85t-120 -67t-165.5 -26zM1200 928q-115 0 -191.5 -80.5t-76.5 -205.5v-39h528v27q0 138 -69.5 218t-190.5 80zM507 119q113 0 189.5 69t76.5 171
v122h-274q-108 0 -164.5 -47.5t-56.5 -125.5q0 -91 67 -140t162 -49z" />
    <glyph glyph-name="ccedilla" unicode="&#xe7;" horiz-adv-x="1076" 
d="M579 -487q-82 -4 -151 15v102q47 -14 117 -14q49 0 84 19t35 62q0 17 -5.5 29.5t-19 20t-23.5 11.5t-33 6t-33 2h-37h-52v75l53 144q-178 15 -280 135t-102 314v184q0 204 116 326t314 122q93 0 169.5 -27t123.5 -72t73 -98.5t28 -109.5h-157q-5 27 -18 52t-38 53.5
t-71.5 46t-107.5 17.5q-134 0 -205 -85.5t-71 -231.5v-179q0 -140 74 -221t202 -81q205 0 243 147h157q-5 -107 -90.5 -191t-244.5 -100l-46 -126q100 0 157.5 -40.5t57.5 -119.5q0 -89 -61 -135.5t-158 -51.5z" />
    <glyph glyph-name="egrave" unicode="&#xe8;" horiz-adv-x="1112" 
d="M572 -17q-207 0 -323.5 123.5t-116.5 332.5v170q0 206 119 331.5t308 125.5t308 -125.5t119 -331.5v-128h-696v-54q0 -133 73.5 -219t207.5 -86q91 0 154 37t79 89h167q-7 -43 -34.5 -87t-74.5 -85t-123 -67t-167 -26zM290 603h538v19q0 138 -73.5 221.5t-195.5 83.5
t-195.5 -83.5t-73.5 -221.5v-19zM637 1221h-122l-278 354h161z" />
    <glyph glyph-name="eacute" unicode="&#xe9;" horiz-adv-x="1112" 
d="M572 -17q-207 0 -323.5 123.5t-116.5 332.5v170q0 206 119 331.5t308 125.5t308 -125.5t119 -331.5v-128h-696v-54q0 -133 73.5 -219t207.5 -86q91 0 154 37t79 89h167q-7 -43 -34.5 -87t-74.5 -85t-123 -67t-167 -26zM290 603h538v19q0 138 -73.5 221.5t-195.5 83.5
t-195.5 -83.5t-73.5 -221.5v-19zM475 1221l239 354h161l-278 -354h-122z" />
    <glyph glyph-name="ecircumflex" unicode="&#xea;" horiz-adv-x="1112" 
d="M572 -17q-207 0 -323.5 123.5t-116.5 332.5v170q0 206 119 331.5t308 125.5t308 -125.5t119 -331.5v-128h-696v-54q0 -133 73.5 -219t207.5 -86q91 0 154 37t79 89h167q-7 -43 -34.5 -87t-74.5 -85t-123 -67t-167 -26zM290 603h538v19q0 138 -73.5 221.5t-195.5 83.5
t-195.5 -83.5t-73.5 -221.5v-19zM257 1221l249 382h100l249 -382h-138l-159 263h-4l-159 -263h-138z" />
    <glyph glyph-name="edieresis" unicode="&#xeb;" horiz-adv-x="1112" 
d="M572 -17q-207 0 -323.5 123.5t-116.5 332.5v170q0 206 119 331.5t308 125.5t308 -125.5t119 -331.5v-128h-696v-54q0 -133 73.5 -219t207.5 -86q91 0 154 37t79 89h167q-7 -43 -34.5 -87t-74.5 -85t-123 -67t-167 -26zM290 603h538v19q0 138 -73.5 221.5t-195.5 83.5
t-195.5 -83.5t-73.5 -221.5v-19zM732 1225q-42 0 -72.5 29.5t-30.5 71.5q0 44 30.5 73.5t72.5 29.5q47 0 78.5 -29.5t31.5 -73.5q0 -42 -32 -71.5t-78 -29.5zM377 1225q-44 0 -75 29.5t-31 71.5q0 44 31 73.5t75 29.5q45 0 76 -29.5t31 -73.5q0 -42 -31.5 -71.5t-75.5 -29.5
z" />
    <glyph glyph-name="igrave" unicode="&#xec;" horiz-adv-x="579" 
d="M211 0v1049h157v-1049h-157zM370 1221h-122l-278 354h161z" />
    <glyph glyph-name="iacute" unicode="&#xed;" horiz-adv-x="579" 
d="M211 0v1049h157v-1049h-157zM208 1221l239 354h161l-278 -354h-122z" />
    <glyph glyph-name="icircumflex" unicode="&#xee;" horiz-adv-x="579" 
d="M211 0v1049h157v-1049h-157zM-10 1221l249 382h100l249 -382h-138l-159 263h-4l-159 -263h-138z" />
    <glyph glyph-name="idieresis" unicode="&#xef;" horiz-adv-x="579" 
d="M211 0v1049h157v-1049h-157zM465 1225q-42 0 -72.5 29.5t-30.5 71.5q0 44 30.5 73.5t72.5 29.5q47 0 78.5 -29.5t31.5 -73.5q0 -42 -32 -71.5t-78 -29.5zM110 1225q-44 0 -75 29.5t-31 71.5q0 44 31 73.5t75 29.5q45 0 76 -29.5t31 -73.5q0 -42 -31.5 -71.5t-75.5 -29.5z
" />
    <glyph glyph-name="eth" unicode="&#xf0;" horiz-adv-x="1155" 
d="M580 -17q-216 0 -332 131.5t-116 348.5v71q0 212 116 342.5t313 130.5q185 0 277 -135h9q-1 4 -9 28l-13 39q-58 163 -138 266l-250 -87l-40 94l222 75l-68.5 78t-63 65t-92.5 85h201q89 -75 168 -177l280 97l34 -88l-250 -91q195 -304 195 -685v-107q0 -105 -27.5 -192
t-81.5 -152t-139 -101t-195 -36zM578 869q-139 0 -214 -88t-75 -254v-57q0 -167 75 -257t214 -90q138 0 213 92.5t75 259.5v50q0 166 -74.5 255t-213.5 89z" />
    <glyph glyph-name="ntilde" unicode="&#xf1;" horiz-adv-x="1206" 
d="M184 0v1049h157v-192h8q68 209 320 209q164 0 261 -88t97 -258v-720h-157v668q0 126 -62 192.5t-176 66.5q-142 0 -216.5 -96t-74.5 -246v-585h-157zM727 1214q-39 0 -69.5 16t-50 39t-36.5 45.5t-38 38.5t-45 16q-21 0 -36 -11.5t-22.5 -33t-10.5 -41.5t-5 -49h-110
q0 108 46.5 176.5t136.5 68.5q41 0 74 -16t53 -38.5t37 -45.5t35.5 -39t38.5 -16q61 0 72 135h110q0 -63 -17.5 -116.5t-60 -91t-102.5 -37.5z" />
    <glyph glyph-name="ograve" unicode="&#xf2;" horiz-adv-x="1155" 
d="M578 1066q195 0 320 -122.5t125 -335.5v-166q0 -214 -125 -336.5t-320 -122.5q-199 0 -322.5 121.5t-123.5 337.5v166q0 207 126 332.5t320 125.5zM579 927q-131 0 -210.5 -93t-79.5 -244v-132q0 -155 77 -245.5t213 -90.5q135 0 211 90t76 246v132q0 152 -78 244.5
t-209 92.5zM659 1221h-122l-278 354h161z" />
    <glyph glyph-name="oacute" unicode="&#xf3;" horiz-adv-x="1155" 
d="M578 1066q195 0 320 -122.5t125 -335.5v-166q0 -214 -125 -336.5t-320 -122.5q-199 0 -322.5 121.5t-123.5 337.5v166q0 207 126 332.5t320 125.5zM579 927q-131 0 -210.5 -93t-79.5 -244v-132q0 -155 77 -245.5t213 -90.5q135 0 211 90t76 246v132q0 152 -78 244.5
t-209 92.5zM497 1221l239 354h161l-278 -354h-122z" />
    <glyph glyph-name="ocircumflex" unicode="&#xf4;" horiz-adv-x="1155" 
d="M578 1066q195 0 320 -122.5t125 -335.5v-166q0 -214 -125 -336.5t-320 -122.5q-199 0 -322.5 121.5t-123.5 337.5v166q0 207 126 332.5t320 125.5zM579 927q-131 0 -210.5 -93t-79.5 -244v-132q0 -155 77 -245.5t213 -90.5q135 0 211 90t76 246v132q0 152 -78 244.5
t-209 92.5zM279 1221l249 382h100l249 -382h-138l-159 263h-4l-159 -263h-138z" />
    <glyph glyph-name="otilde" unicode="&#xf5;" horiz-adv-x="1155" 
d="M578 1066q195 0 320 -122.5t125 -335.5v-166q0 -214 -125 -336.5t-320 -122.5q-199 0 -322.5 121.5t-123.5 337.5v166q0 207 126 332.5t320 125.5zM579 927q-131 0 -210.5 -93t-79.5 -244v-132q0 -155 77 -245.5t213 -90.5q135 0 211 90t76 246v132q0 152 -78 244.5
t-209 92.5zM702 1214q-39 0 -69.5 16t-50 39t-36.5 45.5t-38 38.5t-45 16q-21 0 -36 -11.5t-22.5 -33t-10.5 -41.5t-5 -49h-110q0 108 46.5 176.5t136.5 68.5q41 0 74 -16t53 -38.5t37 -45.5t35.5 -39t38.5 -16q61 0 72 135h110q0 -63 -17.5 -116.5t-60 -91t-102.5 -37.5z
" />
    <glyph glyph-name="odieresis" unicode="&#xf6;" horiz-adv-x="1155" 
d="M578 1066q195 0 320 -122.5t125 -335.5v-166q0 -214 -125 -336.5t-320 -122.5q-199 0 -322.5 121.5t-123.5 337.5v166q0 207 126 332.5t320 125.5zM579 927q-131 0 -210.5 -93t-79.5 -244v-132q0 -155 77 -245.5t213 -90.5q135 0 211 90t76 246v132q0 152 -78 244.5
t-209 92.5zM754 1225q-42 0 -72.5 29.5t-30.5 71.5q0 44 30.5 73.5t72.5 29.5q47 0 78.5 -29.5t31.5 -73.5q0 -42 -32 -71.5t-78 -29.5zM399 1225q-44 0 -75 29.5t-31 71.5q0 44 31 73.5t75 29.5q45 0 76 -29.5t31 -73.5q0 -42 -31.5 -71.5t-75.5 -29.5z" />
    <glyph glyph-name="divide" unicode="&#xf7;" horiz-adv-x="1128" 
d="M1039 480h-949v129h949v-129zM437 932q0 55 36.5 92t88.5 37q56 0 93 -37t37 -92q0 -53 -37.5 -89t-92.5 -36q-52 0 -88.5 36t-36.5 89zM437 167q0 55 36.5 92t88.5 37q56 0 93 -37t37 -92q0 -53 -37.5 -89t-92.5 -36q-52 0 -88.5 36t-36.5 89z" />
    <glyph glyph-name="oslash" unicode="&#xf8;" horiz-adv-x="1155" 
d="M398 171q72 -52 180 -52q135 0 213 92.5t78 247.5v162q0 93 -36 165zM284 429q0 -97 36 -167l436 616q-73 54 -178 54q-131 0 -212.5 -95t-81.5 -246v-162zM578 -17q-146 0 -258 77l-100 -141l-95 67l108 153q-101 123 -101 303v166q0 207 126 332.5t320 125.5
q142 0 256 -78l100 141l92 -69l-106 -150q103 -126 103 -302v-166q0 -214 -125 -336.5t-320 -122.5z" />
    <glyph glyph-name="ugrave" unicode="&#xf9;" horiz-adv-x="1200" 
d="M1016 1049v-1049h-157v174h-9q-26 -76 -106.5 -133.5t-206.5 -57.5q-168 0 -264.5 80t-96.5 253v733h157v-690q0 -125 65.5 -181t174.5 -56q120 0 203 76.5t83 180.5v670h157zM681 1221h-122l-278 354h161z" />
    <glyph glyph-name="uacute" unicode="&#xfa;" horiz-adv-x="1200" 
d="M1016 1049v-1049h-157v174h-9q-26 -76 -106.5 -133.5t-206.5 -57.5q-168 0 -264.5 80t-96.5 253v733h157v-690q0 -125 65.5 -181t174.5 -56q120 0 203 76.5t83 180.5v670h157zM519 1221l239 354h161l-278 -354h-122z" />
    <glyph glyph-name="ucircumflex" unicode="&#xfb;" horiz-adv-x="1200" 
d="M1016 1049v-1049h-157v174h-9q-26 -76 -106.5 -133.5t-206.5 -57.5q-168 0 -264.5 80t-96.5 253v733h157v-690q0 -125 65.5 -181t174.5 -56q120 0 203 76.5t83 180.5v670h157zM301 1221l249 382h100l249 -382h-138l-159 263h-4l-159 -263h-138z" />
    <glyph glyph-name="udieresis" unicode="&#xfc;" horiz-adv-x="1200" 
d="M1016 1049v-1049h-157v174h-9q-26 -76 -106.5 -133.5t-206.5 -57.5q-168 0 -264.5 80t-96.5 253v733h157v-690q0 -125 65.5 -181t174.5 -56q120 0 203 76.5t83 180.5v670h157zM776 1225q-42 0 -72.5 29.5t-30.5 71.5q0 44 30.5 73.5t72.5 29.5q47 0 78.5 -29.5
t31.5 -73.5q0 -42 -32 -71.5t-78 -29.5zM421 1225q-44 0 -75 29.5t-31 71.5q0 44 31 73.5t75 29.5q45 0 76 -29.5t31 -73.5q0 -42 -31.5 -71.5t-75.5 -29.5z" />
    <glyph glyph-name="yacute" unicode="&#xfd;" horiz-adv-x="1080" 
d="M1000 1049l-379 -1060l-27 -73q-20 -54 -36.5 -90.5t-45.5 -80t-62 -69.5t-83 -43.5t-111 -17.5q-49 0 -101 8v133q27 -5 76 -5q89 0 136 42.5t72 129.5l17 60l-391 1066h175l293 -886h7l293 886h167zM459 1221l239 354h161l-278 -354h-122z" />
    <glyph glyph-name="thorn" unicode="&#xfe;" horiz-adv-x="1197" 
d="M652 -17q-121 0 -195 48t-107 123h-8v-521h-157v1844h149v-594h8q30 78 111.5 130.5t205.5 52.5q184 0 294 -119.5t110 -325.5v-192q0 -207 -112 -326.5t-299 -119.5zM630 122q126 0 201 86.5t75 256.5v117q0 167 -74 256t-207 89t-208 -85t-75 -231v-196
q0 -128 79.5 -210.5t208.5 -82.5z" />
    <glyph glyph-name="ydieresis" unicode="&#xff;" horiz-adv-x="1080" 
d="M1000 1049l-379 -1060l-27 -73q-20 -54 -36.5 -90.5t-45.5 -80t-62 -69.5t-83 -43.5t-111 -17.5q-49 0 -101 8v133q27 -5 76 -5q89 0 136 42.5t72 129.5l17 60l-391 1066h175l293 -886h7l293 886h167zM716 1225q-42 0 -72.5 29.5t-30.5 71.5q0 44 30.5 73.5t72.5 29.5
q47 0 78.5 -29.5t31.5 -73.5q0 -42 -32 -71.5t-78 -29.5zM361 1225q-44 0 -75 29.5t-31 71.5q0 44 31 73.5t75 29.5q45 0 76 -29.5t31 -73.5q0 -42 -31.5 -71.5t-75.5 -29.5z" />
    <glyph glyph-name="Amacron" unicode="&#x100;" horiz-adv-x="1243" 
d="M217 0h-163l490 1365h155l490 -1365h-171l-142 420h-516zM621 1168h-6l-210 -617h426zM912 1515h-580v104h580v-104z" />
    <glyph glyph-name="amacron" unicode="&#x101;" horiz-adv-x="1108" 
d="M465 -17q-153 0 -247.5 89t-94.5 233q0 140 95.5 223.5t271.5 83.5h280v107q0 104 -61 156t-172 52q-182 0 -221 -128h-153q12 132 112.5 199.5t268.5 67.5q82 0 149.5 -19t121.5 -58.5t84 -108t30 -160.5v-720h-152v141h-7q-99 -158 -305 -158zM505 122q113 0 189 68.5
t76 170.5v120h-277q-106 0 -157 -47t-51 -126q0 -91 63.5 -138.5t156.5 -47.5zM848 1252h-588v111h588v-111z" />
    <glyph glyph-name="Abreve" unicode="&#x102;" horiz-adv-x="1243" 
d="M217 0h-163l490 1365h155l490 -1365h-171l-142 420h-516zM621 1168h-6l-210 -617h426zM302 1746h117q0 -74 52 -119t151 -45t151 45t52 119h117q0 -110 -82.5 -184.5t-237.5 -74.5t-237.5 74.5t-82.5 184.5z" />
    <glyph glyph-name="abreve" unicode="&#x103;" horiz-adv-x="1108" 
d="M465 -17q-153 0 -247.5 89t-94.5 233q0 140 95.5 223.5t271.5 83.5h280v107q0 104 -61 156t-172 52q-182 0 -221 -128h-153q12 132 112.5 199.5t268.5 67.5q82 0 149.5 -19t121.5 -58.5t84 -108t30 -160.5v-720h-152v141h-7q-99 -158 -305 -158zM505 122q113 0 189 68.5
t76 170.5v120h-277q-106 0 -157 -47t-51 -126q0 -91 63.5 -138.5t156.5 -47.5zM270 1484h114q0 -69 43 -116.5t127 -47.5t127 47.5t43 116.5h114q0 -46 -16.5 -91t-48.5 -85.5t-89 -65.5t-130 -25t-130 25t-89.5 65.5t-48.5 85.5t-16 91z" />
    <glyph glyph-name="Aogonek" unicode="&#x104;" horiz-adv-x="1243" 
d="M217 0h-163l490 1365h155l486 -1354q-45 -11 -85.5 -31t-73 -59t-32.5 -87q0 -49 32 -74.5t83 -25.5q43 0 81 9v-109q-38 -19 -115 -19q-98 0 -164.5 49t-66.5 145q0 135 159 235l-127 376h-516zM619 1167l-1 2l-213 -617h429z" />
    <glyph glyph-name="aogonek" unicode="&#x105;" horiz-adv-x="1108" 
d="M943 -364q-48 -21 -121 -21q-88 0 -150 47.5t-62 140.5q0 44 13.5 80.5t41 66t51 49t61.5 44.5v98h-7q-98 -158 -306 -158q-152 0 -246.5 89t-94.5 232q0 141 95.5 224.5t270.5 83.5h281v107q0 105 -61 155.5t-174 50.5q-180 0 -219 -126h-153q12 132 113.5 199.5
t267.5 67.5q82 0 149 -18.5t121.5 -58t84.5 -108t30 -160.5v-721q-40 -14 -76.5 -34t-70 -57t-33.5 -78q0 -44 31 -67.5t80 -23.5q47 0 83 9v-113zM505 119q113 0 189 70t76 172v120h-276q-107 0 -158 -47t-51 -126q0 -91 63.5 -140t156.5 -49z" />
    <glyph glyph-name="Cacute" unicode="&#x106;" horiz-adv-x="1297" 
d="M299 778v-200q0 -231 100 -346.5t276 -115.5q158 0 246 83t88 204h158q0 -58 -18 -116.5t-57.5 -115.5t-96 -101.5t-141.5 -71.5t-186 -27q-246 0 -387 155.5t-141 449.5v205q0 289 143.5 451t386.5 162q97 0 179.5 -26.5t140 -71.5t98 -104t60 -124t19.5 -131h-158
q0 122 -91.5 217t-247.5 95q-169 0 -270 -121t-101 -350zM588 1514l239 354h161l-278 -354h-122z" />
    <glyph glyph-name="cacute" unicode="&#x107;" horiz-adv-x="1076" 
d="M132 434v184q0 204 116 326t314 122q93 0 169.5 -27t123.5 -72t73 -98.5t28 -109.5h-157q-5 26 -18 51t-38 52.5t-71.5 44t-107.5 16.5q-134 0 -204.5 -83t-70.5 -229v-179q0 -140 73.5 -223t201.5 -83q204 0 243 151h157q-3 -55 -28 -106t-72 -93.5t-125 -68.5t-177 -26
q-198 0 -314 122t-116 329zM457 1221l239 354h161l-278 -354h-122z" />
    <glyph glyph-name="Ccircumflex" unicode="&#x108;" horiz-adv-x="1297" 
d="M299 778v-200q0 -231 100 -346.5t276 -115.5q158 0 246 83t88 204h158q0 -58 -18 -116.5t-57.5 -115.5t-96 -101.5t-141.5 -71.5t-186 -27q-246 0 -387 155.5t-141 449.5v205q0 289 143.5 451t386.5 162q97 0 179.5 -26.5t140 -71.5t98 -104t60 -124t19.5 -131h-158
q0 122 -91.5 217t-247.5 95q-169 0 -270 -121t-101 -350zM722 1747l271 -244h-163l-158 144h-5l-167 -144h-159l282 244h99z" />
    <glyph glyph-name="ccircumflex" unicode="&#x109;" horiz-adv-x="1076" 
d="M132 434v184q0 204 116 326t314 122q93 0 169.5 -27t123.5 -72t73 -98.5t28 -109.5h-157q-5 26 -18 51t-38 52.5t-71.5 44t-107.5 16.5q-134 0 -204.5 -83t-70.5 -229v-179q0 -140 73.5 -223t201.5 -83q204 0 243 151h157q-3 -55 -28 -106t-72 -93.5t-125 -68.5t-177 -26
q-198 0 -314 122t-116 329zM239 1221l249 382h100l249 -382h-138l-159 263h-4l-159 -263h-138z" />
    <glyph glyph-name="Cdotaccent" unicode="&#x10a;" horiz-adv-x="1297" 
d="M299 778v-200q0 -231 100 -346.5t276 -115.5q158 0 246 83t88 204h158q0 -58 -18 -116.5t-57.5 -115.5t-96 -101.5t-141.5 -71.5t-186 -27q-246 0 -387 155.5t-141 449.5v205q0 289 143.5 451t386.5 162q97 0 179.5 -26.5t140 -71.5t98 -104t60 -124t19.5 -131h-158
q0 122 -91.5 217t-247.5 95q-169 0 -270 -121t-101 -350zM568 1588q0 44 29 73.5t71 29.5q44 0 74 -29.5t30 -73.5q0 -43 -30 -71.5t-74 -28.5q-42 0 -71 29t-29 71z" />
    <glyph glyph-name="cdotaccent" unicode="&#x10b;" horiz-adv-x="1076" 
d="M132 434v184q0 204 116 326t314 122q93 0 169.5 -27t123.5 -72t73 -98.5t28 -109.5h-157q-5 26 -18 51t-38 52.5t-71.5 44t-107.5 16.5q-134 0 -204.5 -83t-70.5 -229v-179q0 -140 73.5 -223t201.5 -83q204 0 243 151h157q-3 -55 -28 -106t-72 -93.5t-125 -68.5t-177 -26
q-198 0 -314 122t-116 329zM436 1342q0 44 29 73.5t71 29.5q44 0 74 -29.5t30 -73.5q0 -43 -30 -71.5t-74 -28.5q-42 0 -71 29t-29 71z" />
    <glyph glyph-name="Ccaron" unicode="&#x10c;" horiz-adv-x="1297" 
d="M299 778v-200q0 -231 100 -346.5t276 -115.5q158 0 246 83t88 204h158q0 -58 -18 -116.5t-57.5 -115.5t-96 -101.5t-141.5 -71.5t-186 -27q-246 0 -387 155.5t-141 449.5v205q0 289 143.5 451t386.5 162q97 0 179.5 -26.5t140 -71.5t98 -104t60 -124t19.5 -131h-158
q0 122 -91.5 217t-247.5 95q-169 0 -270 -121t-101 -350zM337 1711h170l161 -124h5l148 124h174l-236 -202h-171z" />
    <glyph glyph-name="ccaron" unicode="&#x10d;" horiz-adv-x="1076" 
d="M132 434v184q0 204 116 326t314 122q93 0 169.5 -27t123.5 -72t73 -98.5t28 -109.5h-157q-5 26 -18 51t-38 52.5t-71.5 44t-107.5 16.5q-134 0 -204.5 -83t-70.5 -229v-179q0 -140 73.5 -223t201.5 -83q204 0 243 151h157q-3 -55 -28 -106t-72 -93.5t-125 -68.5t-177 -26
q-198 0 -314 122t-116 329zM240 1599h138l159 -273h3l152 273h137l-239 -382h-101z" />
    <glyph glyph-name="Dcaron" unicode="&#x10e;" horiz-adv-x="1339" 
d="M194 1365h428q161 0 278 -50t186 -143t101.5 -214.5t32.5 -275.5q0 -120 -19 -220t-63 -187t-112 -147t-170.5 -94t-233.5 -34h-428v1365zM353 1221v-1076h263q439 0 439 537q0 539 -439 539h-263zM287 1711h170l161 -124h5l148 124h174l-236 -202h-171z" />
    <glyph glyph-name="dcaron" unicode="&#x10f;" horiz-adv-x="1359" 
d="M1211 1436h147l-44 -488h-103v488zM543 1067q121 0 198.5 -49.5t106.5 -121.5h8v581h157v-1477h-149v167h-8q-20 -72 -105 -127.5t-213 -55.5q-183 0 -294.5 117.5t-111.5 314.5v218q0 194 112 313.5t299 119.5zM564 928q-128 0 -201.5 -88t-73.5 -245v-137
q0 -159 75 -247t206 -88t208.5 85.5t77.5 230.5v196q0 127 -82 210t-210 83z" />
    <glyph glyph-name="Dcroat" unicode="&#x110;" horiz-adv-x="1415" 
d="M698 0h-428v627h-160v144h160v594h428q161 0 278 -50t186 -143t101.5 -214.5t32.5 -275.5q0 -120 -19 -220t-63 -187t-112 -147t-170.5 -94t-233.5 -34zM429 145h263q439 0 439 537q0 538 -439 538h-263v-449h317v-144h-317v-482z" />
    <glyph glyph-name="dcroat" unicode="&#x111;" horiz-adv-x="1200" 
d="M565 927q-128 0 -201.5 -88t-73.5 -245v-137q0 -159 75 -247t206 -88t208.5 85.5t77.5 230.5v196q0 127 -82 210t-210 83zM857 167q-20 -72 -105 -127.5t-213 -55.5q-183 0 -294.5 117.5t-111.5 314.5v218q0 194 112 313.5t299 119.5q121 0 198.5 -49.5t106.5 -121.5h8
v293h-268v126h268v162h157v-162h133v-126h-133v-1189h-149v167h-8z" />
    <glyph glyph-name="Emacron" unicode="&#x112;" horiz-adv-x="1147" 
d="M1003 145v-145h-809v1365h809v-145h-650v-450h614v-144h-614v-481h650zM886 1515h-580v104h580v-104z" />
    <glyph glyph-name="emacron" unicode="&#x113;" horiz-adv-x="1112" 
d="M572 -17q-207 0 -323.5 123.5t-116.5 332.5v170q0 206 119 331.5t308 125.5t308 -125.5t119 -331.5v-128h-696v-54q0 -133 73.5 -219t207.5 -86q91 0 154 37t79 89h167q-7 -43 -34.5 -87t-74.5 -85t-123 -67t-167 -26zM290 603h538v19q0 138 -73.5 221.5t-195.5 83.5
t-195.5 -83.5t-73.5 -221.5v-19zM850 1252h-588v111h588v-111z" />
    <glyph glyph-name="Ebreve" unicode="&#x114;" horiz-adv-x="1147" 
d="M1003 145v-145h-809v1365h809v-145h-650v-450h614v-144h-614v-481h650zM276 1746h117q0 -74 52 -119t151 -45t151 45t52 119h117q0 -110 -82.5 -184.5t-237.5 -74.5t-237.5 74.5t-82.5 184.5z" />
    <glyph glyph-name="ebreve" unicode="&#x115;" horiz-adv-x="1112" 
d="M572 -17q-207 0 -323.5 123.5t-116.5 332.5v170q0 206 119 331.5t308 125.5t308 -125.5t119 -331.5v-128h-696v-54q0 -133 73.5 -219t207.5 -86q91 0 154 37t79 89h167q-7 -43 -34.5 -87t-74.5 -85t-123 -67t-167 -26zM290 603h538v19q0 138 -73.5 221.5t-195.5 83.5
t-195.5 -83.5t-73.5 -221.5v-19zM272 1484h114q0 -69 43 -116.5t127 -47.5t127 47.5t43 116.5h114q0 -46 -16.5 -91t-48.5 -85.5t-89 -65.5t-130 -25t-130 25t-89.5 65.5t-48.5 85.5t-16 91z" />
    <glyph glyph-name="Edotaccent" unicode="&#x116;" horiz-adv-x="1147" 
d="M1003 145v-145h-809v1365h809v-145h-650v-450h614v-144h-614v-481h650zM494 1588q0 44 29 73.5t71 29.5q44 0 74 -29.5t30 -73.5q0 -43 -30 -71.5t-74 -28.5q-42 0 -71 29t-29 71z" />
    <glyph glyph-name="edotaccent" unicode="&#x117;" horiz-adv-x="1112" 
d="M572 -17q-207 0 -323.5 123.5t-116.5 332.5v170q0 206 119 331.5t308 125.5t308 -125.5t119 -331.5v-128h-696v-54q0 -133 73.5 -219t207.5 -86q91 0 154 37t79 89h167q-7 -43 -34.5 -87t-74.5 -85t-123 -67t-167 -26zM290 603h538v19q0 138 -73.5 221.5t-195.5 83.5
t-195.5 -83.5t-73.5 -221.5v-19zM454 1342q0 44 29 73.5t71 29.5q44 0 74 -29.5t30 -73.5q0 -43 -30 -71.5t-74 -28.5q-42 0 -71 29t-29 71z" />
    <glyph glyph-name="Eogonek" unicode="&#x118;" horiz-adv-x="1147" 
d="M1004 -367q-50 -18 -112 -18q-96 0 -158.5 48t-62.5 144q0 61 30 111.5t75 81.5h-582v1365h809v-145h-651v-450h615v-144h-614v-481h650v-130q-76 -18 -135 -63t-60 -117q-1 -49 30.5 -75t87.5 -26q44 0 78 9v-110z" />
    <glyph glyph-name="eogonek" unicode="&#x119;" horiz-adv-x="1112" 
d="M909 -250v-117q-36 -18 -114 -18q-87 0 -151 50.5t-64 141.5q0 121 106 205l-4 8q-54 -37 -135 -37q-183 0 -299 125.5t-116 329.5v170q0 207 119 333t308 126t308 -126t119 -333v-127h-696v-53q0 -134 73.5 -219.5t209.5 -85.5q90 0 152 36.5t79 88.5h167
q-13 -41 -41 -83t-48 -64.5t-60 -63.5q-53 -56 -79 -98t-26 -92t34 -78.5t83 -28.5q38 0 75 10zM290 603h538v20q0 137 -74 221t-195 84q-122 0 -195.5 -83.5t-73.5 -221.5v-20z" />
    <glyph glyph-name="Ecaron" unicode="&#x11a;" horiz-adv-x="1147" 
d="M1003 145v-145h-809v1365h809v-145h-650v-450h614v-144h-614v-481h650zM263 1711h170l161 -124h5l148 124h174l-236 -202h-171z" />
    <glyph glyph-name="ecaron" unicode="&#x11b;" horiz-adv-x="1112" 
d="M572 -17q-207 0 -323.5 123.5t-116.5 332.5v170q0 206 119 331.5t308 125.5t308 -125.5t119 -331.5v-128h-696v-54q0 -133 73.5 -219t207.5 -86q91 0 154 37t79 89h167q-7 -43 -34.5 -87t-74.5 -85t-123 -67t-167 -26zM290 603h538v19q0 138 -73.5 221.5t-195.5 83.5
t-195.5 -83.5t-73.5 -221.5v-19zM258 1599h138l159 -273h3l152 273h137l-239 -382h-101z" />
    <glyph glyph-name="Gcircumflex" unicode="&#x11c;" horiz-adv-x="1322" 
d="M1178 953h-158q-19 147 -114 221.5t-229 74.5q-79 0 -145.5 -27t-119.5 -81.5t-83 -146.5t-30 -213v-190q0 -225 96 -350t277 -125q154 0 254 86.5t100 221.5v140h-364v144h520v-284q0 -55 -15.5 -113.5t-53 -120.5t-93.5 -109.5t-145.5 -78.5t-199.5 -31
q-261 0 -398 164t-137 456v190q0 289 147.5 451t393.5 162q222 0 352.5 -127t144.5 -314zM733 1747l271 -244h-163l-158 144h-5l-167 -144h-159l282 244h99z" />
    <glyph glyph-name="gcircumflex" unicode="&#x11d;" horiz-adv-x="1161" 
d="M550 -255q143 0 216.5 73t73.5 204v161h-9q-33 -71 -112 -117.5t-183 -46.5q-117 0 -211.5 51.5t-151 151t-56.5 231.5v177q0 198 119.5 317t298.5 119q111 0 194 -52.5t112 -121.5h7v157h149v-1024q0 -209 -120 -314t-334 -105q-187 0 -288.5 79t-114.5 203h164
q11 -61 76.5 -102t169.5 -41zM566 927q-134 0 -213 -92t-79 -242v-103q0 -147 82.5 -239.5t211.5 -92.5q126 0 199 88t73 209v169q0 123 -75 213t-199 90zM282 1221l249 382h100l249 -382h-138l-159 263h-4l-159 -263h-138z" />
    <glyph glyph-name="Gbreve" unicode="&#x11e;" horiz-adv-x="1322" 
d="M1178 953h-158q-19 147 -114 221.5t-229 74.5q-79 0 -145.5 -27t-119.5 -81.5t-83 -146.5t-30 -213v-190q0 -225 96 -350t277 -125q154 0 254 86.5t100 221.5v140h-364v144h520v-284q0 -55 -15.5 -113.5t-53 -120.5t-93.5 -109.5t-145.5 -78.5t-199.5 -31
q-261 0 -398 164t-137 456v190q0 289 147.5 451t393.5 162q222 0 352.5 -127t144.5 -314zM361 1746h117q0 -74 52 -119t151 -45t151 45t52 119h117q0 -110 -82.5 -184.5t-237.5 -74.5t-237.5 74.5t-82.5 184.5z" />
    <glyph glyph-name="gbreve" unicode="&#x11f;" horiz-adv-x="1161" 
d="M550 -255q143 0 216.5 73t73.5 204v161h-9q-33 -71 -112 -117.5t-183 -46.5q-117 0 -211.5 51.5t-151 151t-56.5 231.5v177q0 198 119.5 317t298.5 119q111 0 194 -52.5t112 -121.5h7v157h149v-1024q0 -209 -120 -314t-334 -105q-187 0 -288.5 79t-114.5 203h164
q11 -61 76.5 -102t169.5 -41zM566 927q-134 0 -213 -92t-79 -242v-103q0 -147 82.5 -239.5t211.5 -92.5q126 0 199 88t73 209v169q0 123 -75 213t-199 90zM297 1484h114q0 -69 43 -116.5t127 -47.5t127 47.5t43 116.5h114q0 -46 -16.5 -91t-48.5 -85.5t-89 -65.5t-130 -25
t-130 25t-89.5 65.5t-48.5 85.5t-16 91z" />
    <glyph glyph-name="Gdotaccent" unicode="&#x120;" horiz-adv-x="1322" 
d="M1178 953h-158q-19 147 -114 221.5t-229 74.5q-79 0 -145.5 -27t-119.5 -81.5t-83 -146.5t-30 -213v-190q0 -225 96 -350t277 -125q154 0 254 86.5t100 221.5v140h-364v144h520v-284q0 -55 -15.5 -113.5t-53 -120.5t-93.5 -109.5t-145.5 -78.5t-199.5 -31
q-261 0 -398 164t-137 456v190q0 289 147.5 451t393.5 162q222 0 352.5 -127t144.5 -314zM579 1588q0 44 29 73.5t71 29.5q44 0 74 -29.5t30 -73.5q0 -43 -30 -71.5t-74 -28.5q-42 0 -71 29t-29 71z" />
    <glyph glyph-name="gdotaccent" unicode="&#x121;" horiz-adv-x="1161" 
d="M550 -255q143 0 216.5 73t73.5 204v161h-9q-33 -71 -112 -117.5t-183 -46.5q-117 0 -211.5 51.5t-151 151t-56.5 231.5v177q0 198 119.5 317t298.5 119q111 0 194 -52.5t112 -121.5h7v157h149v-1024q0 -209 -120 -314t-334 -105q-187 0 -288.5 79t-114.5 203h164
q11 -61 76.5 -102t169.5 -41zM566 927q-134 0 -213 -92t-79 -242v-103q0 -147 82.5 -239.5t211.5 -92.5q126 0 199 88t73 209v169q0 123 -75 213t-199 90zM479 1342q0 44 29 73.5t71 29.5q44 0 74 -29.5t30 -73.5q0 -43 -30 -71.5t-74 -28.5q-42 0 -71 29t-29 71z" />
    <glyph glyph-name="Gcommaaccent" unicode="&#x122;" horiz-adv-x="1322" 
d="M1178 953h-158q-19 147 -114 221.5t-229 74.5q-79 0 -145.5 -27t-119.5 -81.5t-83 -146.5t-30 -213v-190q0 -225 96 -350t277 -125q154 0 254 86.5t100 221.5v140h-364v144h520v-284q0 -55 -15.5 -113.5t-53 -120.5t-93.5 -109.5t-145.5 -78.5t-199.5 -31
q-261 0 -398 164t-137 456v190q0 289 147.5 451t393.5 162q222 0 352.5 -127t144.5 -314zM662 -467h-120l81 311h145z" />
    <glyph glyph-name="gcommaaccent" unicode="&#x123;" horiz-adv-x="1161" 
d="M568 1586h128l-85 -335h-157zM550 -255q143 0 216.5 73t73.5 204v161h-9q-33 -71 -112 -117.5t-183 -46.5q-117 0 -211.5 51.5t-151 151t-56.5 231.5v177q0 198 119.5 317t298.5 119q111 0 194 -52.5t112 -121.5h7v157h149v-1024q0 -209 -120 -314t-334 -105
q-187 0 -288.5 79t-114.5 203h164q11 -61 76.5 -102t169.5 -41zM566 927q-134 0 -213 -92t-79 -242v-103q0 -147 82.5 -239.5t211.5 -92.5q126 0 199 88t73 209v169q0 123 -75 213t-199 90z" />
    <glyph glyph-name="Hcircumflex" unicode="&#x124;" horiz-adv-x="1412" 
d="M1218 0h-159v636h-706v-636h-159v1365h159v-585h706v585h159v-1365zM758 1747l271 -244h-163l-158 144h-5l-167 -144h-159l282 244h99z" />
    <glyph glyph-name="hcircumflex" unicode="&#x125;" horiz-adv-x="1213" 
d="M187 0v1477h157v-620h8q9 32 30 64t57.5 66.5t99.5 56.5t141 22q159 0 256.5 -89.5t97.5 -258.5v-718h-157v666q0 125 -65 193t-179 68q-139 0 -214 -96.5t-75 -245.5v-585h-157zM314 1859l271 -244h-163l-158 144h-5l-167 -144h-159l282 244h99z" />
    <glyph glyph-name="Hbar" unicode="&#x126;" horiz-adv-x="1412" 
d="M353 750h706v252h-706v-252zM353 606v-606h-159v1002h-113v126h113v237h159v-237h706v237h159v-237h114v-126h-114v-1002h-159v606h-706z" />
    <glyph glyph-name="hbar" unicode="&#x127;" horiz-adv-x="1213" 
d="M344 585v-585h-157v1189h-123v126h123v162h157v-162h278v-126h-278v-332h8q9 32 30 64t57.5 66.5t99.5 56.5t141 22q159 0 256.5 -89.5t97.5 -258.5v-718h-157v666q0 125 -65 193t-179 68q-139 0 -214 -96.5t-75 -245.5z" />
    <glyph glyph-name="Itilde" unicode="&#x128;" horiz-adv-x="547" 
d="M353 0h-159v1365h159v-1365zM393 1463q-44 0 -81.5 19t-59 42t-48.5 42t-51 19q-20 0 -34.5 -11t-22 -29t-11 -34.5t-4.5 -33.5h-106q0 86 45.5 147t127.5 61q43 0 81 -19t61 -42t50.5 -42t51.5 -19q36 0 56 32.5t22 73.5h106q0 -80 -48.5 -143t-134.5 -63z" />
    <glyph glyph-name="itilde" unicode="&#x129;" horiz-adv-x="579" 
d="M211 0v1049h157v-1049h-157zM413 1214q-39 0 -69.5 16t-50 39t-36.5 45.5t-38 38.5t-45 16q-21 0 -36 -11.5t-22.5 -33t-10.5 -41.5t-5 -49h-110q0 108 46.5 176.5t136.5 68.5q41 0 74 -16t53 -38.5t37 -45.5t35.5 -39t38.5 -16q61 0 72 135h110q0 -63 -17.5 -116.5
t-60 -91t-102.5 -37.5z" />
    <glyph glyph-name="Imacron" unicode="&#x12a;" horiz-adv-x="547" 
d="M353 0h-159v1365h159v-1365zM564 1515h-580v104h580v-104z" />
    <glyph glyph-name="imacron" unicode="&#x12b;" horiz-adv-x="579" 
d="M211 0v1049h157v-1049h-157zM583 1252h-588v111h588v-111z" />
    <glyph glyph-name="Ibreve" unicode="&#x12c;" horiz-adv-x="547" 
d="M353 0h-159v1365h159v-1365zM-46 1746h117q0 -74 52 -119t151 -45t151 45t52 119h117q0 -110 -82.5 -184.5t-237.5 -74.5t-237.5 74.5t-82.5 184.5z" />
    <glyph glyph-name="ibreve" unicode="&#x12d;" horiz-adv-x="579" 
d="M211 0v1049h157v-1049h-157zM6 1484h114q0 -69 43 -116.5t127 -47.5t127 47.5t43 116.5h114q0 -46 -16.5 -91t-48.5 -85.5t-89 -65.5t-130 -25t-130 25t-89.5 65.5t-48.5 85.5t-16 91z" />
    <glyph glyph-name="Iogonek" unicode="&#x12e;" horiz-adv-x="547" 
d="M378 -366q-38 -19 -114 -19q-100 0 -161 49t-61 144q0 152 152 227v1330h159v-1365q-32 -10 -60 -23t-54.5 -32.5t-41.5 -47.5t-15 -62q0 -49 31.5 -75t84.5 -26q44 0 80 9v-109z" />
    <glyph glyph-name="iogonek" unicode="&#x12f;" horiz-adv-x="579" 
d="M393 -257v-109q-38 -19 -114 -19q-100 0 -161 49t-61 144q0 151 154 227v1014h157v-1049q-32 -10 -60 -23t-54.5 -32.5t-41.5 -47.5t-15 -62q0 -49 31.5 -75t84.5 -26q44 0 80 9zM171 1376q0 51 34 85t83 34q52 0 86 -33.5t34 -85.5q0 -50 -34 -83.5t-86 -33.5
q-49 0 -83 33.5t-34 83.5z" />
    <glyph glyph-name="Idotaccent" unicode="&#x130;" horiz-adv-x="547" 
d="M353 0h-159v1365h159v-1365zM172 1588q0 44 29 73.5t71 29.5q44 0 74 -29.5t30 -73.5q0 -43 -30 -71.5t-74 -28.5q-42 0 -71 29t-29 71z" />
    <glyph glyph-name="dotlessi" unicode="&#x131;" horiz-adv-x="579" 
d="M211 0v1049h157v-1049h-157z" />
    <glyph glyph-name="Jcircumflex" unicode="&#x134;" horiz-adv-x="1003" 
d="M51 301h156q4 -85 65.5 -135t146.5 -50q108 0 171.5 62t63.5 194v993h159v-975q0 -207 -107 -313t-287 -106q-165 0 -266.5 91t-101.5 239zM784 1747l271 -244h-163l-158 144h-5l-167 -144h-159l282 244h99z" />
    <glyph glyph-name="jcircumflex" unicode="&#x135;" horiz-adv-x="579" 
d="M368 1049v-1083q0 -342 -274 -342q-64 0 -98 9v128q27 -5 67 -5q81 0 114.5 50t33.5 162v1081h157zM-9 1221l249 382h100l249 -382h-138l-159 263h-4l-159 -263h-138z" />
    <glyph glyph-name="Kcommaaccent" unicode="&#x136;" horiz-adv-x="1227" 
d="M1157 1365l-512 -580l540 -785h-205l-454 674l-173 -187v-487h-159v1365h159v-668h7l606 668h191zM595 -467h-120l81 311h145z" />
    <glyph glyph-name="kcommaaccent" unicode="&#x137;" horiz-adv-x="1050" 
d="M344 392v-392h-157v1477h157v-909h6l444 481h184l-419 -456l446 -593h-189l-371 493zM534 -467h-120l81 311h145z" />
    <glyph glyph-name="Lacute" unicode="&#x139;" horiz-adv-x="1038" 
d="M990 145v-145h-796v1365h159v-1220h637zM191 1514l239 354h161l-278 -354h-122z" />
    <glyph glyph-name="lacute" unicode="&#x13a;" horiz-adv-x="537" 
d="M190 0v1477h157v-1477h-157zM187 1626l239 354h161l-278 -354h-122z" />
    <glyph glyph-name="Lcommaaccent" unicode="&#x13b;" horiz-adv-x="1038" 
d="M990 145v-145h-796v1365h159v-1220h637zM509 -467h-120l81 311h145z" />
    <glyph glyph-name="lcommaaccent" unicode="&#x13c;" horiz-adv-x="537" 
d="M190 0v1477h157v-1477h-157zM250 -467h-120l81 311h145z" />
    <glyph glyph-name="Lcaron" unicode="&#x13d;" horiz-adv-x="1038" 
d="M589 1437h157l-50 -488h-107v488zM990 145v-145h-796v1365h159v-1220h637z" />
    <glyph glyph-name="lcaron" unicode="&#x13e;" horiz-adv-x="676" 
d="M529 1436h147l-44 -488h-103v488zM190 0v1477h157v-1477h-157z" />
    <glyph glyph-name="Lslash" unicode="&#x141;" horiz-adv-x="1047" 
d="M999 0h-796v543l-131 -77v159l131 77v663h159v-571l387 228v-162l-387 -226v-489h637v-145z" />
    <glyph glyph-name="lslash" unicode="&#x142;" horiz-adv-x="598" 
d="M378 0h-157v627l-157 -110v160l157 110v690h157v-580l156 110v-160l-156 -110v-737z" />
    <glyph glyph-name="Nacute" unicode="&#x143;" horiz-adv-x="1412" 
d="M353 0h-159v1365h159l698 -1092h8v1092h159v-1365h-159l-699 1092h-7v-1092zM624 1514l239 354h161l-278 -354h-122z" />
    <glyph glyph-name="nacute" unicode="&#x144;" horiz-adv-x="1206" 
d="M184 0v1049h157v-192h8q68 209 320 209q164 0 261 -88t97 -258v-720h-157v668q0 126 -62 192.5t-176 66.5q-142 0 -216.5 -96t-74.5 -246v-585h-157zM522 1221l239 354h161l-278 -354h-122z" />
    <glyph glyph-name="Ncommaaccent" unicode="&#x145;" horiz-adv-x="1412" 
d="M353 0h-159v1365h159l698 -1092h8v1092h159v-1365h-159l-699 1092h-7v-1092zM687 -467h-120l81 311h145z" />
    <glyph glyph-name="ncommaaccent" unicode="&#x146;" horiz-adv-x="1206" 
d="M184 0v1049h157v-192h8q68 209 320 209q164 0 261 -88t97 -258v-720h-157v668q0 126 -62 192.5t-176 66.5q-142 0 -216.5 -96t-74.5 -246v-585h-157zM584 -467h-120l81 311h145z" />
    <glyph glyph-name="Ncaron" unicode="&#x147;" horiz-adv-x="1412" 
d="M353 0h-159v1365h159l698 -1092h8v1092h159v-1365h-159l-699 1092h-7v-1092zM373 1711h170l161 -124h5l148 124h174l-236 -202h-171z" />
    <glyph glyph-name="ncaron" unicode="&#x148;" horiz-adv-x="1206" 
d="M184 0v1049h157v-192h8q68 209 320 209q164 0 261 -88t97 -258v-720h-157v668q0 126 -62 192.5t-176 66.5q-142 0 -216.5 -96t-74.5 -246v-585h-157zM305 1599h138l159 -273h3l152 273h137l-239 -382h-101z" />
    <glyph glyph-name="Omacron" unicode="&#x14c;" horiz-adv-x="1360" 
d="M299 778v-205q0 -225 105 -341t275 -116q171 0 276.5 116t105.5 341v205q0 227 -106.5 349t-275.5 122q-168 0 -274 -122t-106 -349zM140 573v205q0 288 147 452t394 164t393 -164t146 -452v-205q0 -286 -147 -444t-396 -158q-248 0 -392.5 158t-144.5 444zM970 1515
h-580v104h580v-104z" />
    <glyph glyph-name="omacron" unicode="&#x14d;" horiz-adv-x="1155" 
d="M578 1066q195 0 320 -122.5t125 -335.5v-166q0 -214 -125 -336.5t-320 -122.5q-199 0 -322.5 121.5t-123.5 337.5v166q0 207 126 332.5t320 125.5zM579 927q-131 0 -210.5 -93t-79.5 -244v-132q0 -155 77 -245.5t213 -90.5q135 0 211 90t76 246v132q0 152 -78 244.5
t-209 92.5zM872 1252h-588v111h588v-111z" />
    <glyph glyph-name="Obreve" unicode="&#x14e;" horiz-adv-x="1360" 
d="M299 778v-205q0 -225 105 -341t275 -116q171 0 276.5 116t105.5 341v205q0 227 -106.5 349t-275.5 122q-168 0 -274 -122t-106 -349zM140 573v205q0 288 147 452t394 164t393 -164t146 -452v-205q0 -286 -147 -444t-396 -158q-248 0 -392.5 158t-144.5 444zM360 1746h117
q0 -74 52 -119t151 -45t151 45t52 119h117q0 -110 -82.5 -184.5t-237.5 -74.5t-237.5 74.5t-82.5 184.5z" />
    <glyph glyph-name="obreve" unicode="&#x14f;" horiz-adv-x="1155" 
d="M578 1066q195 0 320 -122.5t125 -335.5v-166q0 -214 -125 -336.5t-320 -122.5q-199 0 -322.5 121.5t-123.5 337.5v166q0 207 126 332.5t320 125.5zM579 927q-131 0 -210.5 -93t-79.5 -244v-132q0 -155 77 -245.5t213 -90.5q135 0 211 90t76 246v132q0 152 -78 244.5
t-209 92.5zM294 1484h114q0 -69 43 -116.5t127 -47.5t127 47.5t43 116.5h114q0 -46 -16.5 -91t-48.5 -85.5t-89 -65.5t-130 -25t-130 25t-89.5 65.5t-48.5 85.5t-16 91z" />
    <glyph glyph-name="Ohungarumlaut" unicode="&#x150;" horiz-adv-x="1360" 
d="M299 778v-205q0 -225 105 -341t275 -116q171 0 276.5 116t105.5 341v205q0 227 -106.5 349t-275.5 122q-168 0 -274 -122t-106 -349zM140 573v205q0 288 147 452t394 164t393 -164t146 -452v-205q0 -286 -147 -444t-396 -158q-248 0 -392.5 158t-144.5 444zM440 1514
l239 354h161l-278 -354h-122zM755 1514l239 354h161l-278 -354h-122z" />
    <glyph glyph-name="ohungarumlaut" unicode="&#x151;" horiz-adv-x="1155" 
d="M578 1066q195 0 320 -122.5t125 -335.5v-166q0 -214 -125 -336.5t-320 -122.5q-199 0 -322.5 121.5t-123.5 337.5v166q0 207 126 332.5t320 125.5zM579 927q-131 0 -210.5 -93t-79.5 -244v-132q0 -155 77 -245.5t213 -90.5q135 0 211 90t76 246v132q0 152 -78 244.5
t-209 92.5zM463 1221h-124l243 366h168zM777 1221h-123l243 366h168z" />
    <glyph glyph-name="OE" unicode="&#x152;" horiz-adv-x="2007" 
d="M299 778v-205q0 -225 105 -341t275 -116q83 0 151.5 25.5t121.5 78t82.5 139t29.5 200.5v241q0 224 -106.5 336.5t-278.5 112.5q-168 0 -274 -122t-106 -349zM677 -29q-248 0 -392.5 158t-144.5 444v205q0 288 147 452t394 164q118 0 217.5 -42t152.5 -125h13v138h799
v-145h-640v-450h604v-144h-604v-481h640v-145h-799v144h-12q-56 -83 -157 -128t-218 -45z" />
    <glyph glyph-name="oe" unicode="&#x153;" horiz-adv-x="1848" 
d="M1305 -17q-119 0 -214 50t-143 135h-12q-52 -85 -148 -135t-210 -50q-199 0 -322.5 121.5t-123.5 337.5v166q0 207 126 332.5t320 125.5q249 0 359 -183h11q51 84 143 133.5t201 49.5q189 0 308 -125.5t119 -331.5v-128h-696v-53q0 -133 73.5 -219t207.5 -86
q91 0 154 36.5t79 88.5h167q-7 -43 -34.5 -87t-74.5 -85t-123 -67t-167 -26zM578 928q-131 0 -210.5 -93t-79.5 -244v-132q0 -155 77 -245.5t213 -90.5q135 0 211 90t76 246v132q0 152 -78 244.5t-209 92.5zM1023 603h538v19q0 138 -74 222t-195 84t-195 -84t-74 -222v-19z
" />
    <glyph glyph-name="Racute" unicode="&#x154;" horiz-adv-x="1259" 
d="M679 1365q109 0 193.5 -33t135.5 -90t77 -128t26 -152q0 -80 -22 -146.5t-60 -111.5t-80.5 -74.5t-92.5 -47.5l279 -582h-183l-254 549h-345v-549h-159v1365h485zM353 694h298q146 0 221 66.5t75 190.5q0 131 -76.5 200t-211.5 69h-306v-526zM508 1514l239 354h161
l-278 -354h-122z" />
    <glyph glyph-name="racute" unicode="&#x155;" horiz-adv-x="787" 
d="M202 0v1049h157v-161h8q12 30 31.5 57.5t53 56.5t87.5 46t122 17q19 0 61 -4v-146q-23 4 -80 4q-136 0 -209.5 -72t-73.5 -184v-663h-157zM362 1221l239 354h161l-278 -354h-122z" />
    <glyph glyph-name="Rcommaaccent" unicode="&#x156;" horiz-adv-x="1259" 
d="M679 1365q109 0 193.5 -33t135.5 -90t77 -128t26 -152q0 -80 -22 -146.5t-60 -111.5t-80.5 -74.5t-92.5 -47.5l279 -582h-183l-254 549h-345v-549h-159v1365h485zM353 694h298q146 0 221 66.5t75 190.5q0 131 -76.5 200t-211.5 69h-306v-526zM571 -467h-120l81 311h145z
" />
    <glyph glyph-name="rcommaaccent" unicode="&#x157;" horiz-adv-x="787" 
d="M202 0v1049h157v-161h8q12 30 31.5 57.5t53 56.5t87.5 46t122 17q19 0 61 -4v-146q-23 4 -80 4q-136 0 -209.5 -72t-73.5 -184v-663h-157zM264 -467h-120l81 311h145z" />
    <glyph glyph-name="Rcaron" unicode="&#x158;" horiz-adv-x="1259" 
d="M679 1365q109 0 193.5 -33t135.5 -90t77 -128t26 -152q0 -80 -22 -146.5t-60 -111.5t-80.5 -74.5t-92.5 -47.5l279 -582h-183l-254 549h-345v-549h-159v1365h485zM353 694h298q146 0 221 66.5t75 190.5q0 131 -76.5 200t-211.5 69h-306v-526zM257 1711h170l161 -124h5
l148 124h174l-236 -202h-171z" />
    <glyph glyph-name="rcaron" unicode="&#x159;" horiz-adv-x="787" 
d="M202 0v1049h157v-161h8q12 30 31.5 57.5t53 56.5t87.5 46t122 17q19 0 61 -4v-146q-23 4 -80 4q-136 0 -209.5 -72t-73.5 -184v-663h-157zM145 1599h138l159 -273h3l152 273h137l-239 -382h-101z" />
    <glyph glyph-name="Sacute" unicode="&#x15a;" horiz-adv-x="1200" 
d="M88 365h161q11 -109 101 -179t244 -70q147 0 234 67t87 182q0 86 -54.5 139.5t-170.5 83.5l-245 65q-63 17 -116.5 44.5t-99.5 69t-72.5 103.5t-26.5 138q0 122 68 212.5t172.5 134t226.5 43.5q87 0 167 -23t147.5 -68.5t109 -121.5t43.5 -173h-160q-10 107 -90 174
t-221 67q-134 0 -217.5 -62t-83.5 -172q0 -159 193 -209l240 -65q172 -46 262.5 -131.5t90.5 -237.5q0 -98 -39.5 -176t-109 -127.5t-160 -75.5t-195.5 -26q-86 0 -159 17t-124.5 46.5t-90.5 67.5t-62.5 83t-35.5 89.5t-14 90.5zM515 1514l239 354h161l-278 -354h-122z" />
    <glyph glyph-name="sacute" unicode="&#x15b;" horiz-adv-x="1030" 
d="M131 751q0 79 31.5 141t85.5 99t121.5 56t144.5 19q166 0 267 -80.5t101 -209.5h-148q-5 64 -64 111.5t-163 47.5q-99 0 -160.5 -44t-61.5 -123q0 -96 107 -135q37 -13 150 -34q68 -12 115 -24t98 -34.5t82 -51.5t51 -75.5t20 -106.5q0 -153 -112.5 -238.5t-297.5 -85.5
q-173 0 -279 75.5t-106 212.5h154q24 -158 238 -158q125 0 186.5 49t61.5 126q0 30 -8 53t-28 40.5t-39 29t-55.5 22t-61.5 16t-72 14.5q-51 11 -82.5 18.5t-74 20.5t-68 26.5t-54 35t-44 47t-25.5 61.5t-10 79zM434 1221l239 354h161l-278 -354h-122z" />
    <glyph glyph-name="Scircumflex" unicode="&#x15c;" horiz-adv-x="1200" 
d="M88 365h161q11 -109 101 -179t244 -70q147 0 234 67t87 182q0 86 -54.5 139.5t-170.5 83.5l-245 65q-63 17 -116.5 44.5t-99.5 69t-72.5 103.5t-26.5 138q0 122 68 212.5t172.5 134t226.5 43.5q87 0 167 -23t147.5 -68.5t109 -121.5t43.5 -173h-160q-10 107 -90 174
t-221 67q-134 0 -217.5 -62t-83.5 -172q0 -159 193 -209l240 -65q172 -46 262.5 -131.5t90.5 -237.5q0 -98 -39.5 -176t-109 -127.5t-160 -75.5t-195.5 -26q-86 0 -159 17t-124.5 46.5t-90.5 67.5t-62.5 83t-35.5 89.5t-14 90.5zM649 1747l271 -244h-163l-158 144h-5
l-167 -144h-159l282 244h99z" />
    <glyph glyph-name="scircumflex" unicode="&#x15d;" horiz-adv-x="1030" 
d="M131 751q0 79 31.5 141t85.5 99t121.5 56t144.5 19q166 0 267 -80.5t101 -209.5h-148q-5 64 -64 111.5t-163 47.5q-99 0 -160.5 -44t-61.5 -123q0 -96 107 -135q37 -13 150 -34q68 -12 115 -24t98 -34.5t82 -51.5t51 -75.5t20 -106.5q0 -153 -112.5 -238.5t-297.5 -85.5
q-173 0 -279 75.5t-106 212.5h154q24 -158 238 -158q125 0 186.5 49t61.5 126q0 30 -8 53t-28 40.5t-39 29t-55.5 22t-61.5 16t-72 14.5q-51 11 -82.5 18.5t-74 20.5t-68 26.5t-54 35t-44 47t-25.5 61.5t-10 79zM216 1221l249 382h100l249 -382h-138l-159 263h-4l-159 -263
h-138z" />
    <glyph glyph-name="Scedilla" unicode="&#x15e;" horiz-adv-x="1200" 
d="M614 -487q-82 -4 -151 15v102q47 -14 117 -14q49 0 84 19t35 62q0 17 -5.5 29.5t-19 20t-23.5 11.5t-33 6t-33 2h-37h-52v75l49 131q-96 3 -174.5 29t-129 65t-85.5 90.5t-50.5 103t-17.5 105.5h161q11 -108 100.5 -178t244.5 -70q147 0 234 66.5t87 181.5
q0 86 -54.5 139.5t-170.5 83.5l-245 65q-63 17 -116.5 44.5t-99.5 69t-72.5 103.5t-26.5 138q0 122 68 212.5t172.5 134t226.5 43.5q87 0 167 -23t147.5 -68.5t109 -121.5t43.5 -173h-160q-10 107 -90 174t-221 67q-134 0 -217.5 -62t-83.5 -172q0 -159 193 -209l240 -65
q172 -46 262.5 -131.5t90.5 -237.5q0 -173 -116 -276.5t-302 -123.5l-42 -116q100 0 157.5 -40.5t57.5 -119.5q0 -89 -61 -135.5t-158 -51.5z" />
    <glyph glyph-name="scedilla" unicode="&#x15f;" horiz-adv-x="1030" 
d="M520 -487q-82 -4 -151 15v102q47 -14 117 -14q49 0 84 19t35 62q0 17 -5.5 29.5t-19 20t-23.5 11.5t-33 6t-33 2h-37h-52v75l53 143q-155 9 -248.5 83.5t-93.5 203.5h154q24 -158 238 -158q125 0 186.5 49t61.5 126q0 30 -8 53t-28 40.5t-39 29t-55.5 22t-61.5 16
t-72 14.5q-51 11 -82.5 18.5t-74 20.5t-68 26.5t-54 35t-44 47t-25.5 61.5t-10 79q0 79 31.5 141t85.5 99t121.5 56t144.5 19q166 0 267 -80.5t101 -209.5h-148q-5 64 -64 111.5t-163 47.5q-99 0 -160.5 -44t-61.5 -123q0 -96 107 -135q37 -13 150 -34q68 -12 115 -24
t98 -34.5t82 -51.5t51 -75.5t20 -106.5q0 -137 -91 -220.5t-247 -99.5l-46 -127q100 0 157.5 -40.5t57.5 -119.5q0 -89 -61 -135.5t-158 -51.5z" />
    <glyph glyph-name="Scaron" unicode="&#x160;" horiz-adv-x="1200" 
d="M88 365h161q11 -109 101 -179t244 -70q147 0 234 67t87 182q0 86 -54.5 139.5t-170.5 83.5l-245 65q-63 17 -116.5 44.5t-99.5 69t-72.5 103.5t-26.5 138q0 122 68 212.5t172.5 134t226.5 43.5q87 0 167 -23t147.5 -68.5t109 -121.5t43.5 -173h-160q-10 107 -90 174
t-221 67q-134 0 -217.5 -62t-83.5 -172q0 -159 193 -209l240 -65q172 -46 262.5 -131.5t90.5 -237.5q0 -98 -39.5 -176t-109 -127.5t-160 -75.5t-195.5 -26q-86 0 -159 17t-124.5 46.5t-90.5 67.5t-62.5 83t-35.5 89.5t-14 90.5zM264 1711h170l161 -124h5l148 124h174
l-236 -202h-171z" />
    <glyph glyph-name="scaron" unicode="&#x161;" horiz-adv-x="1030" 
d="M131 751q0 79 31.5 141t85.5 99t121.5 56t144.5 19q166 0 267 -80.5t101 -209.5h-148q-5 64 -64 111.5t-163 47.5q-99 0 -160.5 -44t-61.5 -123q0 -96 107 -135q37 -13 150 -34q68 -12 115 -24t98 -34.5t82 -51.5t51 -75.5t20 -106.5q0 -153 -112.5 -238.5t-297.5 -85.5
q-173 0 -279 75.5t-106 212.5h154q24 -158 238 -158q125 0 186.5 49t61.5 126q0 30 -8 53t-28 40.5t-39 29t-55.5 22t-61.5 16t-72 14.5q-51 11 -82.5 18.5t-74 20.5t-68 26.5t-54 35t-44 47t-25.5 61.5t-10 79zM217 1599h138l159 -273h3l152 273h137l-239 -382h-101z" />
    <glyph glyph-name="Tcedilla" unicode="&#x162;" horiz-adv-x="1092" 
d="M510 0h-44v1221h-418v144h996v-144h-419v-1221l-71 -140q99 0 156.5 -40.5t57.5 -119.5q0 -89 -61 -135.5t-158 -51.5q-82 -4 -151 15v102q47 -14 117 -14q49 0 84 19t35 62q0 17 -5.5 29.5t-19 20t-23.5 11.5t-33 6t-33 2h-37h-52v75z" />
    <glyph glyph-name="tcedilla" unicode="&#x163;" horiz-adv-x="754" 
d="M462 -487q-82 -4 -151 15v102q47 -14 117 -14q49 0 84 19t35 62q0 17 -5.5 29.5t-19 20t-23.5 11.5t-33 6t-33 2h-37h-52v75l60 161q-98 22 -132.5 90t-34.5 201v625h-160v131h160v264h157v-264h238v-131h-238v-633q0 -96 36.5 -128.5t137.5 -32.5q41 0 81 5v-131
q-37 -8 -121 -8h-14l-48 -130q100 0 157.5 -40.5t57.5 -119.5q0 -89 -61 -135.5t-158 -51.5z" />
    <glyph glyph-name="Tcaron" unicode="&#x164;" horiz-adv-x="1093" 
d="M626 0h-159v1221h-418v144h995v-144h-418v-1221zM213 1711h170l161 -124h5l148 124h174l-236 -202h-171z" />
    <glyph glyph-name="tcaron" unicode="&#x165;" horiz-adv-x="754" 
d="M590 1709h147l-44 -488h-103v488zM237 1049v264h157v-264h238v-131h-238v-633q0 -96 36.5 -128.5t137.5 -32.5q41 0 81 5v-131q-37 -8 -121 -8q-91 0 -149 17.5t-89 58t-42 92.5t-11 135v625h-160v131h160z" />
    <glyph glyph-name="Tbar" unicode="&#x166;" horiz-adv-x="1093" 
d="M859 654h-233v-654h-159v654h-232v126h232v441h-418v144h995v-144h-418v-441h233v-126z" />
    <glyph glyph-name="tbar" unicode="&#x167;" horiz-adv-x="754" 
d="M649 -2q-37 -8 -121 -8q-91 0 -149 17.5t-89 58t-42 92.5t-11 135v250h-160v134h160v241h-160v131h160v264h157v-264h238v-131h-238v-241h238v-134h-238v-258q0 -96 36.5 -128.5t137.5 -32.5q41 0 81 5v-131z" />
    <glyph glyph-name="Utilde" unicode="&#x168;" horiz-adv-x="1380" 
d="M337 1365v-891q0 -163 95.5 -260.5t257.5 -97.5t257.5 97.5t95.5 260.5v891h159v-891q0 -226 -141.5 -364.5t-370.5 -138.5q-228 0 -370 140.5t-142 366.5v887h159zM809 1463q-44 0 -81.5 19t-59 42t-48.5 42t-51 19q-20 0 -34.5 -11t-22 -29t-11 -34.5t-4.5 -33.5h-106
q0 86 45.5 147t127.5 61q43 0 81 -19t61 -42t50.5 -42t51.5 -19q36 0 56 32.5t22 73.5h106q0 -80 -48.5 -143t-134.5 -63z" />
    <glyph glyph-name="utilde" unicode="&#x169;" horiz-adv-x="1200" 
d="M1016 1049v-1049h-157v174h-9q-26 -76 -106.5 -133.5t-206.5 -57.5q-168 0 -264.5 80t-96.5 253v733h157v-690q0 -125 65.5 -181t174.5 -56q120 0 203 76.5t83 180.5v670h157zM724 1214q-39 0 -69.5 16t-50 39t-36.5 45.5t-38 38.5t-45 16q-21 0 -36 -11.5t-22.5 -33
t-10.5 -41.5t-5 -49h-110q0 108 46.5 176.5t136.5 68.5q41 0 74 -16t53 -38.5t37 -45.5t35.5 -39t38.5 -16q61 0 72 135h110q0 -63 -17.5 -116.5t-60 -91t-102.5 -37.5z" />
    <glyph glyph-name="Umacron" unicode="&#x16a;" horiz-adv-x="1380" 
d="M337 1365v-891q0 -163 95.5 -260.5t257.5 -97.5t257.5 97.5t95.5 260.5v891h159v-891q0 -226 -141.5 -364.5t-370.5 -138.5q-228 0 -370 140.5t-142 366.5v887h159zM980 1515h-580v104h580v-104z" />
    <glyph glyph-name="umacron" unicode="&#x16b;" horiz-adv-x="1200" 
d="M1016 1049v-1049h-157v174h-9q-26 -76 -106.5 -133.5t-206.5 -57.5q-168 0 -264.5 80t-96.5 253v733h157v-690q0 -125 65.5 -181t174.5 -56q120 0 203 76.5t83 180.5v670h157zM894 1252h-588v111h588v-111z" />
    <glyph glyph-name="Ubreve" unicode="&#x16c;" horiz-adv-x="1380" 
d="M337 1365v-891q0 -163 95.5 -260.5t257.5 -97.5t257.5 97.5t95.5 260.5v891h159v-891q0 -226 -141.5 -364.5t-370.5 -138.5q-228 0 -370 140.5t-142 366.5v887h159zM370 1746h117q0 -74 52 -119t151 -45t151 45t52 119h117q0 -110 -82.5 -184.5t-237.5 -74.5t-237.5 74.5
t-82.5 184.5z" />
    <glyph glyph-name="ubreve" unicode="&#x16d;" horiz-adv-x="1200" 
d="M1016 1049v-1049h-157v174h-9q-26 -76 -106.5 -133.5t-206.5 -57.5q-168 0 -264.5 80t-96.5 253v733h157v-690q0 -125 65.5 -181t174.5 -56q120 0 203 76.5t83 180.5v670h157zM316 1484h114q0 -69 43 -116.5t127 -47.5t127 47.5t43 116.5h114q0 -46 -16.5 -91
t-48.5 -85.5t-89 -65.5t-130 -25t-130 25t-89.5 65.5t-48.5 85.5t-16 91z" />
    <glyph glyph-name="Uring" unicode="&#x16e;" horiz-adv-x="1380" 
d="M337 1365v-891q0 -163 95.5 -260.5t257.5 -97.5t257.5 97.5t95.5 260.5v891h159v-891q0 -226 -141.5 -364.5t-370.5 -138.5q-228 0 -370 140.5t-142 366.5v887h159zM690 1488q-78 0 -132 52.5t-54 129.5t54 129.5t132 52.5t132 -52.5t54 -129.5t-54 -129.5t-132 -52.5z
M587 1670q0 -44 30 -74.5t73 -30.5t72.5 30.5t29.5 74.5t-29.5 74t-72.5 30t-73 -30t-30 -74z" />
    <glyph glyph-name="uring" unicode="&#x16f;" horiz-adv-x="1200" 
d="M1016 1049v-1049h-157v174h-9q-26 -76 -106.5 -133.5t-206.5 -57.5q-168 0 -264.5 80t-96.5 253v733h157v-690q0 -125 65.5 -181t174.5 -56q120 0 203 76.5t83 180.5v670h157zM600 1231q-78 0 -132 52.5t-54 129.5t54 129.5t132 52.5t132 -52.5t54 -129.5t-54 -129.5
t-132 -52.5zM497 1413q0 -44 30 -74.5t73 -30.5t72.5 30.5t29.5 74.5t-29.5 74t-72.5 30t-73 -30t-30 -74z" />
    <glyph glyph-name="Uhungarumlaut" unicode="&#x170;" horiz-adv-x="1380" 
d="M337 1365v-891q0 -163 95.5 -260.5t257.5 -97.5t257.5 97.5t95.5 260.5v891h159v-891q0 -226 -141.5 -364.5t-370.5 -138.5q-228 0 -370 140.5t-142 366.5v887h159zM450 1514l239 354h161l-278 -354h-122zM765 1514l239 354h161l-278 -354h-122z" />
    <glyph glyph-name="uhungarumlaut" unicode="&#x171;" horiz-adv-x="1200" 
d="M1016 1049v-1049h-157v174h-9q-26 -76 -106.5 -133.5t-206.5 -57.5q-168 0 -264.5 80t-96.5 253v733h157v-690q0 -125 65.5 -181t174.5 -56q120 0 203 76.5t83 180.5v670h157zM485 1221h-124l243 366h168zM799 1221h-123l243 366h168z" />
    <glyph glyph-name="Uogonek" unicode="&#x172;" horiz-adv-x="1380" 
d="M984 -385q-90 0 -156 49t-66 145q0 123 108 203l-5 9q-27 -16 -45 -24t-57.5 -17t-87.5 -9q-214 0 -355.5 141.5t-141.5 365.5v887h159v-891q0 -163 95.5 -260.5t257.5 -97.5t257.5 97.5t95.5 260.5v891h159v-891q0 -95 -23.5 -175t-53.5 -127.5t-74 -97.5l-44 -46.5
t-43 -47t-31.5 -41t-25 -48t-7.5 -49.5q0 -53 32 -77.5t85 -24.5q41 0 75 10v-117q-47 -18 -108 -18z" />
    <glyph glyph-name="uogonek" unicode="&#x173;" horiz-adv-x="1200" 
d="M1029 -364q-47 -21 -121 -21q-89 0 -150.5 47.5t-61.5 141.5q0 19 3.5 37.5t7.5 33t13.5 31l15.5 26.5t20 25t19.5 21.5t22.5 20l21 16.5l21.5 16.5t18.5 13.5v129h-9q-26 -76 -106.5 -133.5t-206.5 -57.5q-168 0 -264.5 80t-96.5 253v733h157v-693q0 -125 65.5 -181
t174.5 -56q120 0 203 76.5t83 180.5v673h157v-1040q-73 -29 -127 -75.5t-54 -101.5q0 -44 30.5 -68t80.5 -24q46 0 83 9v-113z" />
    <glyph glyph-name="Wcircumflex" unicode="&#x174;" horiz-adv-x="1715" 
d="M561 0h-141l-378 1365h188l261 -1113h8l273 1113h171l272 -1113h9l261 1113h188l-379 -1365h-142l-291 1102h-9zM910 1747l271 -244h-163l-158 144h-5l-167 -144h-159l282 244h99z" />
    <glyph glyph-name="wcircumflex" unicode="&#x175;" horiz-adv-x="1496" 
d="M1436 1049l-281 -1049h-153l-246 819h-4l-240 -819h-154l-298 1049h179l194 -839h7l239 839h148l246 -839h7l199 839h157zM449 1221l249 382h100l249 -382h-138l-159 263h-4l-159 -263h-138z" />
    <glyph glyph-name="Ycircumflex" unicode="&#x176;" horiz-adv-x="1131" 
d="M645 0h-159v599l-456 766h183l348 -610h9l348 610h183l-456 -766v-599zM618 1747l271 -244h-163l-158 144h-5l-167 -144h-159l282 244h99z" />
    <glyph glyph-name="ycircumflex" unicode="&#x177;" horiz-adv-x="1080" 
d="M1000 1049l-379 -1060l-27 -73q-20 -54 -36.5 -90.5t-45.5 -80t-62 -69.5t-83 -43.5t-111 -17.5q-49 0 -101 8v133q27 -5 76 -5q89 0 136 42.5t72 129.5l17 60l-391 1066h175l293 -886h7l293 886h167zM241 1221l249 382h100l249 -382h-138l-159 263h-4l-159 -263h-138z
" />
    <glyph glyph-name="Ydieresis" unicode="&#x178;" horiz-adv-x="1131" 
d="M645 0h-159v599l-456 766h183l348 -610h9l348 610h183l-456 -766v-599zM737 1483q-42 0 -71.5 28t-29.5 70q0 43 29 71t72 28q46 0 76 -28t30 -71q0 -42 -30 -70t-76 -28zM390 1483q-43 0 -72.5 28t-29.5 70q0 43 29.5 71t72.5 28q45 0 74.5 -28t29.5 -71
q0 -42 -29.5 -70t-74.5 -28z" />
    <glyph glyph-name="Zacute" unicode="&#x179;" horiz-adv-x="1195" 
d="M110 0v113l742 1098v10h-715v144h913v-113l-737 -1098v-10h754v-144h-957zM516 1514l239 354h161l-278 -354h-122z" />
    <glyph glyph-name="zacute" unicode="&#x17a;" horiz-adv-x="1015" 
d="M124 0v111l570 789v10h-574v139h771v-111l-571 -790v-9h575v-139h-771zM427 1221l239 354h161l-278 -354h-122z" />
    <glyph glyph-name="Zdotaccent" unicode="&#x17b;" horiz-adv-x="1195" 
d="M110 0v113l742 1098v10h-715v144h913v-113l-737 -1098v-10h754v-144h-957zM496 1588q0 44 29 73.5t71 29.5q44 0 74 -29.5t30 -73.5q0 -43 -30 -71.5t-74 -28.5q-42 0 -71 29t-29 71z" />
    <glyph glyph-name="zdotaccent" unicode="&#x17c;" horiz-adv-x="1015" 
d="M124 0v111l570 789v10h-574v139h771v-111l-571 -790v-9h575v-139h-771zM406 1342q0 44 29 73.5t71 29.5q44 0 74 -29.5t30 -73.5q0 -43 -30 -71.5t-74 -28.5q-42 0 -71 29t-29 71z" />
    <glyph glyph-name="Zcaron" unicode="&#x17d;" horiz-adv-x="1195" 
d="M110 0v113l742 1098v10h-715v144h913v-113l-737 -1098v-10h754v-144h-957zM265 1711h170l161 -124h5l148 124h174l-236 -202h-171z" />
    <glyph glyph-name="zcaron" unicode="&#x17e;" horiz-adv-x="1015" 
d="M124 0v111l570 789v10h-574v139h771v-111l-571 -790v-9h575v-139h-771zM210 1599h138l159 -273h3l152 273h137l-239 -382h-101z" />
    <glyph glyph-name="florin" unicode="&#x192;" horiz-adv-x="1128" 
d="M184 -186l176 966h-219l23 130h220l32 191q50 294 341 294q62 0 110.5 -17t78 -43.5t48.5 -60.5t25.5 -65.5t4.5 -60.5h-147q2 56 -37.5 85.5t-97.5 29.5q-140 0 -171 -182l-29 -171h294l-24 -130h-294l-175 -966h-159z" />
    <glyph glyph-name="Ohorn" unicode="&#x1a0;" horiz-adv-x="1392" 
d="M1220 573q0 -286 -147 -444t-396 -158q-248 0 -392.5 158t-144.5 444v205q0 288 147 452t394 164q86 0 160.5 -24t133.5 -47.5t107 -23.5q77 0 107 41.5t30 119.5v86h143v-84q0 -137 -64 -206.5t-187 -69.5l-4 -7q45 -60 79 -172t34 -229v-205zM299 778v-205
q0 -225 105 -340.5t275 -115.5q171 0 276.5 115.5t105.5 340.5v205q0 227 -106.5 349t-275.5 122q-168 0 -274 -122t-106 -349z" />
    <glyph glyph-name="ohorn" unicode="&#x1a1;" horiz-adv-x="1151" 
d="M578 -17q-199 0 -322.5 121.5t-123.5 337.5v166q0 207 126 332.5t320 125.5q58 0 140 -23.5t141 -23.5q75 0 106 41t31 120v156h143v-143q0 -133 -50 -204.5t-166 -72.5v-8q40 -49 70 -131.5t30 -168.5v-166q0 -214 -125 -336.5t-320 -122.5zM579 928q-131 0 -210.5 -93
t-79.5 -244v-132q0 -155 77 -245.5t213 -90.5q135 0 211 90t76 246v132q0 152 -78 244.5t-209 92.5z" />
    <glyph glyph-name="Uhorn" unicode="&#x1af;" horiz-adv-x="1452" 
d="M690 -29q-228 0 -370 140.5t-142 366.5v887h159v-891q0 -163 95.5 -260.5t257.5 -97.5t257.5 97.5t95.5 260.5v891h161q77 0 107 41.5t30 119.5v96h141v-94q0 -126 -60.5 -201.5t-184.5 -75.5h-35v-777q0 -226 -141.5 -364.5t-370.5 -138.5z" />
    <glyph glyph-name="uhorn" unicode="&#x1b0;" horiz-adv-x="1269" 
d="M850 174q-26 -76 -106.5 -133.5t-206.5 -57.5q-168 0 -264.5 80t-96.5 253v733h157v-693q0 -125 65.5 -181t174.5 -56q120 0 203 76.5t83 180.5v673h143q77 0 107 41.5t30 119.5v126h143v-124q0 -125 -60.5 -200t-186.5 -75h-19v-937h-157v174h-9z" />
    <glyph glyph-name="Acaron" unicode="&#x1cd;" horiz-adv-x="1243" 
d="M217 0h-163l490 1365h155l490 -1365h-171l-142 420h-516zM621 1168h-6l-210 -617h426zM289 1711h170l161 -124h5l148 124h174l-236 -202h-171z" />
    <glyph glyph-name="acaron" unicode="&#x1ce;" horiz-adv-x="1108" 
d="M465 -17q-153 0 -247.5 89t-94.5 233q0 140 95.5 223.5t271.5 83.5h280v107q0 104 -61 156t-172 52q-182 0 -221 -128h-153q12 132 112.5 199.5t268.5 67.5q82 0 149.5 -19t121.5 -58.5t84 -108t30 -160.5v-720h-152v141h-7q-99 -158 -305 -158zM505 122q113 0 189 68.5
t76 170.5v120h-277q-106 0 -157 -47t-51 -126q0 -91 63.5 -138.5t156.5 -47.5zM256 1599h138l159 -273h3l152 273h137l-239 -382h-101z" />
    <glyph glyph-name="Icaron" unicode="&#x1cf;" horiz-adv-x="547" 
d="M353 0h-159v1365h159v-1365zM-59 1711h170l161 -124h5l148 124h174l-236 -202h-171z" />
    <glyph glyph-name="icaron" unicode="&#x1d0;" horiz-adv-x="579" 
d="M211 0v1049h157v-1049h-157zM-5 1599h138l159 -273h3l152 273h137l-239 -382h-101z" />
    <glyph glyph-name="Ocaron" unicode="&#x1d1;" horiz-adv-x="1360" 
d="M299 778v-205q0 -225 105 -341t275 -116q171 0 276.5 116t105.5 341v205q0 227 -106.5 349t-275.5 122q-168 0 -274 -122t-106 -349zM140 573v205q0 288 147 452t394 164t393 -164t146 -452v-205q0 -286 -147 -444t-396 -158q-248 0 -392.5 158t-144.5 444zM347 1711h170
l161 -124h5l148 124h174l-236 -202h-171z" />
    <glyph glyph-name="ocaron" unicode="&#x1d2;" horiz-adv-x="1155" 
d="M578 1066q195 0 320 -122.5t125 -335.5v-166q0 -214 -125 -336.5t-320 -122.5q-199 0 -322.5 121.5t-123.5 337.5v166q0 207 126 332.5t320 125.5zM579 927q-131 0 -210.5 -93t-79.5 -244v-132q0 -155 77 -245.5t213 -90.5q135 0 211 90t76 246v132q0 152 -78 244.5
t-209 92.5zM280 1599h138l159 -273h3l152 273h137l-239 -382h-101z" />
    <glyph glyph-name="Ucaron" unicode="&#x1d3;" horiz-adv-x="1380" 
d="M337 1365v-891q0 -163 95.5 -260.5t257.5 -97.5t257.5 97.5t95.5 260.5v891h159v-891q0 -226 -141.5 -364.5t-370.5 -138.5q-228 0 -370 140.5t-142 366.5v887h159zM357 1711h170l161 -124h5l148 124h174l-236 -202h-171z" />
    <glyph glyph-name="ucaron" unicode="&#x1d4;" horiz-adv-x="1200" 
d="M1016 1049v-1049h-157v174h-9q-26 -76 -106.5 -133.5t-206.5 -57.5q-168 0 -264.5 80t-96.5 253v733h157v-690q0 -125 65.5 -181t174.5 -56q120 0 203 76.5t83 180.5v670h157zM302 1599h138l159 -273h3l152 273h137l-239 -382h-101z" />
    <glyph glyph-name="Udieresismacron" unicode="&#x1d5;" horiz-adv-x="1380" 
d="M337 1365v-891q0 -163 95.5 -260.5t257.5 -97.5t257.5 97.5t95.5 260.5v891h159v-891q0 -226 -141.5 -364.5t-370.5 -138.5q-228 0 -370 140.5t-142 366.5v887h159zM862 1483q-42 0 -71.5 28t-29.5 70q0 43 29 71t72 28q46 0 76 -28t30 -71q0 -42 -30 -70t-76 -28z
M515 1483q-43 0 -72.5 28t-29.5 70q0 43 29.5 71t72.5 28q45 0 74.5 -28t29.5 -71q0 -42 -29.5 -70t-74.5 -28zM980 1786h-580v104h580v-104z" />
    <glyph glyph-name="udieresismacron" unicode="&#x1d6;" horiz-adv-x="1200" 
d="M1016 1049v-1049h-157v174h-9q-26 -76 -106.5 -133.5t-206.5 -57.5q-168 0 -264.5 80t-96.5 253v733h157v-690q0 -125 65.5 -181t174.5 -56q120 0 203 76.5t83 180.5v670h157zM776 1225q-42 0 -72.5 29.5t-30.5 71.5q0 44 30.5 73.5t72.5 29.5q47 0 78.5 -29.5
t31.5 -73.5q0 -42 -32 -71.5t-78 -29.5zM421 1225q-44 0 -75 29.5t-31 71.5q0 44 31 73.5t75 29.5q45 0 76 -29.5t31 -73.5q0 -42 -31.5 -71.5t-75.5 -29.5zM894 1601h-588v111h588v-111z" />
    <glyph glyph-name="Udieresisacute" unicode="&#x1d7;" horiz-adv-x="1380" 
d="M337 1365v-891q0 -163 95.5 -260.5t257.5 -97.5t257.5 97.5t95.5 260.5v891h159v-891q0 -226 -141.5 -364.5t-370.5 -138.5q-228 0 -370 140.5t-142 366.5v887h159zM604 1734l247 196h189l-285 -196h-151zM862 1483q-42 0 -71.5 28t-29.5 70q0 43 29 71t72 28
q46 0 76 -28t30 -71q0 -42 -30 -70t-76 -28zM515 1483q-43 0 -72.5 28t-29.5 70q0 43 29.5 71t72.5 28q45 0 74.5 -28t29.5 -71q0 -42 -29.5 -70t-74.5 -28z" />
    <glyph glyph-name="udieresisacute" unicode="&#x1d8;" horiz-adv-x="1200" 
d="M1016 1049v-1049h-157v174h-9q-26 -76 -106.5 -133.5t-206.5 -57.5q-168 0 -264.5 80t-96.5 253v733h157v-690q0 -125 65.5 -181t174.5 -56q120 0 203 76.5t83 180.5v670h157zM776 1225q-42 0 -72.5 29.5t-30.5 71.5q0 44 30.5 73.5t72.5 29.5q47 0 78.5 -29.5
t31.5 -73.5q0 -42 -32 -71.5t-78 -29.5zM421 1225q-44 0 -75 29.5t-31 71.5q0 44 31 73.5t75 29.5q45 0 76 -29.5t31 -73.5q0 -42 -31.5 -71.5t-75.5 -29.5zM519 1528l239 354h161l-278 -354h-122z" />
    <glyph glyph-name="Udieresiscaron" unicode="&#x1d9;" horiz-adv-x="1380" 
d="M337 1365v-891q0 -163 95.5 -260.5t257.5 -97.5t257.5 97.5t95.5 260.5v891h159v-891q0 -226 -141.5 -364.5t-370.5 -138.5q-228 0 -370 140.5t-142 366.5v887h159zM515 1483q-43 0 -72.5 28t-29.5 70q0 43 29.5 71t72.5 28q45 0 74.5 -28t29.5 -71q0 -42 -29.5 -70
t-74.5 -28zM862 1483q-42 0 -71.5 28t-29.5 70q0 43 29 71t72 28q46 0 76 -28t30 -71q0 -42 -30 -70t-76 -28zM368 1920h163l157 -113h4l157 113h163l-281 -204h-82z" />
    <glyph glyph-name="udieresiscaron" unicode="&#x1da;" horiz-adv-x="1200" 
d="M1016 1049v-1049h-157v174h-9q-26 -76 -106.5 -133.5t-206.5 -57.5q-168 0 -264.5 80t-96.5 253v733h157v-690q0 -125 65.5 -181t174.5 -56q120 0 203 76.5t83 180.5v670h157zM776 1225q-42 0 -72.5 29.5t-30.5 71.5q0 44 30.5 73.5t72.5 29.5q47 0 78.5 -29.5
t31.5 -73.5q0 -42 -32 -71.5t-78 -29.5zM421 1225q-44 0 -75 29.5t-31 71.5q0 44 31 73.5t75 29.5q45 0 76 -29.5t31 -73.5q0 -42 -31.5 -71.5t-75.5 -29.5zM302 1910h138l159 -273h3l152 273h137l-239 -382h-101z" />
    <glyph glyph-name="Udieresisgrave" unicode="&#x1db;" horiz-adv-x="1380" 
d="M337 1365v-891q0 -163 95.5 -260.5t257.5 -97.5t257.5 97.5t95.5 260.5v891h159v-891q0 -226 -141.5 -364.5t-370.5 -138.5q-228 0 -370 140.5t-142 366.5v887h159zM776 1734h-151l-285 196h189zM862 1483q-42 0 -71.5 28t-29.5 70q0 43 29 71t72 28q46 0 76 -28t30 -71
q0 -42 -30 -70t-76 -28zM515 1483q-43 0 -72.5 28t-29.5 70q0 43 29.5 71t72.5 28q45 0 74.5 -28t29.5 -71q0 -42 -29.5 -70t-74.5 -28z" />
    <glyph glyph-name="udieresisgrave" unicode="&#x1dc;" horiz-adv-x="1200" 
d="M1016 1049v-1049h-157v174h-9q-26 -76 -106.5 -133.5t-206.5 -57.5q-168 0 -264.5 80t-96.5 253v733h157v-690q0 -125 65.5 -181t174.5 -56q120 0 203 76.5t83 180.5v670h157zM776 1225q-42 0 -72.5 29.5t-30.5 71.5q0 44 30.5 73.5t72.5 29.5q47 0 78.5 -29.5
t31.5 -73.5q0 -42 -32 -71.5t-78 -29.5zM421 1225q-44 0 -75 29.5t-31 71.5q0 44 31 73.5t75 29.5q45 0 76 -29.5t31 -73.5q0 -42 -31.5 -71.5t-75.5 -29.5zM681 1528h-122l-278 354h161z" />
    <glyph glyph-name="Adieresismacron" unicode="&#x1de;" horiz-adv-x="1243" 
d="M217 0h-163l490 1365h155l490 -1365h-171l-142 420h-516zM621 1168h-6l-210 -617h426zM794 1483q-42 0 -71.5 28t-29.5 70q0 43 29 71t72 28q46 0 76 -28t30 -71q0 -42 -30 -70t-76 -28zM447 1483q-43 0 -72.5 28t-29.5 70q0 43 29.5 71t72.5 28q45 0 74.5 -28t29.5 -71
q0 -42 -29.5 -70t-74.5 -28zM912 1786h-580v104h580v-104z" />
    <glyph glyph-name="adieresismacron" unicode="&#x1df;" horiz-adv-x="1108" 
d="M465 -17q-153 0 -247.5 89t-94.5 233q0 140 95.5 223.5t271.5 83.5h280v107q0 104 -61 156t-172 52q-182 0 -221 -128h-153q12 132 112.5 199.5t268.5 67.5q82 0 149.5 -19t121.5 -58.5t84 -108t30 -160.5v-720h-152v141h-7q-99 -158 -305 -158zM505 122q113 0 189 68.5
t76 170.5v120h-277q-106 0 -157 -47t-51 -126q0 -91 63.5 -138.5t156.5 -47.5zM730 1225q-42 0 -72.5 29.5t-30.5 71.5q0 44 30.5 73.5t72.5 29.5q47 0 78.5 -29.5t31.5 -73.5q0 -42 -32 -71.5t-78 -29.5zM375 1225q-44 0 -75 29.5t-31 71.5q0 44 31 73.5t75 29.5
q45 0 76 -29.5t31 -73.5q0 -42 -31.5 -71.5t-75.5 -29.5zM848 1601h-588v111h588v-111z" />
    <glyph glyph-name="Adotmacron" unicode="&#x1e0;" horiz-adv-x="1243" 
d="M217 0h-163l490 1365h155l490 -1365h-171l-142 420h-516zM621 1168h-6l-210 -617h426zM520 1588q0 44 29 73.5t71 29.5q44 0 74 -29.5t30 -73.5q0 -43 -30 -71.5t-74 -28.5q-42 0 -71 29t-29 71zM912 1775h-580v104h580v-104z" />
    <glyph glyph-name="adotmacron" unicode="&#x1e1;" horiz-adv-x="1108" 
d="M465 -17q-153 0 -247.5 89t-94.5 233q0 140 95.5 223.5t271.5 83.5h280v107q0 104 -61 156t-172 52q-182 0 -221 -128h-153q12 132 112.5 199.5t268.5 67.5q82 0 149.5 -19t121.5 -58.5t84 -108t30 -160.5v-720h-152v141h-7q-99 -158 -305 -158zM505 122q113 0 189 68.5
t76 170.5v120h-277q-106 0 -157 -47t-51 -126q0 -91 63.5 -138.5t156.5 -47.5zM452 1342q0 44 29 73.5t71 29.5q44 0 74 -29.5t30 -73.5q0 -43 -30 -71.5t-74 -28.5q-42 0 -71 29t-29 71zM848 1601h-588v111h588v-111z" />
    <glyph glyph-name="AEmacron" unicode="&#x1e2;" horiz-adv-x="1897" 
d="M881 1220l-356 -669h429v669h-73zM954 420h-499l-232 -420h-181l754 1365h957v-145h-640v-450h604v-144h-604v-481h640v-145h-799v420zM1654 1515h-580v104h580v-104z" />
    <glyph glyph-name="aemacron" unicode="&#x1e3;" horiz-adv-x="1747" 
d="M1213 -17q-148 0 -246.5 59.5t-131.5 147.5h-13q-40 -87 -129 -147t-222 -60q-156 0 -253.5 86t-97.5 233q0 144 98 227t278 83h277v107q0 104 -61 155t-172 51q-189 0 -228 -126h-153q12 131 115.5 199t272.5 68q108 0 193 -35.5t127 -107.5h12q45 69 131.5 106
t189.5 37q188 0 303 -125t115 -332v-128h-686v-83q0 -119 76 -197t204 -78q91 0 149.5 36t74.5 89h167q-7 -43 -33 -87t-71.5 -85t-120 -67t-165.5 -26zM1200 928q-115 0 -191.5 -80.5t-76.5 -205.5v-39h528v27q0 138 -69.5 218t-190.5 80zM507 119q113 0 189.5 69t76.5 171
v122h-274q-108 0 -164.5 -47.5t-56.5 -125.5q0 -91 67 -140t162 -49zM1168 1252h-588v111h588v-111z" />
    <glyph glyph-name="Gcaron" unicode="&#x1e6;" horiz-adv-x="1322" 
d="M1178 953h-158q-19 147 -114 221.5t-229 74.5q-79 0 -145.5 -27t-119.5 -81.5t-83 -146.5t-30 -213v-190q0 -225 96 -350t277 -125q154 0 254 86.5t100 221.5v140h-364v144h520v-284q0 -55 -15.5 -113.5t-53 -120.5t-93.5 -109.5t-145.5 -78.5t-199.5 -31
q-261 0 -398 164t-137 456v190q0 289 147.5 451t393.5 162q222 0 352.5 -127t144.5 -314zM348 1711h170l161 -124h5l148 124h174l-236 -202h-171z" />
    <glyph glyph-name="gcaron" unicode="&#x1e7;" horiz-adv-x="1161" 
d="M550 -255q143 0 216.5 73t73.5 204v161h-9q-33 -71 -112 -117.5t-183 -46.5q-117 0 -211.5 51.5t-151 151t-56.5 231.5v177q0 198 119.5 317t298.5 119q111 0 194 -52.5t112 -121.5h7v157h149v-1024q0 -209 -120 -314t-334 -105q-187 0 -288.5 79t-114.5 203h164
q11 -61 76.5 -102t169.5 -41zM566 927q-134 0 -213 -92t-79 -242v-103q0 -147 82.5 -239.5t211.5 -92.5q126 0 199 88t73 209v169q0 123 -75 213t-199 90zM283 1599h138l159 -273h3l152 273h137l-239 -382h-101z" />
    <glyph glyph-name="Kcaron" unicode="&#x1e8;" horiz-adv-x="1227" 
d="M1157 1365l-512 -580l540 -785h-205l-454 674l-173 -187v-487h-159v1365h159v-668h7l606 668h191zM256 1711h170l161 -124h5l148 124h174l-236 -202h-171z" />
    <glyph glyph-name="kcaron" unicode="&#x1e9;" horiz-adv-x="1050" 
d="M344 392v-392h-157v1477h157v-909h6l444 481h184l-419 -456l446 -593h-189l-371 493zM-71 1823h170l161 -124h5l148 124h174l-236 -202h-171z" />
    <glyph glyph-name="Oogonek" unicode="&#x1ea;" horiz-adv-x="1360" 
d="M299 778v-205q0 -225 105 -340.5t275 -115.5q171 0 276.5 115.5t105.5 340.5v205q0 227 -106.5 349t-275.5 122q-168 0 -274 -122t-106 -349zM664 -29q-236 0 -380 159t-144 443v205q0 288 147 452t394 164t393 -164t146 -452v-205q0 -171 -45 -284.5t-121 -201.5
q-20 -23 -59 -64t-57 -62t-34 -53.5t-16 -65.5q0 -51 32 -76.5t86 -25.5q40 0 74 10v-117q-50 -18 -108 -18q-91 0 -156.5 50t-65.5 144q0 124 108 203l-5 9q-84 -50 -189 -50z" />
    <glyph glyph-name="oogonek" unicode="&#x1eb;" horiz-adv-x="1155" 
d="M579 928q-131 0 -210.5 -93t-79.5 -243v-133q0 -155 77 -245.5t213 -90.5q135 0 211 90.5t76 245.5v133q0 151 -78 243.5t-209 92.5zM698 20q-62 -36 -147 -36q-87 0 -163.5 31t-133 87t-89.5 141.5t-33 188.5v176q0 208 126.5 333t323.5 125q192 0 316.5 -122.5
t124.5 -335.5v-166q0 -123 -39 -208.5t-106 -161.5q-12 -14 -42 -45t-42 -46t-29.5 -39.5t-24.5 -47t-7 -46.5q0 -50 32.5 -79t86.5 -29q39 0 74 10v-117q-54 -18 -111 -18q-90 0 -154.5 49t-64.5 146q0 119 109 202z" />
    <glyph glyph-name="Oogonekmacron" unicode="&#x1ec;" horiz-adv-x="1360" 
d="M299 778v-205q0 -225 105 -340.5t275 -115.5q171 0 276.5 115.5t105.5 340.5v205q0 227 -106.5 349t-275.5 122q-168 0 -274 -122t-106 -349zM664 -29q-236 0 -380 159t-144 443v205q0 288 147 452t394 164t393 -164t146 -452v-205q0 -171 -45 -284.5t-121 -201.5
q-20 -23 -59 -64t-57 -62t-34 -53.5t-16 -65.5q0 -51 32 -76.5t86 -25.5q40 0 74 10v-117q-50 -18 -108 -18q-91 0 -156.5 50t-65.5 144q0 124 108 203l-5 9q-84 -50 -189 -50zM970 1515h-580v104h580v-104z" />
    <glyph glyph-name="oogonekmacron" unicode="&#x1ed;" horiz-adv-x="1155" 
d="M579 928q-131 0 -210.5 -93t-79.5 -243v-133q0 -155 77 -245.5t213 -90.5q135 0 211 90.5t76 245.5v133q0 151 -78 243.5t-209 92.5zM698 20q-62 -36 -147 -36q-87 0 -163.5 31t-133 87t-89.5 141.5t-33 188.5v176q0 208 126.5 333t323.5 125q192 0 316.5 -122.5
t124.5 -335.5v-166q0 -123 -39 -208.5t-106 -161.5q-12 -14 -42 -45t-42 -46t-29.5 -39.5t-24.5 -47t-7 -46.5q0 -50 32.5 -79t86.5 -29q39 0 74 10v-117q-54 -18 -111 -18q-90 0 -154.5 49t-64.5 146q0 119 109 202zM872 1252h-588v111h588v-111z" />
    <glyph glyph-name="Gacute" unicode="&#x1f4;" horiz-adv-x="1322" 
d="M1178 953h-158q-19 147 -114 221.5t-229 74.5q-79 0 -145.5 -27t-119.5 -81.5t-83 -146.5t-30 -213v-190q0 -225 96 -350t277 -125q154 0 254 86.5t100 221.5v140h-364v144h520v-284q0 -55 -15.5 -113.5t-53 -120.5t-93.5 -109.5t-145.5 -78.5t-199.5 -31
q-261 0 -398 164t-137 456v190q0 289 147.5 451t393.5 162q222 0 352.5 -127t144.5 -314zM599 1514l239 354h161l-278 -354h-122z" />
    <glyph glyph-name="gacute" unicode="&#x1f5;" horiz-adv-x="1161" 
d="M550 -255q143 0 216.5 73t73.5 204v161h-9q-33 -71 -112 -117.5t-183 -46.5q-117 0 -211.5 51.5t-151 151t-56.5 231.5v177q0 198 119.5 317t298.5 119q111 0 194 -52.5t112 -121.5h7v157h149v-1024q0 -209 -120 -314t-334 -105q-187 0 -288.5 79t-114.5 203h164
q11 -61 76.5 -102t169.5 -41zM566 927q-134 0 -213 -92t-79 -242v-103q0 -147 82.5 -239.5t211.5 -92.5q126 0 199 88t73 209v169q0 123 -75 213t-199 90zM500 1221l239 354h161l-278 -354h-122z" />
    <glyph glyph-name="Ngrave" unicode="&#x1f8;" horiz-adv-x="1412" 
d="M353 0h-159v1365h159l698 -1092h8v1092h159v-1365h-159l-699 1092h-7v-1092zM788 1514h-122l-278 354h161z" />
    <glyph glyph-name="ngrave" unicode="&#x1f9;" horiz-adv-x="1206" 
d="M184 0v1049h157v-192h8q68 209 320 209q164 0 261 -88t97 -258v-720h-157v668q0 126 -62 192.5t-176 66.5q-142 0 -216.5 -96t-74.5 -246v-585h-157zM684 1221h-122l-278 354h161z" />
    <glyph glyph-name="Aringacute" unicode="&#x1fa;" horiz-adv-x="1243" 
d="M217 0h-163l490 1365h155l490 -1365h-171l-142 420h-516zM621 1168h-6l-210 -617h426zM558 1813l110 132h170l-154 -132h-126zM622 1430q-72 0 -121.5 48.5t-49.5 119.5t49.5 119.5t121.5 48.5t122 -48.5t50 -119.5t-50 -119.5t-122 -48.5zM532 1599q0 -39 26 -66.5
t65 -27.5t64.5 27.5t25.5 66.5t-25.5 65.5t-64.5 26.5t-65 -26.5t-26 -65.5z" />
    <glyph glyph-name="aringacute" unicode="&#x1fb;" horiz-adv-x="1108" 
d="M465 -17q-153 0 -247.5 89t-94.5 233q0 140 95.5 223.5t271.5 83.5h280v107q0 104 -61 156t-172 52q-182 0 -221 -128h-153q12 132 112.5 199.5t268.5 67.5q82 0 149.5 -19t121.5 -58.5t84 -108t30 -160.5v-720h-152v141h-7q-99 -158 -305 -158zM505 122q113 0 189 68.5
t76 170.5v120h-277q-106 0 -157 -47t-51 -126q0 -91 63.5 -138.5t156.5 -47.5zM612 1692h-119l138 191h161zM554 1231q-78 0 -132 52.5t-54 129.5t54 129.5t132 52.5t132 -52.5t54 -129.5t-54 -129.5t-132 -52.5zM451 1413q0 -44 30 -74.5t73 -30.5t72.5 30.5t29.5 74.5
t-29.5 74t-72.5 30t-73 -30t-30 -74z" />
    <glyph glyph-name="AEacute" unicode="&#x1fc;" horiz-adv-x="1897" 
d="M881 1220l-356 -669h429v669h-73zM954 420h-499l-232 -420h-181l754 1365h957v-145h-640v-450h604v-144h-604v-481h640v-145h-799v420zM1282 1514l239 354h161l-278 -354h-122z" />
    <glyph glyph-name="aeacute" unicode="&#x1fd;" horiz-adv-x="1747" 
d="M1213 -17q-148 0 -246.5 59.5t-131.5 147.5h-13q-40 -87 -129 -147t-222 -60q-156 0 -253.5 86t-97.5 233q0 144 98 227t278 83h277v107q0 104 -61 155t-172 51q-189 0 -228 -126h-153q12 131 115.5 199t272.5 68q108 0 193 -35.5t127 -107.5h12q45 69 131.5 106
t189.5 37q188 0 303 -125t115 -332v-128h-686v-83q0 -119 76 -197t204 -78q91 0 149.5 36t74.5 89h167q-7 -43 -33 -87t-71.5 -85t-120 -67t-165.5 -26zM1200 928q-115 0 -191.5 -80.5t-76.5 -205.5v-39h528v27q0 138 -69.5 218t-190.5 80zM507 119q113 0 189.5 69t76.5 171
v122h-274q-108 0 -164.5 -47.5t-56.5 -125.5q0 -91 67 -140t162 -49zM793 1221l239 354h161l-278 -354h-122z" />
    <glyph glyph-name="Oslashacute" unicode="&#x1fe;" horiz-adv-x="1360" 
d="M677 -29q-240 0 -381 146l-101 -126l-94 77l120 149q-81 146 -81 356v205q0 288 147 452t394 164q229 0 373 -142l99 123l98 -70l-122 -151q91 -153 91 -376v-205q0 -286 -147 -444t-396 -158zM298 573q0 -124 34 -218l622 773q-104 121 -275 121q-168 0 -274.5 -122
t-106.5 -349v-205zM679 117q171 0 276.5 115.5t105.5 340.5v205q0 135 -41 239l-624 -776q102 -124 283 -124zM598 1514l239 354h161l-278 -354h-122z" />
    <glyph glyph-name="oslashacute" unicode="&#x1ff;" horiz-adv-x="1155" 
d="M398 171q72 -52 180 -52q135 0 213 92.5t78 247.5v162q0 93 -36 165zM284 429q0 -97 36 -167l436 616q-73 54 -178 54q-131 0 -212.5 -95t-81.5 -246v-162zM578 -17q-146 0 -258 77l-100 -141l-95 67l108 153q-101 123 -101 303v166q0 207 126 332.5t320 125.5
q142 0 256 -78l100 141l92 -69l-106 -150q103 -126 103 -302v-166q0 -214 -125 -336.5t-320 -122.5zM497 1221l239 354h161l-278 -354h-122z" />
    <glyph glyph-name="Adblgrave" unicode="&#x200;" horiz-adv-x="1243" 
d="M217 0h-163l490 1365h155l490 -1365h-171l-142 420h-516zM621 1168h-6l-210 -617h426zM547 1514h-122l-278 354h161zM862 1514h-122l-278 354h161z" />
    <glyph glyph-name="adblgrave" unicode="&#x201;" horiz-adv-x="1108" 
d="M465 -17q-153 0 -247.5 89t-94.5 233q0 140 95.5 223.5t271.5 83.5h280v107q0 104 -61 156t-172 52q-182 0 -221 -128h-153q12 132 112.5 199.5t268.5 67.5q82 0 149.5 -19t121.5 -58.5t84 -108t30 -160.5v-720h-152v141h-7q-99 -158 -305 -158zM505 122q113 0 189 68.5
t76 170.5v120h-277q-106 0 -157 -47t-51 -126q0 -91 63.5 -138.5t156.5 -47.5zM360 1221l-287 366h168l243 -366h-124zM670 1221l-287 366h169l242 -366h-124z" />
    <glyph glyph-name="Ainvertedbreve" unicode="&#x202;" horiz-adv-x="1243" 
d="M217 0h-163l490 1365h155l490 -1365h-171l-142 420h-516zM621 1168h-6l-210 -617h426zM622 1656q-92 0 -145.5 -46t-53.5 -108h-115q0 98 83 175t231 77t231 -77t83 -175h-115q0 62 -53.5 108t-145.5 46z" />
    <glyph glyph-name="ainvertedbreve" unicode="&#x203;" horiz-adv-x="1108" 
d="M465 -17q-153 0 -247.5 89t-94.5 233q0 140 95.5 223.5t271.5 83.5h280v107q0 104 -61 156t-172 52q-182 0 -221 -128h-153q12 132 112.5 199.5t268.5 67.5q82 0 149.5 -19t121.5 -58.5t84 -108t30 -160.5v-720h-152v141h-7q-99 -158 -305 -158zM505 122q113 0 189 68.5
t76 170.5v120h-277q-106 0 -157 -47t-51 -126q0 -91 63.5 -138.5t156.5 -47.5zM270 1227q0 46 16.5 91t48.5 85.5t89 65.5t130 25t130 -25t89.5 -65.5t48.5 -85.5t16 -91h-114q0 69 -43 116.5t-127 47.5t-127 -47.5t-43 -116.5h-114z" />
    <glyph glyph-name="Edblgrave" unicode="&#x204;" horiz-adv-x="1147" 
d="M1003 145v-145h-809v1365h809v-145h-650v-450h614v-144h-614v-481h650zM521 1514h-122l-278 354h161zM836 1514h-122l-278 354h161z" />
    <glyph glyph-name="edblgrave" unicode="&#x205;" horiz-adv-x="1112" 
d="M572 -17q-207 0 -323.5 123.5t-116.5 332.5v170q0 206 119 331.5t308 125.5t308 -125.5t119 -331.5v-128h-696v-54q0 -133 73.5 -219t207.5 -86q91 0 154 37t79 89h167q-7 -43 -34.5 -87t-74.5 -85t-123 -67t-167 -26zM290 603h538v19q0 138 -73.5 221.5t-195.5 83.5
t-195.5 -83.5t-73.5 -221.5v-19zM362 1221l-287 366h168l243 -366h-124zM672 1221l-287 366h169l242 -366h-124z" />
    <glyph glyph-name="Einvertedbreve" unicode="&#x206;" horiz-adv-x="1147" 
d="M1003 145v-145h-809v1365h809v-145h-650v-450h614v-144h-614v-481h650zM596 1656q-92 0 -145.5 -46t-53.5 -108h-115q0 98 83 175t231 77t231 -77t83 -175h-115q0 62 -53.5 108t-145.5 46z" />
    <glyph glyph-name="einvertedbreve" unicode="&#x207;" horiz-adv-x="1112" 
d="M572 -17q-207 0 -323.5 123.5t-116.5 332.5v170q0 206 119 331.5t308 125.5t308 -125.5t119 -331.5v-128h-696v-54q0 -133 73.5 -219t207.5 -86q91 0 154 37t79 89h167q-7 -43 -34.5 -87t-74.5 -85t-123 -67t-167 -26zM290 603h538v19q0 138 -73.5 221.5t-195.5 83.5
t-195.5 -83.5t-73.5 -221.5v-19zM272 1227q0 46 16.5 91t48.5 85.5t89 65.5t130 25t130 -25t89.5 -65.5t48.5 -85.5t16 -91h-114q0 69 -43 116.5t-127 47.5t-127 -47.5t-43 -116.5h-114z" />
    <glyph glyph-name="Idblgrave" unicode="&#x208;" horiz-adv-x="547" 
d="M353 0h-159v1365h159v-1365zM199 1514h-122l-278 354h161zM514 1514h-122l-278 354h161z" />
    <glyph glyph-name="idblgrave" unicode="&#x209;" horiz-adv-x="579" 
d="M211 0v1049h157v-1049h-157zM95 1221l-287 366h168l243 -366h-124zM405 1221l-287 366h169l242 -366h-124z" />
    <glyph glyph-name="Iinvertedbreve" unicode="&#x20a;" horiz-adv-x="547" 
d="M353 0h-159v1365h159v-1365zM274 1656q-92 0 -145.5 -46t-53.5 -108h-115q0 98 83 175t231 77t231 -77t83 -175h-115q0 62 -53.5 108t-145.5 46z" />
    <glyph glyph-name="iinvertedbreve" unicode="&#x20b;" horiz-adv-x="579" 
d="M211 0v1049h157v-1049h-157zM5 1227q0 46 16.5 91t48.5 85.5t89 65.5t130 25t130 -25t89.5 -65.5t48.5 -85.5t16 -91h-114q0 69 -43 116.5t-127 47.5t-127 -47.5t-43 -116.5h-114z" />
    <glyph glyph-name="Odblgrave" unicode="&#x20c;" horiz-adv-x="1360" 
d="M299 778v-205q0 -225 105 -341t275 -116q171 0 276.5 116t105.5 341v205q0 227 -106.5 349t-275.5 122q-168 0 -274 -122t-106 -349zM140 573v205q0 288 147 452t394 164t393 -164t146 -452v-205q0 -286 -147 -444t-396 -158q-248 0 -392.5 158t-144.5 444zM605 1514
h-122l-278 354h161zM920 1514h-122l-278 354h161z" />
    <glyph glyph-name="odblgrave" unicode="&#x20d;" horiz-adv-x="1155" 
d="M578 1066q195 0 320 -122.5t125 -335.5v-166q0 -214 -125 -336.5t-320 -122.5q-199 0 -322.5 121.5t-123.5 337.5v166q0 207 126 332.5t320 125.5zM579 927q-131 0 -210.5 -93t-79.5 -244v-132q0 -155 77 -245.5t213 -90.5q135 0 211 90t76 246v132q0 152 -78 244.5
t-209 92.5zM384 1221l-287 366h168l243 -366h-124zM694 1221l-287 366h169l242 -366h-124z" />
    <glyph glyph-name="Oinvertedbreve" unicode="&#x20e;" horiz-adv-x="1360" 
d="M299 778v-205q0 -225 105 -341t275 -116q171 0 276.5 116t105.5 341v205q0 227 -106.5 349t-275.5 122q-168 0 -274 -122t-106 -349zM140 573v205q0 288 147 452t394 164t393 -164t146 -452v-205q0 -286 -147 -444t-396 -158q-248 0 -392.5 158t-144.5 444zM680 1656
q-92 0 -145.5 -46t-53.5 -108h-115q0 98 83 175t231 77t231 -77t83 -175h-115q0 62 -53.5 108t-145.5 46z" />
    <glyph glyph-name="oinvertedbreve" unicode="&#x20f;" horiz-adv-x="1155" 
d="M578 1066q195 0 320 -122.5t125 -335.5v-166q0 -214 -125 -336.5t-320 -122.5q-199 0 -322.5 121.5t-123.5 337.5v166q0 207 126 332.5t320 125.5zM579 927q-131 0 -210.5 -93t-79.5 -244v-132q0 -155 77 -245.5t213 -90.5q135 0 211 90t76 246v132q0 152 -78 244.5
t-209 92.5zM294 1227q0 46 16.5 91t48.5 85.5t89 65.5t130 25t130 -25t89.5 -65.5t48.5 -85.5t16 -91h-114q0 69 -43 116.5t-127 47.5t-127 -47.5t-43 -116.5h-114z" />
    <glyph glyph-name="Rdblgrave" unicode="&#x210;" horiz-adv-x="1259" 
d="M679 1365q109 0 193.5 -33t135.5 -90t77 -128t26 -152q0 -80 -22 -146.5t-60 -111.5t-80.5 -74.5t-92.5 -47.5l279 -582h-183l-254 549h-345v-549h-159v1365h485zM353 694h298q146 0 221 66.5t75 190.5q0 131 -76.5 200t-211.5 69h-306v-526zM515 1514h-122l-278 354h161
zM830 1514h-122l-278 354h161z" />
    <glyph glyph-name="rdblgrave" unicode="&#x211;" horiz-adv-x="787" 
d="M202 0v1049h157v-161h8q12 30 31.5 57.5t53 56.5t87.5 46t122 17q19 0 61 -4v-146q-23 4 -80 4q-136 0 -209.5 -72t-73.5 -184v-663h-157zM249 1221l-287 366h168l243 -366h-124zM559 1221l-287 366h169l242 -366h-124z" />
    <glyph glyph-name="Rinvertedbreve" unicode="&#x212;" horiz-adv-x="1259" 
d="M679 1365q109 0 193.5 -33t135.5 -90t77 -128t26 -152q0 -80 -22 -146.5t-60 -111.5t-80.5 -74.5t-92.5 -47.5l279 -582h-183l-254 549h-345v-549h-159v1365h485zM353 694h298q146 0 221 66.5t75 190.5q0 131 -76.5 200t-211.5 69h-306v-526zM590 1656q-92 0 -145.5 -46
t-53.5 -108h-115q0 98 83 175t231 77t231 -77t83 -175h-115q0 62 -53.5 108t-145.5 46z" />
    <glyph glyph-name="rinvertedbreve" unicode="&#x213;" horiz-adv-x="787" 
d="M202 0v1049h157v-161h8q12 30 31.5 57.5t53 56.5t87.5 46t122 17q19 0 61 -4v-146q-23 4 -80 4q-136 0 -209.5 -72t-73.5 -184v-663h-157zM159 1227q0 46 16.5 91t48.5 85.5t89 65.5t130 25t130 -25t89.5 -65.5t48.5 -85.5t16 -91h-114q0 69 -43 116.5t-127 47.5
t-127 -47.5t-43 -116.5h-114z" />
    <glyph glyph-name="Udblgrave" unicode="&#x214;" horiz-adv-x="1380" 
d="M337 1365v-891q0 -163 95.5 -260.5t257.5 -97.5t257.5 97.5t95.5 260.5v891h159v-891q0 -226 -141.5 -364.5t-370.5 -138.5q-228 0 -370 140.5t-142 366.5v887h159zM615 1514h-122l-278 354h161zM930 1514h-122l-278 354h161z" />
    <glyph glyph-name="udblgrave" unicode="&#x215;" horiz-adv-x="1200" 
d="M1016 1049v-1049h-157v174h-9q-26 -76 -106.5 -133.5t-206.5 -57.5q-168 0 -264.5 80t-96.5 253v733h157v-690q0 -125 65.5 -181t174.5 -56q120 0 203 76.5t83 180.5v670h157zM406 1221l-287 366h168l243 -366h-124zM716 1221l-287 366h169l242 -366h-124z" />
    <glyph glyph-name="Uinvertedbreve" unicode="&#x216;" horiz-adv-x="1380" 
d="M337 1365v-891q0 -163 95.5 -260.5t257.5 -97.5t257.5 97.5t95.5 260.5v891h159v-891q0 -226 -141.5 -364.5t-370.5 -138.5q-228 0 -370 140.5t-142 366.5v887h159zM690 1656q-92 0 -145.5 -46t-53.5 -108h-115q0 98 83 175t231 77t231 -77t83 -175h-115q0 62 -53.5 108
t-145.5 46z" />
    <glyph glyph-name="uinvertedbreve" unicode="&#x217;" horiz-adv-x="1200" 
d="M1016 1049v-1049h-157v174h-9q-26 -76 -106.5 -133.5t-206.5 -57.5q-168 0 -264.5 80t-96.5 253v733h157v-690q0 -125 65.5 -181t174.5 -56q120 0 203 76.5t83 180.5v670h157zM316 1227q0 46 16.5 91t48.5 85.5t89 65.5t130 25t130 -25t89.5 -65.5t48.5 -85.5t16 -91
h-114q0 69 -43 116.5t-127 47.5t-127 -47.5t-43 -116.5h-114z" />
    <glyph glyph-name="Scommaaccent" unicode="&#x218;" horiz-adv-x="1200" 
d="M88 365h161q11 -109 101 -179t244 -70q147 0 234 67t87 182q0 86 -54.5 139.5t-170.5 83.5l-245 65q-63 17 -116.5 44.5t-99.5 69t-72.5 103.5t-26.5 138q0 122 68 212.5t172.5 134t226.5 43.5q87 0 167 -23t147.5 -68.5t109 -121.5t43.5 -173h-160q-10 107 -90 174
t-221 67q-134 0 -217.5 -62t-83.5 -172q0 -159 193 -209l240 -65q172 -46 262.5 -131.5t90.5 -237.5q0 -98 -39.5 -176t-109 -127.5t-160 -75.5t-195.5 -26q-86 0 -159 17t-124.5 46.5t-90.5 67.5t-62.5 83t-35.5 89.5t-14 90.5zM555 -467h-120l81 311h145z" />
    <glyph glyph-name="scommaaccent" unicode="&#x219;" horiz-adv-x="1030" 
d="M131 751q0 79 31.5 141t85.5 99t121.5 56t144.5 19q166 0 267 -80.5t101 -209.5h-148q-5 64 -64 111.5t-163 47.5q-99 0 -160.5 -44t-61.5 -123q0 -96 107 -135q37 -13 150 -34q68 -12 115 -24t98 -34.5t82 -51.5t51 -75.5t20 -106.5q0 -153 -112.5 -238.5t-297.5 -85.5
q-173 0 -279 75.5t-106 212.5h154q24 -158 238 -158q125 0 186.5 49t61.5 126q0 30 -8 53t-28 40.5t-39 29t-55.5 22t-61.5 16t-72 14.5q-51 11 -82.5 18.5t-74 20.5t-68 26.5t-54 35t-44 47t-25.5 61.5t-10 79zM496 -467h-120l81 311h145z" />
    <glyph glyph-name="Tcommaaccent" unicode="&#x21a;" horiz-adv-x="1093" 
d="M626 0h-159v1221h-418v144h995v-144h-418v-1221zM527 -467h-120l81 311h145z" />
    <glyph glyph-name="tcommaaccent" unicode="&#x21b;" horiz-adv-x="754" 
d="M237 1049v264h157v-264h238v-131h-238v-633q0 -96 36.5 -128.5t137.5 -32.5q41 0 81 5v-131q-37 -8 -121 -8q-91 0 -149 17.5t-89 58t-42 92.5t-11 135v625h-160v131h160zM408 -467h-120l81 311h145z" />
    <glyph glyph-name="Hcaron" unicode="&#x21e;" horiz-adv-x="1412" 
d="M1218 0h-159v636h-706v-636h-159v1365h159v-585h706v585h159v-1365zM373 1711h170l161 -124h5l148 124h174l-236 -202h-171z" />
    <glyph glyph-name="hcaron" unicode="&#x21f;" horiz-adv-x="1213" 
d="M187 0v1477h157v-620h8q9 32 30 64t57.5 66.5t99.5 56.5t141 22q159 0 256.5 -89.5t97.5 -258.5v-718h-157v666q0 125 -65 193t-179 68q-139 0 -214 -96.5t-75 -245.5v-585h-157zM-71 1823h170l161 -124h5l148 124h174l-236 -202h-171z" />
    <glyph glyph-name="Adotaccent" unicode="&#x226;" horiz-adv-x="1243" 
d="M217 0h-163l490 1365h155l490 -1365h-171l-142 420h-516zM621 1168h-6l-210 -617h426zM520 1588q0 44 29 73.5t71 29.5q44 0 74 -29.5t30 -73.5q0 -43 -30 -71.5t-74 -28.5q-42 0 -71 29t-29 71z" />
    <glyph glyph-name="adotaccent" unicode="&#x227;" horiz-adv-x="1108" 
d="M465 -17q-153 0 -247.5 89t-94.5 233q0 140 95.5 223.5t271.5 83.5h280v107q0 104 -61 156t-172 52q-182 0 -221 -128h-153q12 132 112.5 199.5t268.5 67.5q82 0 149.5 -19t121.5 -58.5t84 -108t30 -160.5v-720h-152v141h-7q-99 -158 -305 -158zM505 122q113 0 189 68.5
t76 170.5v120h-277q-106 0 -157 -47t-51 -126q0 -91 63.5 -138.5t156.5 -47.5zM452 1342q0 44 29 73.5t71 29.5q44 0 74 -29.5t30 -73.5q0 -43 -30 -71.5t-74 -28.5q-42 0 -71 29t-29 71z" />
    <glyph glyph-name="Ecedilla" unicode="&#x228;" horiz-adv-x="1147" 
d="M529 0h-335v1365h809v-145h-650v-450h614v-144h-614v-481h650v-145h-360l-51 -140q100 0 157.5 -40.5t57.5 -119.5q0 -89 -61 -135.5t-158 -51.5q-82 -4 -151 15v102q47 -14 117 -14q49 0 84 19t35 62q0 17 -5.5 29.5t-19 20t-23.5 11.5t-33 6t-33 2h-37h-52v75z" />
    <glyph glyph-name="ecedilla" unicode="&#x229;" horiz-adv-x="1112" 
d="M290 603h538v19q0 138 -74 222t-195 84t-195 -84t-74 -222v-19zM570 -487q-82 -4 -151 15v102q47 -14 117 -14q49 0 84 19t35 62q0 17 -5.5 29.5t-19 20t-23.5 11.5t-33 6t-33 2h-37h-52v75l54 146q-177 19 -275.5 140t-98.5 312v170q0 206 119 331.5t308 125.5
t308 -125.5t119 -331.5v-128h-696v-53q0 -133 73.5 -219t207.5 -86q91 0 154 36.5t79 88.5h167q-6 -40 -30.5 -81.5t-66 -80.5t-108 -67t-146.5 -34l-46 -125q100 0 157.5 -40.5t57.5 -119.5q0 -89 -61 -135.5t-158 -51.5z" />
    <glyph glyph-name="Odieresismacron" unicode="&#x22a;" horiz-adv-x="1360" 
d="M299 778v-205q0 -225 105 -341t275 -116q171 0 276.5 116t105.5 341v205q0 227 -106.5 349t-275.5 122q-168 0 -274 -122t-106 -349zM140 573v205q0 288 147 452t394 164t393 -164t146 -452v-205q0 -286 -147 -444t-396 -158q-248 0 -392.5 158t-144.5 444zM852 1483
q-42 0 -71.5 28t-29.5 70q0 43 29 71t72 28q46 0 76 -28t30 -71q0 -42 -30 -70t-76 -28zM505 1483q-43 0 -72.5 28t-29.5 70q0 43 29.5 71t72.5 28q45 0 74.5 -28t29.5 -71q0 -42 -29.5 -70t-74.5 -28zM970 1786h-580v104h580v-104z" />
    <glyph glyph-name="odieresismacron" unicode="&#x22b;" horiz-adv-x="1155" 
d="M578 1066q195 0 320 -122.5t125 -335.5v-166q0 -214 -125 -336.5t-320 -122.5q-199 0 -322.5 121.5t-123.5 337.5v166q0 207 126 332.5t320 125.5zM579 927q-131 0 -210.5 -93t-79.5 -244v-132q0 -155 77 -245.5t213 -90.5q135 0 211 90t76 246v132q0 152 -78 244.5
t-209 92.5zM754 1225q-42 0 -72.5 29.5t-30.5 71.5q0 44 30.5 73.5t72.5 29.5q47 0 78.5 -29.5t31.5 -73.5q0 -42 -32 -71.5t-78 -29.5zM399 1225q-44 0 -75 29.5t-31 71.5q0 44 31 73.5t75 29.5q45 0 76 -29.5t31 -73.5q0 -42 -31.5 -71.5t-75.5 -29.5zM872 1601h-588v111
h588v-111z" />
    <glyph glyph-name="Otildemacron" unicode="&#x22c;" horiz-adv-x="1360" 
d="M299 778v-205q0 -225 105 -341t275 -116q171 0 276.5 116t105.5 341v205q0 227 -106.5 349t-275.5 122q-168 0 -274 -122t-106 -349zM140 573v205q0 288 147 452t394 164t393 -164t146 -452v-205q0 -286 -147 -444t-396 -158q-248 0 -392.5 158t-144.5 444zM970 1786
h-580v104h580v-104zM799 1463q-44 0 -81.5 19t-59 42t-48.5 42t-51 19q-20 0 -34.5 -11t-22 -29t-11 -34.5t-4.5 -33.5h-106q0 86 45.5 147t127.5 61q43 0 81 -19t61 -42t50.5 -42t51.5 -19q36 0 56 32.5t22 73.5h106q0 -80 -48.5 -143t-134.5 -63z" />
    <glyph glyph-name="otildemacron" unicode="&#x22d;" horiz-adv-x="1155" 
d="M578 1066q195 0 320 -122.5t125 -335.5v-166q0 -214 -125 -336.5t-320 -122.5q-199 0 -322.5 121.5t-123.5 337.5v166q0 207 126 332.5t320 125.5zM579 927q-131 0 -210.5 -93t-79.5 -244v-132q0 -155 77 -245.5t213 -90.5q135 0 211 90t76 246v132q0 152 -78 244.5
t-209 92.5zM702 1214q-39 0 -69.5 16t-50 39t-36.5 45.5t-38 38.5t-45 16q-21 0 -36 -11.5t-22.5 -33t-10.5 -41.5t-5 -49h-110q0 108 46.5 176.5t136.5 68.5q41 0 74 -16t53 -38.5t37 -45.5t35.5 -39t38.5 -16q61 0 72 135h110q0 -63 -17.5 -116.5t-60 -91t-102.5 -37.5z
M872 1601h-588v111h588v-111z" />
    <glyph glyph-name="Odotaccent" unicode="&#x22e;" horiz-adv-x="1360" 
d="M299 778v-205q0 -225 105 -341t275 -116q171 0 276.5 116t105.5 341v205q0 227 -106.5 349t-275.5 122q-168 0 -274 -122t-106 -349zM140 573v205q0 288 147 452t394 164t393 -164t146 -452v-205q0 -286 -147 -444t-396 -158q-248 0 -392.5 158t-144.5 444zM578 1588
q0 44 29 73.5t71 29.5q44 0 74 -29.5t30 -73.5q0 -43 -30 -71.5t-74 -28.5q-42 0 -71 29t-29 71z" />
    <glyph glyph-name="odotaccent" unicode="&#x22f;" horiz-adv-x="1155" 
d="M578 1066q195 0 320 -122.5t125 -335.5v-166q0 -214 -125 -336.5t-320 -122.5q-199 0 -322.5 121.5t-123.5 337.5v166q0 207 126 332.5t320 125.5zM579 927q-131 0 -210.5 -93t-79.5 -244v-132q0 -155 77 -245.5t213 -90.5q135 0 211 90t76 246v132q0 152 -78 244.5
t-209 92.5zM476 1342q0 44 29 73.5t71 29.5q44 0 74 -29.5t30 -73.5q0 -43 -30 -71.5t-74 -28.5q-42 0 -71 29t-29 71z" />
    <glyph glyph-name="Odotaccentmacron" unicode="&#x230;" horiz-adv-x="1360" 
d="M299 778v-205q0 -225 105 -341t275 -116q171 0 276.5 116t105.5 341v205q0 227 -106.5 349t-275.5 122q-168 0 -274 -122t-106 -349zM140 573v205q0 288 147 452t394 164t393 -164t146 -452v-205q0 -286 -147 -444t-396 -158q-248 0 -392.5 158t-144.5 444zM578 1588
q0 44 29 73.5t71 29.5q44 0 74 -29.5t30 -73.5q0 -43 -30 -71.5t-74 -28.5q-42 0 -71 29t-29 71zM970 1775h-580v104h580v-104z" />
    <glyph glyph-name="odotaccentmacron" unicode="&#x231;" horiz-adv-x="1155" 
d="M578 1066q195 0 320 -122.5t125 -335.5v-166q0 -214 -125 -336.5t-320 -122.5q-199 0 -322.5 121.5t-123.5 337.5v166q0 207 126 332.5t320 125.5zM579 927q-131 0 -210.5 -93t-79.5 -244v-132q0 -155 77 -245.5t213 -90.5q135 0 211 90t76 246v132q0 152 -78 244.5
t-209 92.5zM476 1342q0 44 29 73.5t71 29.5q44 0 74 -29.5t30 -73.5q0 -43 -30 -71.5t-74 -28.5q-42 0 -71 29t-29 71zM872 1601h-588v111h588v-111z" />
    <glyph glyph-name="Ymacron" unicode="&#x232;" horiz-adv-x="1131" 
d="M645 0h-159v599l-456 766h183l348 -610h9l348 610h183l-456 -766v-599zM856 1515h-580v104h580v-104z" />
    <glyph glyph-name="ymacron" unicode="&#x233;" horiz-adv-x="1080" 
d="M1000 1049l-379 -1060l-27 -73q-20 -54 -36.5 -90.5t-45.5 -80t-62 -69.5t-83 -43.5t-111 -17.5q-49 0 -101 8v133q27 -5 76 -5q89 0 136 42.5t72 129.5l17 60l-391 1066h175l293 -886h7l293 886h167zM834 1252h-588v111h588v-111z" />
    <glyph glyph-name="circumflex" unicode="&#x2c6;" horiz-adv-x="1000" 
d="M201 1221l249 382h100l249 -382h-138l-159 263h-4l-159 -263h-138z" />
    <glyph glyph-name="caron" unicode="&#x2c7;" horiz-adv-x="1000" 
d="M196 1599h138l159 -273h3l152 273h137l-239 -382h-101z" />
    <glyph glyph-name="breve" unicode="&#x2d8;" horiz-adv-x="1000" 
d="M220 1484h114q0 -69 43 -116.5t127 -47.5t127 47.5t43 116.5h114q0 -46 -16.5 -91t-48.5 -85.5t-89 -65.5t-130 -25t-130 25t-89.5 65.5t-48.5 85.5t-16 91z" />
    <glyph glyph-name="dotaccent" unicode="&#x2d9;" horiz-adv-x="1000" 
d="M398 1342q0 44 29 73.5t71 29.5q44 0 74 -29.5t30 -73.5q0 -43 -30 -71.5t-74 -28.5q-42 0 -71 29t-29 71z" />
    <glyph glyph-name="ring" unicode="&#x2da;" horiz-adv-x="1000" 
d="M487 1231q-78 0 -132 52.5t-54 129.5t54 129.5t132 52.5t132 -52.5t54 -129.5t-54 -129.5t-132 -52.5zM384 1413q0 -44 30 -74.5t73 -30.5t72.5 30.5t29.5 74.5t-29.5 74t-72.5 30t-73 -30t-30 -74z" />
    <glyph glyph-name="ogonek" unicode="&#x2db;" horiz-adv-x="1000" 
d="M668 -250v-115q-40 -20 -126 -20q-84 0 -143 45.5t-59 136.5q0 46 23 95t51 81.5l58 67.5t38 52h109q-3 -3 -19 -23.5l-23 -29.5l-22.5 -30t-24 -34.5t-20.5 -34.5t-18 -36.5t-10.5 -34.5t-4.5 -35q0 -46 29.5 -70t75.5 -24t86 9z" />
    <glyph glyph-name="tilde" unicode="&#x2dc;" horiz-adv-x="1000" 
d="M614 1214q-39 0 -69.5 16t-50 39t-36.5 45.5t-38 38.5t-45 16q-21 0 -36 -11.5t-22.5 -33t-10.5 -41.5t-5 -49h-110q0 108 46.5 176.5t136.5 68.5q41 0 74 -16t53 -38.5t37 -45.5t35.5 -39t38.5 -16q61 0 72 135h110q0 -63 -17.5 -116.5t-60 -91t-102.5 -37.5z" />
    <glyph glyph-name="hungarumlaut" unicode="&#x2dd;" horiz-adv-x="1000" 
d="M281 1221h-124l243 366h168zM595 1221h-123l243 366h168z" />
    <glyph glyph-name="gravecmb" unicode="&#x300;" 
d="M81 1221h-122l-278 354h161z" />
    <glyph glyph-name="acutecmb" unicode="&#x301;" 
d="M-81 1221l239 354h161l-278 -354h-122z" />
    <glyph glyph-name="circumflexcmb" unicode="&#x302;" 
d="M-299 1221l249 382h100l249 -382h-138l-159 263h-4l-159 -263h-138z" />
    <glyph glyph-name="tildecmb" unicode="&#x303;" 
d="M124 1214q-39 0 -69.5 16t-50 39t-36.5 45.5t-38 38.5t-45 16q-21 0 -36 -11.5t-22.5 -33t-10.5 -41.5t-5 -49h-110q0 108 46.5 176.5t136.5 68.5q41 0 74 -16t53 -38.5t37 -45.5t35.5 -39t38.5 -16q61 0 72 135h110q0 -63 -17.5 -116.5t-60 -91t-102.5 -37.5z" />
    <glyph glyph-name="macroncmb" unicode="&#x304;" 
d="M294 1252h-588v111h588v-111z" />
    <glyph glyph-name="brevecmb" unicode="&#x306;" 
d="M-284 1484h114q0 -69 43 -116.5t127 -47.5t127 47.5t43 116.5h114q0 -46 -16.5 -91t-48.5 -85.5t-89 -65.5t-130 -25t-130 25t-89.5 65.5t-48.5 85.5t-16 91z" />
    <glyph glyph-name="dotaccentcmb" unicode="&#x307;" 
d="M-102 1342q0 44 29 73.5t71 29.5q44 0 74 -29.5t30 -73.5q0 -43 -30 -71.5t-74 -28.5q-42 0 -71 29t-29 71z" />
    <glyph glyph-name="dieresiscmb" unicode="&#x308;" 
d="M176 1225q-42 0 -72.5 29.5t-30.5 71.5q0 44 30.5 73.5t72.5 29.5q47 0 78.5 -29.5t31.5 -73.5q0 -42 -32 -71.5t-78 -29.5zM-179 1225q-44 0 -75 29.5t-31 71.5q0 44 31 73.5t75 29.5q45 0 76 -29.5t31 -73.5q0 -42 -31.5 -71.5t-75.5 -29.5z" />
    <glyph glyph-name="hookabovecmb" unicode="&#x309;" 
d="M-139 1444v98q45 17 106 17q96 0 153 -47t57 -131q0 -68 -40 -112t-114 -85l-61 82q54 30 76.5 56t22.5 56q0 36 -29.5 58.5t-73.5 22.5q-52 0 -97 -15z" />
    <glyph glyph-name="ringcmb" unicode="&#x30a;" 
d="M0 1231q-78 0 -132 52.5t-54 129.5t54 129.5t132 52.5t132 -52.5t54 -129.5t-54 -129.5t-132 -52.5zM-103 1413q0 -44 30 -74.5t73 -30.5t72.5 30.5t29.5 74.5t-29.5 74t-72.5 30t-73 -30t-30 -74z" />
    <glyph glyph-name="hungarumlautcmb" unicode="&#x30b;" 
d="M-115 1221h-124l243 366h168zM199 1221h-123l243 366h168z" />
    <glyph glyph-name="caroncmb" unicode="&#x30c;" 
d="M-298 1599h138l159 -273h3l152 273h137l-239 -382h-101z" />
    <glyph glyph-name="dblgravecmb" unicode="&#x30f;" 
d="M-194 1221l-287 366h168l243 -366h-124zM116 1221l-287 366h169l242 -366h-124z" />
    <glyph glyph-name="invertedbrevecmb" unicode="&#x311;" 
d="M-284 1227q0 46 16.5 91t48.5 85.5t89 65.5t130 25t130 -25t89.5 -65.5t48.5 -85.5t16 -91h-114q0 69 -43 116.5t-127 47.5t-127 -47.5t-43 -116.5h-114z" />
    <glyph glyph-name="horncmb" unicode="&#x31b;" 
d="M0 966v145q38 -41 103 -41q77 0 107 41.5t30 119.5v156h143v-154q0 -47 -8 -89.5t-27 -82t-47 -67.5t-70 -45t-95 -17q-90 0 -136 34z" />
    <glyph glyph-name="dotbelowcmb" unicode="&#x323;" 
d="M-104 -250q0 45 29 73t75 28t75 -28t29 -73t-29 -72t-75 -27t-75 27t-29 72z" />
    <glyph glyph-name="dieresisbelowcmb" unicode="&#x324;" 
d="M176 -402q-42 0 -72.5 29.5t-30.5 71.5q0 44 30.5 73.5t72.5 29.5q47 0 78.5 -29.5t31.5 -73.5q0 -42 -32 -71.5t-78 -29.5zM-179 -402q-44 0 -75 29.5t-31 71.5q0 44 31 73.5t75 29.5q45 0 76 -29.5t31 -73.5q0 -42 -31.5 -71.5t-75.5 -29.5z" />
    <glyph glyph-name="ringbelowcmb" unicode="&#x325;" 
d="M0 -460q-78 0 -132 52.5t-54 129.5t54 129.5t132 52.5t132 -52.5t54 -129.5t-54 -129.5t-132 -52.5zM-103 -278q0 -44 30 -74.5t73 -30.5t72.5 30.5t29.5 74.5t-29.5 74t-72.5 30t-73 -30t-30 -74z" />
    <glyph glyph-name="commabelowcmb" unicode="&#x326;" 
d="M-19 -467h-120l81 311h145z" />
    <glyph glyph-name="cedillacmb" unicode="&#x327;" 
d="M-110 -234v75l63 169h114l-55 -150q100 0 157.5 -40.5t57.5 -119.5q0 -89 -61 -135.5t-158 -51.5q-82 -4 -151 15v102q47 -14 117 -14q49 0 84 19t35 62q0 17 -5.5 29.5t-19 20t-23.5 11.5t-33 6t-33 2h-37h-52z" />
    <glyph glyph-name="ogonekcmb" unicode="&#x328;" 
d="M144 -250v-115q-40 -20 -126 -20q-84 0 -143 45.5t-59 136.5q0 46 23 95t51 81.5l58 67.5t38 52h109q-3 -3 -19 -23.5l-23 -29.5l-22.5 -30t-24 -34.5t-20.5 -34.5t-18 -36.5t-10.5 -34.5t-4.5 -35q0 -46 29.5 -70t75.5 -24t86 9z" />
    <glyph glyph-name="circumflexbelowcmb" unicode="&#x32d;" 
d="M-329 -394l282 244h99l271 -244h-163l-158 144h-5l-167 -144h-159z" />
    <glyph glyph-name="brevebelowcmb" unicode="&#x32e;" 
d="M-303 -143q0 -48 17.5 -93.5t52 -85.5t95 -64t138.5 -24q63 0 114 16.5t84 43.5t55 62.5t31.5 71.5t9.5 73h-115q0 -68 -46 -116t-133 -48t-133 48t-46 116h-124z" />
    <glyph glyph-name="tildebelowcmb" unicode="&#x330;" 
d="M119 -374q-44 0 -81.5 19t-59 42t-48.5 42t-51 19q-20 0 -34.5 -11t-22 -29t-11 -34.5t-4.5 -33.5h-106q0 86 45.5 147t127.5 61q43 0 81 -19t61 -42t50.5 -42t51.5 -19q36 0 56 32.5t22 73.5h106q0 -80 -48.5 -143t-134.5 -63z" />
    <glyph glyph-name="macronbelowcmb" unicode="&#x331;" 
d="M294 -321h-588v111h588v-111z" />
    <glyph glyph-name="Delta" unicode="&#x394;" horiz-adv-x="1243" 
d="M54 0l490 1365h155l490 -1365h-1135zM615 1168l-348 -1024h701l-347 1024h-6z" />
    <glyph glyph-name="Omega" unicode="&#x3a9;" horiz-adv-x="1360" 
d="M782 0v155q118 36 198 171t80 317v175q0 114 -29 199t-81.5 134.5t-120 73.5t-151.5 24q-83 0 -150.5 -24t-120 -73.5t-81.5 -134.5t-29 -199v-175q0 -177 76.5 -310.5t188.5 -173.5v-159h-438v139h235v18q-96 41 -158 174.5t-62 311.5v175q0 284 145 430t396 146
t395 -146t144 -430v-175q0 -176 -67 -309t-165 -177v-22h249v-135h-454z" />
    <glyph glyph-name="mu" unicode="&#x3bc;" horiz-adv-x="1200" 
d="M322 62h-9l20 -397h-157v1384h157v-693q0 -125 65.5 -181t174.5 -56q120 0 203 76.5t83 180.5v673h157v-839q0 -43 23 -66.5t66 -23.5q33 0 57 6v-126q-49 -12 -119 -12q-72 0 -124.5 44t-57.5 113l-2 29h-9q-26 -76 -106.5 -133.5t-206.5 -57.5q-63 0 -124.5 21
t-90.5 58z" />
    <glyph glyph-name="pi" unicode="&#x3c0;" horiz-adv-x="1306" 
d="M1162 0q-44 -10 -102 -10q-87 0 -144.5 49.5t-57.5 134.5v741h-395v-915h-157v915h-229v134h1155v-134h-217v-705q0 -43 23.5 -66.5t66.5 -23.5q33 0 57 6v-126z" />
    <glyph glyph-name="Aringbelow" unicode="&#x1e00;" horiz-adv-x="1243" 
d="M217 0h-163l490 1365h155l490 -1365h-171l-142 420h-516zM621 1168h-6l-210 -617h426zM622 -460q-78 0 -132 52.5t-54 129.5t54 129.5t132 52.5t132 -52.5t54 -129.5t-54 -129.5t-132 -52.5zM519 -278q0 -44 30 -74.5t73 -30.5t72.5 30.5t29.5 74.5t-29.5 74t-72.5 30
t-73 -30t-30 -74z" />
    <glyph glyph-name="aringbelow" unicode="&#x1e01;" horiz-adv-x="1108" 
d="M465 -17q-153 0 -247.5 89t-94.5 233q0 140 95.5 223.5t271.5 83.5h280v107q0 104 -61 156t-172 52q-182 0 -221 -128h-153q12 132 112.5 199.5t268.5 67.5q82 0 149.5 -19t121.5 -58.5t84 -108t30 -160.5v-720h-152v141h-7q-99 -158 -305 -158zM505 122q113 0 189 68.5
t76 170.5v120h-277q-106 0 -157 -47t-51 -126q0 -91 63.5 -138.5t156.5 -47.5zM554 -460q-78 0 -132 52.5t-54 129.5t54 129.5t132 52.5t132 -52.5t54 -129.5t-54 -129.5t-132 -52.5zM451 -278q0 -44 30 -74.5t73 -30.5t72.5 30.5t29.5 74.5t-29.5 74t-72.5 30t-73 -30
t-30 -74z" />
    <glyph glyph-name="Bdotaccent" unicode="&#x1e02;" horiz-adv-x="1270" 
d="M194 0v1365h503q170 0 272.5 -89.5t102.5 -246.5q0 -119 -57.5 -194.5t-158.5 -107.5v-7q143 -20 219 -110t76 -228q0 -183 -130 -282.5t-347 -99.5h-480zM353 1220v-446h214q174 0 258.5 53.5t84.5 174.5q0 110 -65 164t-171 54h-321zM353 630v-485h243q73 0 127 5
t106.5 20t85.5 40t53 67.5t20 100.5q0 124 -79.5 188t-214.5 64h-341zM489 1588q0 44 29 73.5t71 29.5q44 0 74 -29.5t30 -73.5q0 -43 -30 -71.5t-74 -28.5q-42 0 -71 29t-29 71z" />
    <glyph glyph-name="bdotaccent" unicode="&#x1e03;" horiz-adv-x="1198" 
d="M655 -17q-122 0 -201 49t-112 122h-8v-154h-149v1477h157v-594h8q21 73 102 128t209 55q184 0 294.5 -119.5t110.5 -325.5v-192q0 -207 -112 -326.5t-299 -119.5zM635 122q126 0 200 86.5t74 254.5v117q0 167 -73.5 257t-205.5 90q-133 0 -210.5 -87.5t-77.5 -233.5v-186
q0 -128 81.5 -213t211.5 -85zM160 1700q0 44 29 73.5t71 29.5q44 0 74 -29.5t30 -73.5q0 -43 -30 -71.5t-74 -28.5q-42 0 -71 29t-29 71z" />
    <glyph glyph-name="Bdotbelow" unicode="&#x1e04;" horiz-adv-x="1270" 
d="M194 0v1365h503q170 0 272.5 -89.5t102.5 -246.5q0 -119 -57.5 -194.5t-158.5 -107.5v-7q143 -20 219 -110t76 -228q0 -183 -130 -282.5t-347 -99.5h-480zM353 1220v-446h214q174 0 258.5 53.5t84.5 174.5q0 110 -65 164t-171 54h-321zM353 630v-485h243q73 0 127 5
t106.5 20t85.5 40t53 67.5t20 100.5q0 124 -79.5 188t-214.5 64h-341zM487 -250q0 45 29 73t75 28t75 -28t29 -73t-29 -72t-75 -27t-75 27t-29 72z" />
    <glyph glyph-name="bdotbelow" unicode="&#x1e05;" horiz-adv-x="1198" 
d="M655 -17q-122 0 -201 49t-112 122h-8v-154h-149v1477h157v-594h8q21 73 102 128t209 55q184 0 294.5 -119.5t110.5 -325.5v-192q0 -207 -112 -326.5t-299 -119.5zM635 122q126 0 200 86.5t74 254.5v117q0 167 -73.5 257t-205.5 90q-133 0 -210.5 -87.5t-77.5 -233.5v-186
q0 -128 81.5 -213t211.5 -85zM495 -250q0 45 29 73t75 28t75 -28t29 -73t-29 -72t-75 -27t-75 27t-29 72z" />
    <glyph glyph-name="Blinebelow" unicode="&#x1e06;" horiz-adv-x="1270" 
d="M194 0v1365h503q170 0 272.5 -89.5t102.5 -246.5q0 -119 -57.5 -194.5t-158.5 -107.5v-7q143 -20 219 -110t76 -228q0 -183 -130 -282.5t-347 -99.5h-480zM353 1220v-446h214q174 0 258.5 53.5t84.5 174.5q0 110 -65 164t-171 54h-321zM353 630v-485h243q73 0 127 5
t106.5 20t85.5 40t53 67.5t20 100.5q0 124 -79.5 188t-214.5 64h-341zM885 -321h-588v111h588v-111z" />
    <glyph glyph-name="blinebelow" unicode="&#x1e07;" horiz-adv-x="1198" 
d="M655 -17q-122 0 -201 49t-112 122h-8v-154h-149v1477h157v-594h8q21 73 102 128t209 55q184 0 294.5 -119.5t110.5 -325.5v-192q0 -207 -112 -326.5t-299 -119.5zM635 122q126 0 200 86.5t74 254.5v117q0 167 -73.5 257t-205.5 90q-133 0 -210.5 -87.5t-77.5 -233.5v-186
q0 -128 81.5 -213t211.5 -85zM893 -321h-588v111h588v-111z" />
    <glyph glyph-name="Ccedillaacute" unicode="&#x1e08;" horiz-adv-x="1297" 
d="M663 -487q-82 -4 -151 15v102q47 -14 117 -14q49 0 84 19t35 62q0 17 -5.5 29.5t-19 20t-23.5 11.5t-33 6t-33 2h-37h-52v75l50 134q-214 22 -334.5 176t-120.5 425v205q0 289 143.5 451t386.5 162q97 0 179.5 -26.5t140 -71.5t98 -104t60 -124t19.5 -131h-158
q0 122 -91.5 217t-247.5 95q-169 0 -270 -121t-101 -350v-200q0 -231 100 -346t276 -115q158 0 246 82.5t88 203.5h158q0 -55 -16.5 -111.5t-53 -112t-89 -99.5t-130 -73.5t-170.5 -34.5l-41 -112q100 0 157.5 -40.5t57.5 -119.5q0 -89 -61 -135.5t-158 -51.5zM588 1514
l239 354h161l-278 -354h-122z" />
    <glyph glyph-name="ccedillaacute" unicode="&#x1e09;" horiz-adv-x="1076" 
d="M579 -487q-82 -4 -151 15v102q47 -14 117 -14q49 0 84 19t35 62q0 17 -5.5 29.5t-19 20t-23.5 11.5t-33 6t-33 2h-37h-52v75l53 144q-178 15 -280 135t-102 314v184q0 204 116 326t314 122q93 0 169.5 -27t123.5 -72t73 -98.5t28 -109.5h-157q-5 27 -18 52t-38 53.5
t-71.5 46t-107.5 17.5q-134 0 -205 -85.5t-71 -231.5v-179q0 -140 74 -221t202 -81q205 0 243 147h157q-5 -107 -90.5 -191t-244.5 -100l-46 -126q100 0 157.5 -40.5t57.5 -119.5q0 -89 -61 -135.5t-158 -51.5zM457 1221l239 354h161l-278 -354h-122z" />
    <glyph glyph-name="Ddotaccent" unicode="&#x1e0a;" horiz-adv-x="1339" 
d="M194 1365h428q161 0 278 -50t186 -143t101.5 -214.5t32.5 -275.5q0 -120 -19 -220t-63 -187t-112 -147t-170.5 -94t-233.5 -34h-428v1365zM353 1221v-1076h263q439 0 439 537q0 539 -439 539h-263zM518 1588q0 44 29 73.5t71 29.5q44 0 74 -29.5t30 -73.5
q0 -43 -30 -71.5t-74 -28.5q-42 0 -71 29t-29 71z" />
    <glyph glyph-name="ddotaccent" unicode="&#x1e0b;" horiz-adv-x="1200" 
d="M543 1067q121 0 198.5 -49.5t106.5 -121.5h8v581h157v-1477h-149v167h-8q-20 -72 -105 -127.5t-213 -55.5q-183 0 -294.5 117.5t-111.5 314.5v218q0 194 112 313.5t299 119.5zM564 928q-128 0 -201.5 -88t-73.5 -245v-137q0 -159 75 -247t206 -88t208.5 85.5t77.5 230.5
v196q0 127 -82 210t-210 83zM834 1700q0 44 29 73.5t71 29.5q44 0 74 -29.5t30 -73.5q0 -43 -30 -71.5t-74 -28.5q-42 0 -71 29t-29 71z" />
    <glyph glyph-name="Ddotbelow" unicode="&#x1e0c;" horiz-adv-x="1339" 
d="M194 1365h428q161 0 278 -50t186 -143t101.5 -214.5t32.5 -275.5q0 -120 -19 -220t-63 -187t-112 -147t-170.5 -94t-233.5 -34h-428v1365zM353 1221v-1076h263q439 0 439 537q0 539 -439 539h-263zM516 -250q0 45 29 73t75 28t75 -28t29 -73t-29 -72t-75 -27t-75 27
t-29 72z" />
    <glyph glyph-name="ddotbelow" unicode="&#x1e0d;" horiz-adv-x="1200" 
d="M543 1067q121 0 198.5 -49.5t106.5 -121.5h8v581h157v-1477h-149v167h-8q-20 -72 -105 -127.5t-213 -55.5q-183 0 -294.5 117.5t-111.5 314.5v218q0 194 112 313.5t299 119.5zM564 928q-128 0 -201.5 -88t-73.5 -245v-137q0 -159 75 -247t206 -88t208.5 85.5t77.5 230.5
v196q0 127 -82 210t-210 83zM495 -250q0 45 29 73t75 28t75 -28t29 -73t-29 -72t-75 -27t-75 27t-29 72z" />
    <glyph glyph-name="Dlinebelow" unicode="&#x1e0e;" horiz-adv-x="1339" 
d="M194 1365h428q161 0 278 -50t186 -143t101.5 -214.5t32.5 -275.5q0 -120 -19 -220t-63 -187t-112 -147t-170.5 -94t-233.5 -34h-428v1365zM353 1221v-1076h263q439 0 439 537q0 539 -439 539h-263zM914 -321h-588v111h588v-111z" />
    <glyph glyph-name="dlinebelow" unicode="&#x1e0f;" horiz-adv-x="1200" 
d="M543 1067q121 0 198.5 -49.5t106.5 -121.5h8v581h157v-1477h-149v167h-8q-20 -72 -105 -127.5t-213 -55.5q-183 0 -294.5 117.5t-111.5 314.5v218q0 194 112 313.5t299 119.5zM564 928q-128 0 -201.5 -88t-73.5 -245v-137q0 -159 75 -247t206 -88t208.5 85.5t77.5 230.5
v196q0 127 -82 210t-210 83zM893 -321h-588v111h588v-111z" />
    <glyph glyph-name="Dcommaaccent" unicode="&#x1e10;" horiz-adv-x="1339" 
d="M194 1365h428q161 0 278 -50t186 -143t101.5 -214.5t32.5 -275.5q0 -120 -19 -220t-63 -187t-112 -147t-170.5 -94t-233.5 -34h-428v1365zM353 1221v-1076h263q439 0 439 537q0 539 -439 539h-263zM601 -467h-120l81 311h145z" />
    <glyph glyph-name="dcommaaccent" unicode="&#x1e11;" horiz-adv-x="1200" 
d="M543 1067q121 0 198.5 -49.5t106.5 -121.5h8v581h157v-1477h-149v167h-8q-20 -72 -105 -127.5t-213 -55.5q-183 0 -294.5 117.5t-111.5 314.5v218q0 194 112 313.5t299 119.5zM564 928q-128 0 -201.5 -88t-73.5 -245v-137q0 -159 75 -247t206 -88t208.5 85.5t77.5 230.5
v196q0 127 -82 210t-210 83zM580 -467h-120l81 311h145z" />
    <glyph glyph-name="Dcircumflexbelow" unicode="&#x1e12;" horiz-adv-x="1339" 
d="M194 1365h428q161 0 278 -50t186 -143t101.5 -214.5t32.5 -275.5q0 -120 -19 -220t-63 -187t-112 -147t-170.5 -94t-233.5 -34h-428v1365zM353 1221v-1076h263q439 0 439 537q0 539 -439 539h-263zM291 -394l282 244h99l271 -244h-163l-158 144h-5l-167 -144h-159z" />
    <glyph glyph-name="dcircumflexbelow" unicode="&#x1e13;" horiz-adv-x="1200" 
d="M543 1067q121 0 198.5 -49.5t106.5 -121.5h8v581h157v-1477h-149v167h-8q-20 -72 -105 -127.5t-213 -55.5q-183 0 -294.5 117.5t-111.5 314.5v218q0 194 112 313.5t299 119.5zM564 928q-128 0 -201.5 -88t-73.5 -245v-137q0 -159 75 -247t206 -88t208.5 85.5t77.5 230.5
v196q0 127 -82 210t-210 83zM270 -394l282 244h99l271 -244h-163l-158 144h-5l-167 -144h-159z" />
    <glyph glyph-name="Emacrongrave" unicode="&#x1e14;" horiz-adv-x="1147" 
d="M1003 145v-145h-809v1365h809v-145h-650v-450h614v-144h-614v-481h650zM682 1734h-151l-285 196h189zM886 1515h-580v104h580v-104z" />
    <glyph glyph-name="emacrongrave" unicode="&#x1e15;" horiz-adv-x="1112" 
d="M572 -17q-207 0 -323.5 123.5t-116.5 332.5v170q0 206 119 331.5t308 125.5t308 -125.5t119 -331.5v-128h-696v-54q0 -133 73.5 -219t207.5 -86q91 0 154 37t79 89h167q-7 -43 -34.5 -87t-74.5 -85t-123 -67t-167 -26zM290 603h538v19q0 138 -73.5 221.5t-195.5 83.5
t-195.5 -83.5t-73.5 -221.5v-19zM850 1252h-588v111h588v-111zM637 1528h-122l-278 354h161z" />
    <glyph glyph-name="Emacronacute" unicode="&#x1e16;" horiz-adv-x="1147" 
d="M1003 145v-145h-809v1365h809v-145h-650v-450h614v-144h-614v-481h650zM510 1734l247 196h189l-285 -196h-151zM886 1515h-580v104h580v-104z" />
    <glyph glyph-name="emacronacute" unicode="&#x1e17;" horiz-adv-x="1112" 
d="M572 -17q-207 0 -323.5 123.5t-116.5 332.5v170q0 206 119 331.5t308 125.5t308 -125.5t119 -331.5v-128h-696v-54q0 -133 73.5 -219t207.5 -86q91 0 154 37t79 89h167q-7 -43 -34.5 -87t-74.5 -85t-123 -67t-167 -26zM290 603h538v19q0 138 -73.5 221.5t-195.5 83.5
t-195.5 -83.5t-73.5 -221.5v-19zM850 1252h-588v111h588v-111zM475 1528l239 354h161l-278 -354h-122z" />
    <glyph glyph-name="Ecircumflexbelow" unicode="&#x1e18;" horiz-adv-x="1147" 
d="M1003 145v-145h-809v1365h809v-145h-650v-450h614v-144h-614v-481h650zM267 -394l282 244h99l271 -244h-163l-158 144h-5l-167 -144h-159z" />
    <glyph glyph-name="ecircumflexbelow" unicode="&#x1e19;" horiz-adv-x="1112" 
d="M572 -17q-207 0 -323.5 123.5t-116.5 332.5v170q0 206 119 331.5t308 125.5t308 -125.5t119 -331.5v-128h-696v-54q0 -133 73.5 -219t207.5 -86q91 0 154 37t79 89h167q-7 -43 -34.5 -87t-74.5 -85t-123 -67t-167 -26zM290 603h538v19q0 138 -73.5 221.5t-195.5 83.5
t-195.5 -83.5t-73.5 -221.5v-19zM227 -394l282 244h99l271 -244h-163l-158 144h-5l-167 -144h-159z" />
    <glyph glyph-name="Etildebelow" unicode="&#x1e1a;" horiz-adv-x="1147" 
d="M1003 145v-145h-809v1365h809v-145h-650v-450h614v-144h-614v-481h650zM715 -374q-44 0 -81.5 19t-59 42t-48.5 42t-51 19q-20 0 -34.5 -11t-22 -29t-11 -34.5t-4.5 -33.5h-106q0 86 45.5 147t127.5 61q43 0 81 -19t61 -42t50.5 -42t51.5 -19q36 0 56 32.5t22 73.5h106
q0 -80 -48.5 -143t-134.5 -63z" />
    <glyph glyph-name="etildebelow" unicode="&#x1e1b;" horiz-adv-x="1112" 
d="M572 -17q-207 0 -323.5 123.5t-116.5 332.5v170q0 206 119 331.5t308 125.5t308 -125.5t119 -331.5v-128h-696v-54q0 -133 73.5 -219t207.5 -86q91 0 154 37t79 89h167q-7 -43 -34.5 -87t-74.5 -85t-123 -67t-167 -26zM290 603h538v19q0 138 -73.5 221.5t-195.5 83.5
t-195.5 -83.5t-73.5 -221.5v-19zM675 -374q-44 0 -81.5 19t-59 42t-48.5 42t-51 19q-20 0 -34.5 -11t-22 -29t-11 -34.5t-4.5 -33.5h-106q0 86 45.5 147t127.5 61q43 0 81 -19t61 -42t50.5 -42t51.5 -19q36 0 56 32.5t22 73.5h106q0 -80 -48.5 -143t-134.5 -63z" />
    <glyph glyph-name="Ecedillabreve" unicode="&#x1e1c;" horiz-adv-x="1147" 
d="M529 0h-335v1365h809v-145h-650v-450h614v-144h-614v-481h650v-145h-360l-51 -140q100 0 157.5 -40.5t57.5 -119.5q0 -89 -61 -135.5t-158 -51.5q-82 -4 -151 15v102q47 -14 117 -14q49 0 84 19t35 62q0 17 -5.5 29.5t-19 20t-23.5 11.5t-33 6t-33 2h-37h-52v75z
M276 1746h117q0 -74 52 -119t151 -45t151 45t52 119h117q0 -110 -82.5 -184.5t-237.5 -74.5t-237.5 74.5t-82.5 184.5z" />
    <glyph glyph-name="ecedillabreve" unicode="&#x1e1d;" horiz-adv-x="1112" 
d="M290 603h538v19q0 138 -74 222t-195 84t-195 -84t-74 -222v-19zM570 -487q-82 -4 -151 15v102q47 -14 117 -14q49 0 84 19t35 62q0 17 -5.5 29.5t-19 20t-23.5 11.5t-33 6t-33 2h-37h-52v75l54 146q-177 19 -275.5 140t-98.5 312v170q0 206 119 331.5t308 125.5
t308 -125.5t119 -331.5v-128h-696v-53q0 -133 73.5 -219t207.5 -86q91 0 154 36.5t79 88.5h167q-6 -40 -30.5 -81.5t-66 -80.5t-108 -67t-146.5 -34l-46 -125q100 0 157.5 -40.5t57.5 -119.5q0 -89 -61 -135.5t-158 -51.5zM272 1484h114q0 -69 43 -116.5t127 -47.5t127 47.5
t43 116.5h114q0 -46 -16.5 -91t-48.5 -85.5t-89 -65.5t-130 -25t-130 25t-89.5 65.5t-48.5 85.5t-16 91z" />
    <glyph glyph-name="Fdotaccent" unicode="&#x1e1e;" horiz-adv-x="1077" 
d="M353 0h-159v1365h796v-145h-637v-478h585v-145h-585v-597zM494 1588q0 44 29 73.5t71 29.5q44 0 74 -29.5t30 -73.5q0 -43 -30 -71.5t-74 -28.5q-42 0 -71 29t-29 71z" />
    <glyph glyph-name="fdotaccent" unicode="&#x1e1f;" horiz-adv-x="790" 
d="M273 0v918h-178v131h178v105q0 151 76 222t244 71q58 0 112 -6v-133q-32 4 -93 4q-99 0 -140.5 -36.5t-41.5 -133.5v-93h245v-131h-245v-918h-157zM293 1672q0 44 29 73.5t71 29.5q44 0 74 -29.5t30 -73.5q0 -43 -30 -71.5t-74 -28.5q-42 0 -71 29t-29 71z" />
    <glyph glyph-name="Gmacron" unicode="&#x1e20;" horiz-adv-x="1322" 
d="M1178 953h-158q-19 147 -114 221.5t-229 74.5q-79 0 -145.5 -27t-119.5 -81.5t-83 -146.5t-30 -213v-190q0 -225 96 -350t277 -125q154 0 254 86.5t100 221.5v140h-364v144h520v-284q0 -55 -15.5 -113.5t-53 -120.5t-93.5 -109.5t-145.5 -78.5t-199.5 -31
q-261 0 -398 164t-137 456v190q0 289 147.5 451t393.5 162q222 0 352.5 -127t144.5 -314zM971 1515h-580v104h580v-104z" />
    <glyph glyph-name="gmacron" unicode="&#x1e21;" horiz-adv-x="1161" 
d="M550 -255q143 0 216.5 73t73.5 204v161h-9q-33 -71 -112 -117.5t-183 -46.5q-117 0 -211.5 51.5t-151 151t-56.5 231.5v177q0 198 119.5 317t298.5 119q111 0 194 -52.5t112 -121.5h7v157h149v-1024q0 -209 -120 -314t-334 -105q-187 0 -288.5 79t-114.5 203h164
q11 -61 76.5 -102t169.5 -41zM566 927q-134 0 -213 -92t-79 -242v-103q0 -147 82.5 -239.5t211.5 -92.5q126 0 199 88t73 209v169q0 123 -75 213t-199 90zM875 1252h-588v111h588v-111z" />
    <glyph glyph-name="Hdotaccent" unicode="&#x1e22;" horiz-adv-x="1412" 
d="M1218 0h-159v636h-706v-636h-159v1365h159v-585h706v585h159v-1365zM604 1588q0 44 29 73.5t71 29.5q44 0 74 -29.5t30 -73.5q0 -43 -30 -71.5t-74 -28.5q-42 0 -71 29t-29 71z" />
    <glyph glyph-name="hdotaccent" unicode="&#x1e23;" horiz-adv-x="1213" 
d="M187 0v1477h157v-620h8q9 32 30 64t57.5 66.5t99.5 56.5t141 22q159 0 256.5 -89.5t97.5 -258.5v-718h-157v666q0 125 -65 193t-179 68q-139 0 -214 -96.5t-75 -245.5v-585h-157zM160 1700q0 44 29 73.5t71 29.5q44 0 74 -29.5t30 -73.5q0 -43 -30 -71.5t-74 -28.5
q-42 0 -71 29t-29 71z" />
    <glyph glyph-name="Hdotbelow" unicode="&#x1e24;" horiz-adv-x="1412" 
d="M1218 0h-159v636h-706v-636h-159v1365h159v-585h706v585h159v-1365zM602 -250q0 45 29 73t75 28t75 -28t29 -73t-29 -72t-75 -27t-75 27t-29 72z" />
    <glyph glyph-name="hdotbelow" unicode="&#x1e25;" horiz-adv-x="1213" 
d="M187 0v1477h157v-620h8q9 32 30 64t57.5 66.5t99.5 56.5t141 22q159 0 256.5 -89.5t97.5 -258.5v-718h-157v666q0 125 -65 193t-179 68q-139 0 -214 -96.5t-75 -245.5v-585h-157zM495 -250q0 45 29 73t75 28t75 -28t29 -73t-29 -72t-75 -27t-75 27t-29 72z" />
    <glyph glyph-name="Hdieresis" unicode="&#x1e26;" horiz-adv-x="1412" 
d="M1218 0h-159v636h-706v-636h-159v1365h159v-585h706v585h159v-1365zM877 1483q-42 0 -71.5 28t-29.5 70q0 43 29 71t72 28q46 0 76 -28t30 -71q0 -42 -30 -70t-76 -28zM530 1483q-43 0 -72.5 28t-29.5 70q0 43 29.5 71t72.5 28q45 0 74.5 -28t29.5 -71q0 -42 -29.5 -70
t-74.5 -28z" />
    <glyph glyph-name="hdieresis" unicode="&#x1e27;" horiz-adv-x="1213" 
d="M187 0v1477h157v-620h8q9 32 30 64t57.5 66.5t99.5 56.5t141 22q159 0 256.5 -89.5t97.5 -258.5v-718h-157v666q0 125 -65 193t-179 68q-139 0 -214 -96.5t-75 -245.5v-585h-157zM433 1595q-42 0 -71.5 28t-29.5 70q0 43 29 71t72 28q46 0 76 -28t30 -71q0 -42 -30 -70
t-76 -28zM86 1595q-43 0 -72.5 28t-29.5 70q0 43 29.5 71t72.5 28q45 0 74.5 -28t29.5 -71q0 -42 -29.5 -70t-74.5 -28z" />
    <glyph glyph-name="Hcedilla" unicode="&#x1e28;" horiz-adv-x="1412" 
d="M239 0h-45v1365h159v-585h706v585h159v-1365h-159v636h-706v-636l-51 -140q100 0 157.5 -40.5t57.5 -119.5q0 -89 -61 -135.5t-158 -51.5q-82 -4 -151 15v102q47 -14 117 -14q49 0 84 19t35 62q0 17 -5.5 29.5t-19 20t-23.5 11.5t-33 6t-33 2h-37h-52v75z" />
    <glyph glyph-name="hcedilla" unicode="&#x1e29;" horiz-adv-x="1213" 
d="M230 0h-43v1477h157v-620h8q9 32 30 64t57.5 66.5t99.5 56.5t141 22q159 0 256.5 -89.5t97.5 -258.5v-718h-157v666q0 125 -65 193t-179 68q-139 0 -214 -96.5t-75 -245.5v-585l-55 -150q100 0 157.5 -40.5t57.5 -119.5q0 -89 -61 -135.5t-158 -51.5q-82 -4 -151 15v102
q47 -14 117 -14q49 0 84 19t35 62q0 17 -5.5 29.5t-19 20t-23.5 11.5t-33 6t-33 2h-37h-52v75z" />
    <glyph glyph-name="Hbrevebelow" unicode="&#x1e2a;" horiz-adv-x="1412" 
d="M1218 0h-159v636h-706v-636h-159v1365h159v-585h706v585h159v-1365zM403 -143q0 -48 17.5 -93.5t52 -85.5t95 -64t138.5 -24q63 0 114 16.5t84 43.5t55 62.5t31.5 71.5t9.5 73h-115q0 -68 -46 -116t-133 -48t-133 48t-46 116h-124z" />
    <glyph glyph-name="hbrevebelow" unicode="&#x1e2b;" horiz-adv-x="1213" 
d="M187 0v1477h157v-620h8q9 32 30 64t57.5 66.5t99.5 56.5t141 22q159 0 256.5 -89.5t97.5 -258.5v-718h-157v666q0 125 -65 193t-179 68q-139 0 -214 -96.5t-75 -245.5v-585h-157zM296 -143q0 -48 17.5 -93.5t52 -85.5t95 -64t138.5 -24q63 0 114 16.5t84 43.5t55 62.5
t31.5 71.5t9.5 73h-115q0 -68 -46 -116t-133 -48t-133 48t-46 116h-124z" />
    <glyph glyph-name="Itildebelow" unicode="&#x1e2c;" horiz-adv-x="547" 
d="M353 0h-159v1365h159v-1365zM393 -374q-44 0 -81.5 19t-59 42t-48.5 42t-51 19q-20 0 -34.5 -11t-22 -29t-11 -34.5t-4.5 -33.5h-106q0 86 45.5 147t127.5 61q43 0 81 -19t61 -42t50.5 -42t51.5 -19q36 0 56 32.5t22 73.5h106q0 -80 -48.5 -143t-134.5 -63z" />
    <glyph glyph-name="itildebelow" unicode="&#x1e2d;" horiz-adv-x="579" 
d="M211 0v1049h157v-1049h-157zM171 1376q0 51 34 85t83 34q52 0 86 -33.5t34 -85.5q0 -50 -34 -83.5t-86 -33.5q-49 0 -83 33.5t-34 83.5zM409 -374q-44 0 -81.5 19t-59 42t-48.5 42t-51 19q-20 0 -34.5 -11t-22 -29t-11 -34.5t-4.5 -33.5h-106q0 86 45.5 147t127.5 61
q43 0 81 -19t61 -42t50.5 -42t51.5 -19q36 0 56 32.5t22 73.5h106q0 -80 -48.5 -143t-134.5 -63z" />
    <glyph glyph-name="Idieresisacute" unicode="&#x1e2e;" horiz-adv-x="547" 
d="M353 0h-159v1365h159v-1365zM188 1734l247 196h189l-285 -196h-151zM446 1483q-42 0 -71.5 28t-29.5 70q0 43 29 71t72 28q46 0 76 -28t30 -71q0 -42 -30 -70t-76 -28zM99 1483q-43 0 -72.5 28t-29.5 70q0 43 29.5 71t72.5 28q45 0 74.5 -28t29.5 -71q0 -42 -29.5 -70
t-74.5 -28z" />
    <glyph glyph-name="idieresisacute" unicode="&#x1e2f;" horiz-adv-x="579" 
d="M211 0v1049h157v-1049h-157zM465 1225q-42 0 -72.5 29.5t-30.5 71.5q0 44 30.5 73.5t72.5 29.5q47 0 78.5 -29.5t31.5 -73.5q0 -42 -32 -71.5t-78 -29.5zM110 1225q-44 0 -75 29.5t-31 71.5q0 44 31 73.5t75 29.5q45 0 76 -29.5t31 -73.5q0 -42 -31.5 -71.5t-75.5 -29.5z
M208 1528l239 354h161l-278 -354h-122z" />
    <glyph glyph-name="Kacute" unicode="&#x1e30;" horiz-adv-x="1227" 
d="M1157 1365l-512 -580l540 -785h-205l-454 674l-173 -187v-487h-159v1365h159v-668h7l606 668h191zM507 1514l239 354h161l-278 -354h-122z" />
    <glyph glyph-name="kacute" unicode="&#x1e31;" horiz-adv-x="1050" 
d="M344 392v-392h-157v1477h157v-909h6l444 481h184l-419 -456l446 -593h-189l-371 493zM180 1626l239 354h161l-278 -354h-122z" />
    <glyph glyph-name="Kdotbelow" unicode="&#x1e32;" horiz-adv-x="1227" 
d="M1157 1365l-512 -580l540 -785h-205l-454 674l-173 -187v-487h-159v1365h159v-668h7l606 668h191zM510 -250q0 45 29 73t75 28t75 -28t29 -73t-29 -72t-75 -27t-75 27t-29 72z" />
    <glyph glyph-name="kdotbelow" unicode="&#x1e33;" horiz-adv-x="1050" 
d="M344 392v-392h-157v1477h157v-909h6l444 481h184l-419 -456l446 -593h-189l-371 493zM449 -250q0 45 29 73t75 28t75 -28t29 -73t-29 -72t-75 -27t-75 27t-29 72z" />
    <glyph glyph-name="Klinebelow" unicode="&#x1e34;" horiz-adv-x="1227" 
d="M1157 1365l-512 -580l540 -785h-205l-454 674l-173 -187v-487h-159v1365h159v-668h7l606 668h191zM908 -321h-588v111h588v-111z" />
    <glyph glyph-name="klinebelow" unicode="&#x1e35;" horiz-adv-x="1050" 
d="M344 392v-392h-157v1477h157v-909h6l444 481h184l-419 -456l446 -593h-189l-371 493zM847 -321h-588v111h588v-111z" />
    <glyph glyph-name="Ldotbelow" unicode="&#x1e36;" horiz-adv-x="1038" 
d="M990 145v-145h-796v1365h159v-1220h637zM424 -250q0 45 29 73t75 28t75 -28t29 -73t-29 -72t-75 -27t-75 27t-29 72z" />
    <glyph glyph-name="ldotbelow" unicode="&#x1e37;" horiz-adv-x="537" 
d="M190 0v1477h157v-1477h-157zM165 -250q0 45 29 73t75 28t75 -28t29 -73t-29 -72t-75 -27t-75 27t-29 72z" />
    <glyph glyph-name="Ldotbelowmacron" unicode="&#x1e38;" horiz-adv-x="1038" 
d="M990 145v-145h-796v1365h159v-1220h637zM424 -250q0 45 29 73t75 28t75 -28t29 -73t-29 -72t-75 -27t-75 27t-29 72zM563 1515h-580v104h580v-104z" />
    <glyph glyph-name="ldotbelowmacron" unicode="&#x1e39;" horiz-adv-x="537" 
d="M190 0v1477h157v-1477h-157zM165 -250q0 45 29 73t75 28t75 -28t29 -73t-29 -72t-75 -27t-75 27t-29 72zM559 1627h-580v104h580v-104z" />
    <glyph glyph-name="Llinebelow" unicode="&#x1e3a;" horiz-adv-x="1038" 
d="M990 145v-145h-796v1365h159v-1220h637zM822 -321h-588v111h588v-111z" />
    <glyph glyph-name="llinebelow" unicode="&#x1e3b;" horiz-adv-x="537" 
d="M190 0v1477h157v-1477h-157zM563 -321h-588v111h588v-111z" />
    <glyph glyph-name="Lcircumflexbelow" unicode="&#x1e3c;" horiz-adv-x="1038" 
d="M990 145v-145h-796v1365h159v-1220h637zM199 -394l282 244h99l271 -244h-163l-158 144h-5l-167 -144h-159z" />
    <glyph glyph-name="lcircumflexbelow" unicode="&#x1e3d;" horiz-adv-x="537" 
d="M190 0v1477h157v-1477h-157zM-60 -394l282 244h99l271 -244h-163l-158 144h-5l-167 -144h-159z" />
    <glyph glyph-name="Macute" unicode="&#x1e3e;" horiz-adv-x="1631" 
d="M344 0h-145v1365h153l461 -1093h6l459 1093h154v-1365h-145v1017h-9l-391 -912h-143l-392 912h-8v-1017zM734 1514l239 354h161l-278 -354h-122z" />
    <glyph glyph-name="macute" unicode="&#x1e3f;" horiz-adv-x="1780" 
d="M184 0v1049h157v-165h8q62 182 284 182q115 0 190.5 -54.5t102.5 -142.5h7q37 87 116.5 142t203.5 55q164 0 256 -84.5t92 -241.5v-740h-157v698q0 104 -59 166.5t-170 62.5q-104 0 -174 -72t-70 -182v-673h-157v690q0 105 -63 171t-171 66q-105 0 -172 -71t-67 -181
v-675h-157zM809 1221l239 354h161l-278 -354h-122z" />
    <glyph glyph-name="Mdotaccent" unicode="&#x1e40;" horiz-adv-x="1631" 
d="M344 0h-145v1365h153l461 -1093h6l459 1093h154v-1365h-145v1017h-9l-391 -912h-143l-392 912h-8v-1017zM714 1588q0 44 29 73.5t71 29.5q44 0 74 -29.5t30 -73.5q0 -43 -30 -71.5t-74 -28.5q-42 0 -71 29t-29 71z" />
    <glyph glyph-name="mdotaccent" unicode="&#x1e41;" horiz-adv-x="1780" 
d="M184 0v1049h157v-165h8q62 182 284 182q115 0 190.5 -54.5t102.5 -142.5h7q37 87 116.5 142t203.5 55q164 0 256 -84.5t92 -241.5v-740h-157v698q0 104 -59 166.5t-170 62.5q-104 0 -174 -72t-70 -182v-673h-157v690q0 105 -63 171t-171 66q-105 0 -172 -71t-67 -181
v-675h-157zM788 1342q0 44 29 73.5t71 29.5q44 0 74 -29.5t30 -73.5q0 -43 -30 -71.5t-74 -28.5q-42 0 -71 29t-29 71z" />
    <glyph glyph-name="Mdotbelow" unicode="&#x1e42;" horiz-adv-x="1631" 
d="M344 0h-145v1365h153l461 -1093h6l459 1093h154v-1365h-145v1017h-9l-391 -912h-143l-392 912h-8v-1017zM712 -250q0 45 29 73t75 28t75 -28t29 -73t-29 -72t-75 -27t-75 27t-29 72z" />
    <glyph glyph-name="mdotbelow" unicode="&#x1e43;" horiz-adv-x="1780" 
d="M184 0v1049h157v-165h8q62 182 284 182q115 0 190.5 -54.5t102.5 -142.5h7q37 87 116.5 142t203.5 55q164 0 256 -84.5t92 -241.5v-740h-157v698q0 104 -59 166.5t-170 62.5q-104 0 -174 -72t-70 -182v-673h-157v690q0 105 -63 171t-171 66q-105 0 -172 -71t-67 -181
v-675h-157zM786 -250q0 45 29 73t75 28t75 -28t29 -73t-29 -72t-75 -27t-75 27t-29 72z" />
    <glyph glyph-name="Ndotaccent" unicode="&#x1e44;" horiz-adv-x="1412" 
d="M353 0h-159v1365h159l698 -1092h8v1092h159v-1365h-159l-699 1092h-7v-1092zM604 1588q0 44 29 73.5t71 29.5q44 0 74 -29.5t30 -73.5q0 -43 -30 -71.5t-74 -28.5q-42 0 -71 29t-29 71z" />
    <glyph glyph-name="ndotaccent" unicode="&#x1e45;" horiz-adv-x="1206" 
d="M184 0v1049h157v-192h8q68 209 320 209q164 0 261 -88t97 -258v-720h-157v668q0 126 -62 192.5t-176 66.5q-142 0 -216.5 -96t-74.5 -246v-585h-157zM501 1342q0 44 29 73.5t71 29.5q44 0 74 -29.5t30 -73.5q0 -43 -30 -71.5t-74 -28.5q-42 0 -71 29t-29 71z" />
    <glyph glyph-name="Ndotbelow" unicode="&#x1e46;" horiz-adv-x="1412" 
d="M353 0h-159v1365h159l698 -1092h8v1092h159v-1365h-159l-699 1092h-7v-1092zM602 -250q0 45 29 73t75 28t75 -28t29 -73t-29 -72t-75 -27t-75 27t-29 72z" />
    <glyph glyph-name="ndotbelow" unicode="&#x1e47;" horiz-adv-x="1206" 
d="M184 0v1049h157v-192h8q68 209 320 209q164 0 261 -88t97 -258v-720h-157v668q0 126 -62 192.5t-176 66.5q-142 0 -216.5 -96t-74.5 -246v-585h-157zM499 -250q0 45 29 73t75 28t75 -28t29 -73t-29 -72t-75 -27t-75 27t-29 72z" />
    <glyph glyph-name="Nlinebelow" unicode="&#x1e48;" horiz-adv-x="1412" 
d="M353 0h-159v1365h159l698 -1092h8v1092h159v-1365h-159l-699 1092h-7v-1092zM1000 -321h-588v111h588v-111z" />
    <glyph glyph-name="nlinebelow" unicode="&#x1e49;" horiz-adv-x="1206" 
d="M184 0v1049h157v-192h8q68 209 320 209q164 0 261 -88t97 -258v-720h-157v668q0 126 -62 192.5t-176 66.5q-142 0 -216.5 -96t-74.5 -246v-585h-157zM897 -321h-588v111h588v-111z" />
    <glyph glyph-name="Ncircumflexbelow" unicode="&#x1e4a;" horiz-adv-x="1412" 
d="M353 0h-159v1365h159l698 -1092h8v1092h159v-1365h-159l-699 1092h-7v-1092zM377 -394l282 244h99l271 -244h-163l-158 144h-5l-167 -144h-159z" />
    <glyph glyph-name="ncircumflexbelow" unicode="&#x1e4b;" horiz-adv-x="1206" 
d="M184 0v1049h157v-192h8q68 209 320 209q164 0 261 -88t97 -258v-720h-157v668q0 126 -62 192.5t-176 66.5q-142 0 -216.5 -96t-74.5 -246v-585h-157zM274 -394l282 244h99l271 -244h-163l-158 144h-5l-167 -144h-159z" />
    <glyph glyph-name="Otildeacute" unicode="&#x1e4c;" horiz-adv-x="1360" 
d="M299 778v-205q0 -225 105 -341t275 -116q171 0 276.5 116t105.5 341v205q0 227 -106.5 349t-275.5 122q-168 0 -274 -122t-106 -349zM140 573v205q0 288 147 452t394 164t393 -164t146 -452v-205q0 -286 -147 -444t-396 -158q-248 0 -392.5 158t-144.5 444zM582 1734
l247 196h189l-285 -196h-151zM799 1463q-44 0 -81.5 19t-59 42t-48.5 42t-51 19q-20 0 -34.5 -11t-22 -29t-11 -34.5t-4.5 -33.5h-106q0 86 45.5 147t127.5 61q43 0 81 -19t61 -42t50.5 -42t51.5 -19q36 0 56 32.5t22 73.5h106q0 -80 -48.5 -143t-134.5 -63z" />
    <glyph glyph-name="otildeacute" unicode="&#x1e4d;" horiz-adv-x="1155" 
d="M578 1066q195 0 320 -122.5t125 -335.5v-166q0 -214 -125 -336.5t-320 -122.5q-199 0 -322.5 121.5t-123.5 337.5v166q0 207 126 332.5t320 125.5zM579 927q-131 0 -210.5 -93t-79.5 -244v-132q0 -155 77 -245.5t213 -90.5q135 0 211 90t76 246v132q0 152 -78 244.5
t-209 92.5zM702 1214q-39 0 -69.5 16t-50 39t-36.5 45.5t-38 38.5t-45 16q-21 0 -36 -11.5t-22.5 -33t-10.5 -41.5t-5 -49h-110q0 108 46.5 176.5t136.5 68.5q41 0 74 -16t53 -38.5t37 -45.5t35.5 -39t38.5 -16q61 0 72 135h110q0 -63 -17.5 -116.5t-60 -91t-102.5 -37.5z
M497 1528l239 354h161l-278 -354h-122z" />
    <glyph glyph-name="Otildedieresis" unicode="&#x1e4e;" horiz-adv-x="1360" 
d="M299 778v-205q0 -225 105 -341t275 -116q171 0 276.5 116t105.5 341v205q0 227 -106.5 349t-275.5 122q-168 0 -274 -122t-106 -349zM140 573v205q0 288 147 452t394 164t393 -164t146 -452v-205q0 -286 -147 -444t-396 -158q-248 0 -392.5 158t-144.5 444zM799 1463
q-44 0 -81.5 19t-59 42t-48.5 42t-51 19q-20 0 -34.5 -11t-22 -29t-11 -34.5t-4.5 -33.5h-106q0 86 45.5 147t127.5 61q43 0 81 -19t61 -42t50.5 -42t51.5 -19q36 0 56 32.5t22 73.5h106q0 -80 -48.5 -143t-134.5 -63zM852 1723q-42 0 -71.5 28t-29.5 70q0 43 29 71t72 28
q46 0 76 -28t30 -71q0 -42 -30 -70t-76 -28zM505 1723q-43 0 -72.5 28t-29.5 70q0 43 29.5 71t72.5 28q45 0 74.5 -28t29.5 -71q0 -42 -29.5 -70t-74.5 -28z" />
    <glyph glyph-name="otildedieresis" unicode="&#x1e4f;" horiz-adv-x="1155" 
d="M578 1066q195 0 320 -122.5t125 -335.5v-166q0 -214 -125 -336.5t-320 -122.5q-199 0 -322.5 121.5t-123.5 337.5v166q0 207 126 332.5t320 125.5zM579 927q-131 0 -210.5 -93t-79.5 -244v-132q0 -155 77 -245.5t213 -90.5q135 0 211 90t76 246v132q0 152 -78 244.5
t-209 92.5zM702 1214q-39 0 -69.5 16t-50 39t-36.5 45.5t-38 38.5t-45 16q-21 0 -36 -11.5t-22.5 -33t-10.5 -41.5t-5 -49h-110q0 108 46.5 176.5t136.5 68.5q41 0 74 -16t53 -38.5t37 -45.5t35.5 -39t38.5 -16q61 0 72 135h110q0 -63 -17.5 -116.5t-60 -91t-102.5 -37.5z
M754 1578q-42 0 -72.5 29.5t-30.5 71.5q0 44 30.5 73.5t72.5 29.5q47 0 78.5 -29.5t31.5 -73.5q0 -42 -32 -71.5t-78 -29.5zM399 1578q-44 0 -75 29.5t-31 71.5q0 44 31 73.5t75 29.5q45 0 76 -29.5t31 -73.5q0 -42 -31.5 -71.5t-75.5 -29.5z" />
    <glyph glyph-name="Omacrongrave" unicode="&#x1e50;" horiz-adv-x="1360" 
d="M299 778v-205q0 -225 105 -341t275 -116q171 0 276.5 116t105.5 341v205q0 227 -106.5 349t-275.5 122q-168 0 -274 -122t-106 -349zM140 573v205q0 288 147 452t394 164t393 -164t146 -452v-205q0 -286 -147 -444t-396 -158q-248 0 -392.5 158t-144.5 444zM766 1734
h-151l-285 196h189zM970 1515h-580v104h580v-104z" />
    <glyph glyph-name="omacrongrave" unicode="&#x1e51;" horiz-adv-x="1155" 
d="M578 1066q195 0 320 -122.5t125 -335.5v-166q0 -214 -125 -336.5t-320 -122.5q-199 0 -322.5 121.5t-123.5 337.5v166q0 207 126 332.5t320 125.5zM579 927q-131 0 -210.5 -93t-79.5 -244v-132q0 -155 77 -245.5t213 -90.5q135 0 211 90t76 246v132q0 152 -78 244.5
t-209 92.5zM872 1252h-588v111h588v-111zM659 1528h-122l-278 354h161z" />
    <glyph glyph-name="Omacronacute" unicode="&#x1e52;" horiz-adv-x="1360" 
d="M299 778v-205q0 -225 105 -341t275 -116q171 0 276.5 116t105.5 341v205q0 227 -106.5 349t-275.5 122q-168 0 -274 -122t-106 -349zM140 573v205q0 288 147 452t394 164t393 -164t146 -452v-205q0 -286 -147 -444t-396 -158q-248 0 -392.5 158t-144.5 444zM594 1734
l247 196h189l-285 -196h-151zM970 1515h-580v104h580v-104z" />
    <glyph glyph-name="omacronacute" unicode="&#x1e53;" horiz-adv-x="1155" 
d="M578 1066q195 0 320 -122.5t125 -335.5v-166q0 -214 -125 -336.5t-320 -122.5q-199 0 -322.5 121.5t-123.5 337.5v166q0 207 126 332.5t320 125.5zM579 927q-131 0 -210.5 -93t-79.5 -244v-132q0 -155 77 -245.5t213 -90.5q135 0 211 90t76 246v132q0 152 -78 244.5
t-209 92.5zM872 1252h-588v111h588v-111zM497 1528l239 354h161l-278 -354h-122z" />
    <glyph glyph-name="Pacute" unicode="&#x1e54;" horiz-adv-x="1195" 
d="M194 1365h489q192 0 311 -115.5t119 -304.5q0 -190 -119 -304.5t-311 -114.5h-330v-526h-159v1365zM353 1220v-549h214q98 0 163 10.5t117.5 39.5t77 84t24.5 140q0 131 -71 203t-201 72h-324zM486 1514l239 354h161l-278 -354h-122z" />
    <glyph glyph-name="pacute" unicode="&#x1e55;" horiz-adv-x="1197" 
d="M652 -17q-121 0 -195 48t-107 123h-8v-521h-157v1417h149v-167h8q30 78 111.5 130.5t205.5 52.5q184 0 294 -119.5t110 -325.5v-192q0 -207 -112 -326.5t-299 -119.5zM630 122q126 0 201 86.5t75 256.5v117q0 167 -74 256t-207 89t-208 -85t-75 -231v-196
q0 -128 79.5 -210.5t208.5 -82.5zM518 1221l239 354h161l-278 -354h-122z" />
    <glyph glyph-name="Pdotaccent" unicode="&#x1e56;" horiz-adv-x="1195" 
d="M194 1365h489q192 0 311 -115.5t119 -304.5q0 -190 -119 -304.5t-311 -114.5h-330v-526h-159v1365zM353 1220v-549h214q98 0 163 10.5t117.5 39.5t77 84t24.5 140q0 131 -71 203t-201 72h-324zM466 1588q0 44 29 73.5t71 29.5q44 0 74 -29.5t30 -73.5q0 -43 -30 -71.5
t-74 -28.5q-42 0 -71 29t-29 71z" />
    <glyph glyph-name="pdotaccent" unicode="&#x1e57;" horiz-adv-x="1197" 
d="M652 -17q-121 0 -195 48t-107 123h-8v-521h-157v1417h149v-167h8q30 78 111.5 130.5t205.5 52.5q184 0 294 -119.5t110 -325.5v-192q0 -207 -112 -326.5t-299 -119.5zM630 122q126 0 201 86.5t75 256.5v117q0 167 -74 256t-207 89t-208 -85t-75 -231v-196
q0 -128 79.5 -210.5t208.5 -82.5zM497 1342q0 44 29 73.5t71 29.5q44 0 74 -29.5t30 -73.5q0 -43 -30 -71.5t-74 -28.5q-42 0 -71 29t-29 71z" />
    <glyph glyph-name="Rdotaccent" unicode="&#x1e58;" horiz-adv-x="1259" 
d="M679 1365q109 0 193.5 -33t135.5 -90t77 -128t26 -152q0 -80 -22 -146.5t-60 -111.5t-80.5 -74.5t-92.5 -47.5l279 -582h-183l-254 549h-345v-549h-159v1365h485zM353 694h298q146 0 221 66.5t75 190.5q0 131 -76.5 200t-211.5 69h-306v-526zM488 1588q0 44 29 73.5
t71 29.5q44 0 74 -29.5t30 -73.5q0 -43 -30 -71.5t-74 -28.5q-42 0 -71 29t-29 71z" />
    <glyph glyph-name="rdotaccent" unicode="&#x1e59;" horiz-adv-x="787" 
d="M202 0v1049h157v-161h8q12 30 31.5 57.5t53 56.5t87.5 46t122 17q19 0 61 -4v-146q-23 4 -80 4q-136 0 -209.5 -72t-73.5 -184v-663h-157zM341 1342q0 44 29 73.5t71 29.5q44 0 74 -29.5t30 -73.5q0 -43 -30 -71.5t-74 -28.5q-42 0 -71 29t-29 71z" />
    <glyph glyph-name="Rdotbelow" unicode="&#x1e5a;" horiz-adv-x="1259" 
d="M679 1365q109 0 193.5 -33t135.5 -90t77 -128t26 -152q0 -80 -22 -146.5t-60 -111.5t-80.5 -74.5t-92.5 -47.5l279 -582h-183l-254 549h-345v-549h-159v1365h485zM353 694h298q146 0 221 66.5t75 190.5q0 131 -76.5 200t-211.5 69h-306v-526zM486 -250q0 45 29 73t75 28
t75 -28t29 -73t-29 -72t-75 -27t-75 27t-29 72z" />
    <glyph glyph-name="rdotbelow" unicode="&#x1e5b;" horiz-adv-x="787" 
d="M202 0v1049h157v-161h8q12 30 31.5 57.5t53 56.5t87.5 46t122 17q19 0 61 -4v-146q-23 4 -80 4q-136 0 -209.5 -72t-73.5 -184v-663h-157zM179 -250q0 45 29 73t75 28t75 -28t29 -73t-29 -72t-75 -27t-75 27t-29 72z" />
    <glyph glyph-name="Rdotbelowmacron" unicode="&#x1e5c;" horiz-adv-x="1259" 
d="M679 1365q109 0 193.5 -33t135.5 -90t77 -128t26 -152q0 -80 -22 -146.5t-60 -111.5t-80.5 -74.5t-92.5 -47.5l279 -582h-183l-254 549h-345v-549h-159v1365h485zM353 694h298q146 0 221 66.5t75 190.5q0 131 -76.5 200t-211.5 69h-306v-526zM486 -250q0 45 29 73t75 28
t75 -28t29 -73t-29 -72t-75 -27t-75 27t-29 72zM880 1515h-580v104h580v-104z" />
    <glyph glyph-name="rdotbelowmacron" unicode="&#x1e5d;" horiz-adv-x="787" 
d="M202 0v1049h157v-161h8q12 30 31.5 57.5t53 56.5t87.5 46t122 17q19 0 61 -4v-146q-23 4 -80 4q-136 0 -209.5 -72t-73.5 -184v-663h-157zM179 -250q0 45 29 73t75 28t75 -28t29 -73t-29 -72t-75 -27t-75 27t-29 72zM737 1252h-588v111h588v-111z" />
    <glyph glyph-name="Rlinebelow" unicode="&#x1e5e;" horiz-adv-x="1259" 
d="M679 1365q109 0 193.5 -33t135.5 -90t77 -128t26 -152q0 -80 -22 -146.5t-60 -111.5t-80.5 -74.5t-92.5 -47.5l279 -582h-183l-254 549h-345v-549h-159v1365h485zM353 694h298q146 0 221 66.5t75 190.5q0 131 -76.5 200t-211.5 69h-306v-526zM884 -321h-588v111h588v-111
z" />
    <glyph glyph-name="rlinebelow" unicode="&#x1e5f;" horiz-adv-x="787" 
d="M202 0v1049h157v-161h8q12 30 31.5 57.5t53 56.5t87.5 46t122 17q19 0 61 -4v-146q-23 4 -80 4q-136 0 -209.5 -72t-73.5 -184v-663h-157zM577 -321h-588v111h588v-111z" />
    <glyph glyph-name="Sdotaccent" unicode="&#x1e60;" horiz-adv-x="1200" 
d="M88 365h161q11 -109 101 -179t244 -70q147 0 234 67t87 182q0 86 -54.5 139.5t-170.5 83.5l-245 65q-63 17 -116.5 44.5t-99.5 69t-72.5 103.5t-26.5 138q0 122 68 212.5t172.5 134t226.5 43.5q87 0 167 -23t147.5 -68.5t109 -121.5t43.5 -173h-160q-10 107 -90 174
t-221 67q-134 0 -217.5 -62t-83.5 -172q0 -159 193 -209l240 -65q172 -46 262.5 -131.5t90.5 -237.5q0 -98 -39.5 -176t-109 -127.5t-160 -75.5t-195.5 -26q-86 0 -159 17t-124.5 46.5t-90.5 67.5t-62.5 83t-35.5 89.5t-14 90.5zM495 1588q0 44 29 73.5t71 29.5
q44 0 74 -29.5t30 -73.5q0 -43 -30 -71.5t-74 -28.5q-42 0 -71 29t-29 71z" />
    <glyph glyph-name="sdotaccent" unicode="&#x1e61;" horiz-adv-x="1030" 
d="M131 751q0 79 31.5 141t85.5 99t121.5 56t144.5 19q166 0 267 -80.5t101 -209.5h-148q-5 64 -64 111.5t-163 47.5q-99 0 -160.5 -44t-61.5 -123q0 -96 107 -135q37 -13 150 -34q68 -12 115 -24t98 -34.5t82 -51.5t51 -75.5t20 -106.5q0 -153 -112.5 -238.5t-297.5 -85.5
q-173 0 -279 75.5t-106 212.5h154q24 -158 238 -158q125 0 186.5 49t61.5 126q0 30 -8 53t-28 40.5t-39 29t-55.5 22t-61.5 16t-72 14.5q-51 11 -82.5 18.5t-74 20.5t-68 26.5t-54 35t-44 47t-25.5 61.5t-10 79zM413 1342q0 44 29 73.5t71 29.5q44 0 74 -29.5t30 -73.5
q0 -43 -30 -71.5t-74 -28.5q-42 0 -71 29t-29 71z" />
    <glyph glyph-name="Sdotbelow" unicode="&#x1e62;" horiz-adv-x="1200" 
d="M88 365h161q11 -109 101 -179t244 -70q147 0 234 67t87 182q0 86 -54.5 139.5t-170.5 83.5l-245 65q-63 17 -116.5 44.5t-99.5 69t-72.5 103.5t-26.5 138q0 122 68 212.5t172.5 134t226.5 43.5q87 0 167 -23t147.5 -68.5t109 -121.5t43.5 -173h-160q-10 107 -90 174
t-221 67q-134 0 -217.5 -62t-83.5 -172q0 -159 193 -209l240 -65q172 -46 262.5 -131.5t90.5 -237.5q0 -98 -39.5 -176t-109 -127.5t-160 -75.5t-195.5 -26q-86 0 -159 17t-124.5 46.5t-90.5 67.5t-62.5 83t-35.5 89.5t-14 90.5zM470 -250q0 45 29 73t75 28t75 -28t29 -73
t-29 -72t-75 -27t-75 27t-29 72z" />
    <glyph glyph-name="sdotbelow" unicode="&#x1e63;" horiz-adv-x="1030" 
d="M131 751q0 79 31.5 141t85.5 99t121.5 56t144.5 19q166 0 267 -80.5t101 -209.5h-148q-5 64 -64 111.5t-163 47.5q-99 0 -160.5 -44t-61.5 -123q0 -96 107 -135q37 -13 150 -34q68 -12 115 -24t98 -34.5t82 -51.5t51 -75.5t20 -106.5q0 -153 -112.5 -238.5t-297.5 -85.5
q-173 0 -279 75.5t-106 212.5h154q24 -158 238 -158q125 0 186.5 49t61.5 126q0 30 -8 53t-28 40.5t-39 29t-55.5 22t-61.5 16t-72 14.5q-51 11 -82.5 18.5t-74 20.5t-68 26.5t-54 35t-44 47t-25.5 61.5t-10 79zM411 -250q0 45 29 73t75 28t75 -28t29 -73t-29 -72t-75 -27
t-75 27t-29 72z" />
    <glyph glyph-name="Sacutedotaccent" unicode="&#x1e64;" horiz-adv-x="1200" 
d="M88 365h161q11 -109 101 -179t244 -70q147 0 234 67t87 182q0 86 -54.5 139.5t-170.5 83.5l-245 65q-63 17 -116.5 44.5t-99.5 69t-72.5 103.5t-26.5 138q0 122 68 212.5t172.5 134t226.5 43.5q87 0 167 -23t147.5 -68.5t109 -121.5t43.5 -173h-160q-10 107 -90 174
t-221 67q-134 0 -217.5 -62t-83.5 -172q0 -159 193 -209l240 -65q172 -46 262.5 -131.5t90.5 -237.5q0 -98 -39.5 -176t-109 -127.5t-160 -75.5t-195.5 -26q-86 0 -159 17t-124.5 46.5t-90.5 67.5t-62.5 83t-35.5 89.5t-14 90.5zM618 1514l239 354h161l-278 -354h-122z
M318 1770q0 44 29 73.5t71 29.5q44 0 74 -29.5t30 -73.5q0 -43 -30 -71.5t-74 -28.5q-42 0 -71 29t-29 71z" />
    <glyph glyph-name="sacutedotaccent" unicode="&#x1e65;" horiz-adv-x="1030" 
d="M131 751q0 79 31.5 141t85.5 99t121.5 56t144.5 19q166 0 267 -80.5t101 -209.5h-148q-5 64 -64 111.5t-163 47.5q-99 0 -160.5 -44t-61.5 -123q0 -96 107 -135q37 -13 150 -34q68 -12 115 -24t98 -34.5t82 -51.5t51 -75.5t20 -106.5q0 -153 -112.5 -238.5t-297.5 -85.5
q-173 0 -279 75.5t-106 212.5h154q24 -158 238 -158q125 0 186.5 49t61.5 126q0 30 -8 53t-28 40.5t-39 29t-55.5 22t-61.5 16t-72 14.5q-51 11 -82.5 18.5t-74 20.5t-68 26.5t-54 35t-44 47t-25.5 61.5t-10 79zM464 1221l239 354h161l-278 -354h-122zM241 1487
q0 44 29 73.5t71 29.5q44 0 74 -29.5t30 -73.5q0 -43 -30 -71.5t-74 -28.5q-42 0 -71 29t-29 71z" />
    <glyph glyph-name="Scarondotaccent" unicode="&#x1e66;" horiz-adv-x="1200" 
d="M88 365h161q11 -109 101 -179t244 -70q147 0 234 67t87 182q0 86 -54.5 139.5t-170.5 83.5l-245 65q-63 17 -116.5 44.5t-99.5 69t-72.5 103.5t-26.5 138q0 122 68 212.5t172.5 134t226.5 43.5q87 0 167 -23t147.5 -68.5t109 -121.5t43.5 -173h-160q-10 107 -90 174
t-221 67q-134 0 -217.5 -62t-83.5 -172q0 -159 193 -209l240 -65q172 -46 262.5 -131.5t90.5 -237.5q0 -98 -39.5 -176t-109 -127.5t-160 -75.5t-195.5 -26q-86 0 -159 17t-124.5 46.5t-90.5 67.5t-62.5 83t-35.5 89.5t-14 90.5zM264 1711h170l161 -124h5l148 124h174
l-236 -202h-171zM495 1844q0 44 29 73.5t71 29.5q44 0 74 -29.5t30 -73.5q0 -43 -30 -71.5t-74 -28.5q-42 0 -71 29t-29 71z" />
    <glyph glyph-name="scarondotaccent" unicode="&#x1e67;" horiz-adv-x="1030" 
d="M131 751q0 79 31.5 141t85.5 99t121.5 56t144.5 19q166 0 267 -80.5t101 -209.5h-148q-5 64 -64 111.5t-163 47.5q-99 0 -160.5 -44t-61.5 -123q0 -96 107 -135q37 -13 150 -34q68 -12 115 -24t98 -34.5t82 -51.5t51 -75.5t20 -106.5q0 -153 -112.5 -238.5t-297.5 -85.5
q-173 0 -279 75.5t-106 212.5h154q24 -158 238 -158q125 0 186.5 49t61.5 126q0 30 -8 53t-28 40.5t-39 29t-55.5 22t-61.5 16t-72 14.5q-51 11 -82.5 18.5t-74 20.5t-68 26.5t-54 35t-44 47t-25.5 61.5t-10 79zM216 1503h138l159 -183h4l159 183h138l-249 -282h-100z
M413 1675q0 44 29 73.5t71 29.5q44 0 74 -29.5t30 -73.5q0 -43 -30 -71.5t-74 -28.5q-42 0 -71 29t-29 71z" />
    <glyph glyph-name="Sdotbelowdotaccent" unicode="&#x1e68;" horiz-adv-x="1200" 
d="M88 365h161q11 -109 101 -179t244 -70q147 0 234 67t87 182q0 86 -54.5 139.5t-170.5 83.5l-245 65q-63 17 -116.5 44.5t-99.5 69t-72.5 103.5t-26.5 138q0 122 68 212.5t172.5 134t226.5 43.5q87 0 167 -23t147.5 -68.5t109 -121.5t43.5 -173h-160q-10 107 -90 174
t-221 67q-134 0 -217.5 -62t-83.5 -172q0 -159 193 -209l240 -65q172 -46 262.5 -131.5t90.5 -237.5q0 -98 -39.5 -176t-109 -127.5t-160 -75.5t-195.5 -26q-86 0 -159 17t-124.5 46.5t-90.5 67.5t-62.5 83t-35.5 89.5t-14 90.5zM470 -250q0 45 29 73t75 28t75 -28t29 -73
t-29 -72t-75 -27t-75 27t-29 72zM495 1588q0 44 29 73.5t71 29.5q44 0 74 -29.5t30 -73.5q0 -43 -30 -71.5t-74 -28.5q-42 0 -71 29t-29 71z" />
    <glyph glyph-name="sdotbelowdotaccent" unicode="&#x1e69;" horiz-adv-x="1030" 
d="M131 751q0 79 31.5 141t85.5 99t121.5 56t144.5 19q166 0 267 -80.5t101 -209.5h-148q-5 64 -64 111.5t-163 47.5q-99 0 -160.5 -44t-61.5 -123q0 -96 107 -135q37 -13 150 -34q68 -12 115 -24t98 -34.5t82 -51.5t51 -75.5t20 -106.5q0 -153 -112.5 -238.5t-297.5 -85.5
q-173 0 -279 75.5t-106 212.5h154q24 -158 238 -158q125 0 186.5 49t61.5 126q0 30 -8 53t-28 40.5t-39 29t-55.5 22t-61.5 16t-72 14.5q-51 11 -82.5 18.5t-74 20.5t-68 26.5t-54 35t-44 47t-25.5 61.5t-10 79zM411 -250q0 45 29 73t75 28t75 -28t29 -73t-29 -72t-75 -27
t-75 27t-29 72zM413 1342q0 44 29 73.5t71 29.5q44 0 74 -29.5t30 -73.5q0 -43 -30 -71.5t-74 -28.5q-42 0 -71 29t-29 71z" />
    <glyph glyph-name="Tdotaccent" unicode="&#x1e6a;" horiz-adv-x="1093" 
d="M626 0h-159v1221h-418v144h995v-144h-418v-1221zM444 1588q0 44 29 73.5t71 29.5q44 0 74 -29.5t30 -73.5q0 -43 -30 -71.5t-74 -28.5q-42 0 -71 29t-29 71z" />
    <glyph glyph-name="tdotaccent" unicode="&#x1e6b;" horiz-adv-x="754" 
d="M237 1049v264h157v-264h238v-131h-238v-633q0 -96 36.5 -128.5t137.5 -32.5q41 0 81 5v-131q-37 -8 -121 -8q-91 0 -149 17.5t-89 58t-42 92.5t-11 135v625h-160v131h160zM214 1594q0 44 29 73.5t71 29.5q44 0 74 -29.5t30 -73.5q0 -43 -30 -71.5t-74 -28.5q-42 0 -71 29
t-29 71z" />
    <glyph glyph-name="Tdotbelow" unicode="&#x1e6c;" horiz-adv-x="1093" 
d="M626 0h-159v1221h-418v144h995v-144h-418v-1221zM442 -250q0 45 29 73t75 28t75 -28t29 -73t-29 -72t-75 -27t-75 27t-29 72z" />
    <glyph glyph-name="tdotbelow" unicode="&#x1e6d;" horiz-adv-x="754" 
d="M237 1049v264h157v-264h238v-131h-238v-633q0 -96 36.5 -128.5t137.5 -32.5q41 0 81 5v-131q-37 -8 -121 -8q-91 0 -149 17.5t-89 58t-42 92.5t-11 135v625h-160v131h160zM323 -250q0 45 29 73t75 28t75 -28t29 -73t-29 -72t-75 -27t-75 27t-29 72z" />
    <glyph glyph-name="Tlinebelow" unicode="&#x1e6e;" horiz-adv-x="1093" 
d="M626 0h-159v1221h-418v144h995v-144h-418v-1221zM840 -321h-588v111h588v-111z" />
    <glyph glyph-name="tlinebelow" unicode="&#x1e6f;" horiz-adv-x="754" 
d="M237 1049v264h157v-264h238v-131h-238v-633q0 -96 36.5 -128.5t137.5 -32.5q41 0 81 5v-131q-37 -8 -121 -8q-91 0 -149 17.5t-89 58t-42 92.5t-11 135v625h-160v131h160zM721 -321h-588v111h588v-111z" />
    <glyph glyph-name="Tcircumflexbelow" unicode="&#x1e70;" horiz-adv-x="1093" 
d="M626 0h-159v1221h-418v144h995v-144h-418v-1221zM217 -394l282 244h99l271 -244h-163l-158 144h-5l-167 -144h-159z" />
    <glyph glyph-name="tcircumflexbelow" unicode="&#x1e71;" horiz-adv-x="754" 
d="M237 1049v264h157v-264h238v-131h-238v-633q0 -96 36.5 -128.5t137.5 -32.5q41 0 81 5v-131q-37 -8 -121 -8q-91 0 -149 17.5t-89 58t-42 92.5t-11 135v625h-160v131h160zM98 -394l282 244h99l271 -244h-163l-158 144h-5l-167 -144h-159z" />
    <glyph glyph-name="Udieresisbelow" unicode="&#x1e72;" horiz-adv-x="1380" 
d="M337 1365v-891q0 -163 95.5 -260.5t257.5 -97.5t257.5 97.5t95.5 260.5v891h159v-891q0 -226 -141.5 -364.5t-370.5 -138.5q-228 0 -370 140.5t-142 366.5v887h159zM866 -402q-42 0 -72.5 29.5t-30.5 71.5q0 44 30.5 73.5t72.5 29.5q47 0 78.5 -29.5t31.5 -73.5
q0 -42 -32 -71.5t-78 -29.5zM511 -402q-44 0 -75 29.5t-31 71.5q0 44 31 73.5t75 29.5q45 0 76 -29.5t31 -73.5q0 -42 -31.5 -71.5t-75.5 -29.5z" />
    <glyph glyph-name="udieresisbelow" unicode="&#x1e73;" horiz-adv-x="1200" 
d="M1016 1049v-1049h-157v174h-9q-26 -76 -106.5 -133.5t-206.5 -57.5q-168 0 -264.5 80t-96.5 253v733h157v-690q0 -125 65.5 -181t174.5 -56q120 0 203 76.5t83 180.5v670h157zM776 -402q-42 0 -72.5 29.5t-30.5 71.5q0 44 30.5 73.5t72.5 29.5q47 0 78.5 -29.5
t31.5 -73.5q0 -42 -32 -71.5t-78 -29.5zM421 -402q-44 0 -75 29.5t-31 71.5q0 44 31 73.5t75 29.5q45 0 76 -29.5t31 -73.5q0 -42 -31.5 -71.5t-75.5 -29.5z" />
    <glyph glyph-name="Utildebelow" unicode="&#x1e74;" horiz-adv-x="1380" 
d="M337 1365v-891q0 -163 95.5 -260.5t257.5 -97.5t257.5 97.5t95.5 260.5v891h159v-891q0 -226 -141.5 -364.5t-370.5 -138.5q-228 0 -370 140.5t-142 366.5v887h159zM809 -374q-44 0 -81.5 19t-59 42t-48.5 42t-51 19q-20 0 -34.5 -11t-22 -29t-11 -34.5t-4.5 -33.5h-106
q0 86 45.5 147t127.5 61q43 0 81 -19t61 -42t50.5 -42t51.5 -19q36 0 56 32.5t22 73.5h106q0 -80 -48.5 -143t-134.5 -63z" />
    <glyph glyph-name="utildebelow" unicode="&#x1e75;" horiz-adv-x="1200" 
d="M1016 1049v-1049h-157v174h-9q-26 -76 -106.5 -133.5t-206.5 -57.5q-168 0 -264.5 80t-96.5 253v733h157v-690q0 -125 65.5 -181t174.5 -56q120 0 203 76.5t83 180.5v670h157zM719 -374q-44 0 -81.5 19t-59 42t-48.5 42t-51 19q-20 0 -34.5 -11t-22 -29t-11 -34.5
t-4.5 -33.5h-106q0 86 45.5 147t127.5 61q43 0 81 -19t61 -42t50.5 -42t51.5 -19q36 0 56 32.5t22 73.5h106q0 -80 -48.5 -143t-134.5 -63z" />
    <glyph glyph-name="Ucircumflexbelow" unicode="&#x1e76;" horiz-adv-x="1380" 
d="M337 1365v-891q0 -163 95.5 -260.5t257.5 -97.5t257.5 97.5t95.5 260.5v891h159v-891q0 -226 -141.5 -364.5t-370.5 -138.5q-228 0 -370 140.5t-142 366.5v887h159zM361 -394l282 244h99l271 -244h-163l-158 144h-5l-167 -144h-159z" />
    <glyph glyph-name="ucircumflexbelow" unicode="&#x1e77;" horiz-adv-x="1200" 
d="M1016 1049v-1049h-157v174h-9q-26 -76 -106.5 -133.5t-206.5 -57.5q-168 0 -264.5 80t-96.5 253v733h157v-690q0 -125 65.5 -181t174.5 -56q120 0 203 76.5t83 180.5v670h157zM271 -394l282 244h99l271 -244h-163l-158 144h-5l-167 -144h-159z" />
    <glyph glyph-name="Utildeacute" unicode="&#x1e78;" horiz-adv-x="1380" 
d="M337 1365v-891q0 -163 95.5 -260.5t257.5 -97.5t257.5 97.5t95.5 260.5v891h159v-891q0 -226 -141.5 -364.5t-370.5 -138.5q-228 0 -370 140.5t-142 366.5v887h159zM592 1734l247 196h189l-285 -196h-151zM809 1463q-44 0 -81.5 19t-59 42t-48.5 42t-51 19
q-20 0 -34.5 -11t-22 -29t-11 -34.5t-4.5 -33.5h-106q0 86 45.5 147t127.5 61q43 0 81 -19t61 -42t50.5 -42t51.5 -19q36 0 56 32.5t22 73.5h106q0 -80 -48.5 -143t-134.5 -63z" />
    <glyph glyph-name="utildeacute" unicode="&#x1e79;" horiz-adv-x="1200" 
d="M1016 1049v-1049h-157v174h-9q-26 -76 -106.5 -133.5t-206.5 -57.5q-168 0 -264.5 80t-96.5 253v733h157v-690q0 -125 65.5 -181t174.5 -56q120 0 203 76.5t83 180.5v670h157zM724 1214q-39 0 -69.5 16t-50 39t-36.5 45.5t-38 38.5t-45 16q-21 0 -36 -11.5t-22.5 -33
t-10.5 -41.5t-5 -49h-110q0 108 46.5 176.5t136.5 68.5q41 0 74 -16t53 -38.5t37 -45.5t35.5 -39t38.5 -16q61 0 72 135h110q0 -63 -17.5 -116.5t-60 -91t-102.5 -37.5zM519 1528l239 354h161l-278 -354h-122z" />
    <glyph glyph-name="Umacrondieresis" unicode="&#x1e7a;" horiz-adv-x="1380" 
d="M337 1365v-891q0 -163 95.5 -260.5t257.5 -97.5t257.5 97.5t95.5 260.5v891h159v-891q0 -226 -141.5 -364.5t-370.5 -138.5q-228 0 -370 140.5t-142 366.5v887h159zM980 1515h-580v104h580v-104zM862 1723q-42 0 -71.5 28t-29.5 70q0 43 29 71t72 28q46 0 76 -28t30 -71
q0 -42 -30 -70t-76 -28zM515 1723q-43 0 -72.5 28t-29.5 70q0 43 29.5 71t72.5 28q45 0 74.5 -28t29.5 -71q0 -42 -29.5 -70t-74.5 -28z" />
    <glyph glyph-name="umacrondieresis" unicode="&#x1e7b;" horiz-adv-x="1200" 
d="M1016 1049v-1049h-157v174h-9q-26 -76 -106.5 -133.5t-206.5 -57.5q-168 0 -264.5 80t-96.5 253v733h157v-690q0 -125 65.5 -181t174.5 -56q120 0 203 76.5t83 180.5v670h157zM894 1252h-588v111h588v-111zM776 1578q-42 0 -72.5 29.5t-30.5 71.5q0 44 30.5 73.5
t72.5 29.5q47 0 78.5 -29.5t31.5 -73.5q0 -42 -32 -71.5t-78 -29.5zM421 1578q-44 0 -75 29.5t-31 71.5q0 44 31 73.5t75 29.5q45 0 76 -29.5t31 -73.5q0 -42 -31.5 -71.5t-75.5 -29.5z" />
    <glyph glyph-name="Vtilde" unicode="&#x1e7c;" horiz-adv-x="1242" 
d="M698 0h-156l-497 1365h181l391 -1172h9l389 1172h182zM740 1463q-44 0 -81.5 19t-59 42t-48.5 42t-51 19q-20 0 -34.5 -11t-22 -29t-11 -34.5t-4.5 -33.5h-106q0 86 45.5 147t127.5 61q43 0 81 -19t61 -42t50.5 -42t51.5 -19q36 0 56 32.5t22 73.5h106q0 -80 -48.5 -143
t-134.5 -63z" />
    <glyph glyph-name="vtilde" unicode="&#x1e7d;" horiz-adv-x="1025" 
d="M430 0l-375 1049h175l273 -880h7l292 880h168l-383 -1049h-157zM637 1214q-39 0 -69.5 16t-50 39t-36.5 45.5t-38 38.5t-45 16q-21 0 -36 -11.5t-22.5 -33t-10.5 -41.5t-5 -49h-110q0 108 46.5 176.5t136.5 68.5q41 0 74 -16t53 -38.5t37 -45.5t35.5 -39t38.5 -16
q61 0 72 135h110q0 -63 -17.5 -116.5t-60 -91t-102.5 -37.5z" />
    <glyph glyph-name="Vdotbelow" unicode="&#x1e7e;" horiz-adv-x="1242" 
d="M698 0h-156l-497 1365h181l391 -1172h9l389 1172h182zM517 -250q0 45 29 73t75 28t75 -28t29 -73t-29 -72t-75 -27t-75 27t-29 72z" />
    <glyph glyph-name="vdotbelow" unicode="&#x1e7f;" horiz-adv-x="1025" 
d="M430 0l-375 1049h175l273 -880h7l292 880h168l-383 -1049h-157zM409 -250q0 45 29 73t75 28t75 -28t29 -73t-29 -72t-75 -27t-75 27t-29 72z" />
    <glyph glyph-name="Wgrave" unicode="&#x1e80;" horiz-adv-x="1715" 
d="M561 0h-141l-378 1365h188l261 -1113h8l273 1113h171l272 -1113h9l261 1113h188l-379 -1365h-142l-291 1102h-9zM940 1514h-122l-278 354h161z" />
    <glyph glyph-name="wgrave" unicode="&#x1e81;" horiz-adv-x="1496" 
d="M1436 1049l-281 -1049h-153l-246 819h-4l-240 -819h-154l-298 1049h179l194 -839h7l239 839h148l246 -839h7l199 839h157zM829 1221h-122l-278 354h161z" />
    <glyph glyph-name="Wacute" unicode="&#x1e82;" horiz-adv-x="1715" 
d="M561 0h-141l-378 1365h188l261 -1113h8l273 1113h171l272 -1113h9l261 1113h188l-379 -1365h-142l-291 1102h-9zM776 1514l239 354h161l-278 -354h-122z" />
    <glyph glyph-name="wacute" unicode="&#x1e83;" horiz-adv-x="1496" 
d="M1436 1049l-281 -1049h-153l-246 819h-4l-240 -819h-154l-298 1049h179l194 -839h7l239 839h148l246 -839h7l199 839h157zM667 1221l239 354h161l-278 -354h-122z" />
    <glyph glyph-name="Wdieresis" unicode="&#x1e84;" horiz-adv-x="1715" 
d="M561 0h-141l-378 1365h188l261 -1113h8l273 1113h171l272 -1113h9l261 1113h188l-379 -1365h-142l-291 1102h-9zM1029 1483q-42 0 -71.5 28t-29.5 70q0 43 29 71t72 28q46 0 76 -28t30 -71q0 -42 -30 -70t-76 -28zM682 1483q-43 0 -72.5 28t-29.5 70q0 43 29.5 71
t72.5 28q45 0 74.5 -28t29.5 -71q0 -42 -29.5 -70t-74.5 -28z" />
    <glyph glyph-name="wdieresis" unicode="&#x1e85;" horiz-adv-x="1496" 
d="M1436 1049l-281 -1049h-153l-246 819h-4l-240 -819h-154l-298 1049h179l194 -839h7l239 839h148l246 -839h7l199 839h157zM924 1225q-42 0 -72.5 29.5t-30.5 71.5q0 44 30.5 73.5t72.5 29.5q47 0 78.5 -29.5t31.5 -73.5q0 -42 -32 -71.5t-78 -29.5zM569 1225
q-44 0 -75 29.5t-31 71.5q0 44 31 73.5t75 29.5q45 0 76 -29.5t31 -73.5q0 -42 -31.5 -71.5t-75.5 -29.5z" />
    <glyph glyph-name="Wdotaccent" unicode="&#x1e86;" horiz-adv-x="1715" 
d="M561 0h-141l-378 1365h188l261 -1113h8l273 1113h171l272 -1113h9l261 1113h188l-379 -1365h-142l-291 1102h-9zM756 1588q0 44 29 73.5t71 29.5q44 0 74 -29.5t30 -73.5q0 -43 -30 -71.5t-74 -28.5q-42 0 -71 29t-29 71z" />
    <glyph glyph-name="wdotaccent" unicode="&#x1e87;" horiz-adv-x="1496" 
d="M1436 1049l-281 -1049h-153l-246 819h-4l-240 -819h-154l-298 1049h179l194 -839h7l239 839h148l246 -839h7l199 839h157zM646 1342q0 44 29 73.5t71 29.5q44 0 74 -29.5t30 -73.5q0 -43 -30 -71.5t-74 -28.5q-42 0 -71 29t-29 71z" />
    <glyph glyph-name="Wdotbelow" unicode="&#x1e88;" horiz-adv-x="1715" 
d="M561 0h-141l-378 1365h188l261 -1113h8l273 1113h171l272 -1113h9l261 1113h188l-379 -1365h-142l-291 1102h-9zM754 -250q0 45 29 73t75 28t75 -28t29 -73t-29 -72t-75 -27t-75 27t-29 72z" />
    <glyph glyph-name="wdotbelow" unicode="&#x1e89;" horiz-adv-x="1496" 
d="M1436 1049l-281 -1049h-153l-246 819h-4l-240 -819h-154l-298 1049h179l194 -839h7l239 839h148l246 -839h7l199 839h157zM644 -250q0 45 29 73t75 28t75 -28t29 -73t-29 -72t-75 -27t-75 27t-29 72z" />
    <glyph glyph-name="Xdotaccent" unicode="&#x1e8a;" horiz-adv-x="1168" 
d="M1132 1365l-456 -690l446 -675h-194l-349 549h-9l-352 -549h-182l450 688l-443 677h192l354 -549h9l350 549h184zM482 1588q0 44 29 73.5t71 29.5q44 0 74 -29.5t30 -73.5q0 -43 -30 -71.5t-74 -28.5q-42 0 -71 29t-29 71z" />
    <glyph glyph-name="xdotaccent" unicode="&#x1e8b;" horiz-adv-x="1054" 
d="M784 0l-258 399h-6l-259 -399h-179l356 518l-358 531h190l251 -398h7l259 398h181l-358 -513l364 -536h-190zM425 1342q0 44 29 73.5t71 29.5q44 0 74 -29.5t30 -73.5q0 -43 -30 -71.5t-74 -28.5q-42 0 -71 29t-29 71z" />
    <glyph glyph-name="Xdieresis" unicode="&#x1e8c;" horiz-adv-x="1168" 
d="M1132 1365l-456 -690l446 -675h-194l-349 549h-9l-352 -549h-182l450 688l-443 677h192l354 -549h9l350 549h184zM755 1483q-42 0 -71.5 28t-29.5 70q0 43 29 71t72 28q46 0 76 -28t30 -71q0 -42 -30 -70t-76 -28zM408 1483q-43 0 -72.5 28t-29.5 70q0 43 29.5 71
t72.5 28q45 0 74.5 -28t29.5 -71q0 -42 -29.5 -70t-74.5 -28z" />
    <glyph glyph-name="xdieresis" unicode="&#x1e8d;" horiz-adv-x="1054" 
d="M784 0l-258 399h-6l-259 -399h-179l356 518l-358 531h190l251 -398h7l259 398h181l-358 -513l364 -536h-190zM703 1225q-42 0 -72.5 29.5t-30.5 71.5q0 44 30.5 73.5t72.5 29.5q47 0 78.5 -29.5t31.5 -73.5q0 -42 -32 -71.5t-78 -29.5zM348 1225q-44 0 -75 29.5t-31 71.5
q0 44 31 73.5t75 29.5q45 0 76 -29.5t31 -73.5q0 -42 -31.5 -71.5t-75.5 -29.5z" />
    <glyph glyph-name="Ydotaccent" unicode="&#x1e8e;" horiz-adv-x="1131" 
d="M645 0h-159v599l-456 766h183l348 -610h9l348 610h183l-456 -766v-599zM464 1588q0 44 29 73.5t71 29.5q44 0 74 -29.5t30 -73.5q0 -43 -30 -71.5t-74 -28.5q-42 0 -71 29t-29 71z" />
    <glyph glyph-name="ydotaccent" unicode="&#x1e8f;" horiz-adv-x="1080" 
d="M1000 1049l-379 -1060l-27 -73q-20 -54 -36.5 -90.5t-45.5 -80t-62 -69.5t-83 -43.5t-111 -17.5q-49 0 -101 8v133q27 -5 76 -5q89 0 136 42.5t72 129.5l17 60l-391 1066h175l293 -886h7l293 886h167zM438 1342q0 44 29 73.5t71 29.5q44 0 74 -29.5t30 -73.5
q0 -43 -30 -71.5t-74 -28.5q-42 0 -71 29t-29 71z" />
    <glyph glyph-name="Zcircumflex" unicode="&#x1e90;" horiz-adv-x="1195" 
d="M110 0v113l742 1098v10h-715v144h913v-113l-737 -1098v-10h754v-144h-957zM650 1747l271 -244h-163l-158 144h-5l-167 -144h-159l282 244h99z" />
    <glyph glyph-name="zcircumflex" unicode="&#x1e91;" horiz-adv-x="1015" 
d="M124 0v111l570 789v10h-574v139h771v-111l-571 -790v-9h575v-139h-771zM209 1221l249 382h100l249 -382h-138l-159 263h-4l-159 -263h-138z" />
    <glyph glyph-name="Zdotbelow" unicode="&#x1e92;" horiz-adv-x="1195" 
d="M110 0v113l742 1098v10h-715v144h913v-113l-737 -1098v-10h754v-144h-957zM494 -250q0 45 29 73t75 28t75 -28t29 -73t-29 -72t-75 -27t-75 27t-29 72z" />
    <glyph glyph-name="zdotbelow" unicode="&#x1e93;" horiz-adv-x="1015" 
d="M124 0v111l570 789v10h-574v139h771v-111l-571 -790v-9h575v-139h-771zM404 -250q0 45 29 73t75 28t75 -28t29 -73t-29 -72t-75 -27t-75 27t-29 72z" />
    <glyph glyph-name="Zlinebelow" unicode="&#x1e94;" horiz-adv-x="1195" 
d="M110 0v113l742 1098v10h-715v144h913v-113l-737 -1098v-10h754v-144h-957zM892 -321h-588v111h588v-111z" />
    <glyph glyph-name="zlinebelow" unicode="&#x1e95;" horiz-adv-x="1015" 
d="M124 0v111l570 789v10h-574v139h771v-111l-571 -790v-9h575v-139h-771zM802 -321h-588v111h588v-111z" />
    <glyph glyph-name="hlinebelow" unicode="&#x1e96;" horiz-adv-x="1213" 
d="M187 0v1477h157v-620h8q9 32 30 64t57.5 66.5t99.5 56.5t141 22q159 0 256.5 -89.5t97.5 -258.5v-718h-157v666q0 125 -65 193t-179 68q-139 0 -214 -96.5t-75 -245.5v-585h-157zM893 -321h-588v111h588v-111z" />
    <glyph glyph-name="tdieresis" unicode="&#x1e97;" horiz-adv-x="754" 
d="M237 1049v264h157v-264h238v-131h-238v-633q0 -96 36.5 -128.5t137.5 -32.5q41 0 81 5v-131q-37 -8 -121 -8q-91 0 -149 17.5t-89 58t-42 92.5t-11 135v625h-160v131h160zM492 1477q-42 0 -72.5 29.5t-30.5 71.5q0 44 30.5 73.5t72.5 29.5q47 0 78.5 -29.5t31.5 -73.5
q0 -42 -32 -71.5t-78 -29.5zM137 1477q-44 0 -75 29.5t-31 71.5q0 44 31 73.5t75 29.5q45 0 76 -29.5t31 -73.5q0 -42 -31.5 -71.5t-75.5 -29.5z" />
    <glyph glyph-name="wring" unicode="&#x1e98;" horiz-adv-x="1496" 
d="M1436 1049l-281 -1049h-153l-246 819h-4l-240 -819h-154l-298 1049h179l194 -839h7l239 839h148l246 -839h7l199 839h157zM748 1231q-78 0 -132 52.5t-54 129.5t54 129.5t132 52.5t132 -52.5t54 -129.5t-54 -129.5t-132 -52.5zM645 1413q0 -44 30 -74.5t73 -30.5
t72.5 30.5t29.5 74.5t-29.5 74t-72.5 30t-73 -30t-30 -74z" />
    <glyph glyph-name="yring" unicode="&#x1e99;" horiz-adv-x="1080" 
d="M1000 1049l-379 -1060l-27 -73q-20 -54 -36.5 -90.5t-45.5 -80t-62 -69.5t-83 -43.5t-111 -17.5q-49 0 -101 8v133q27 -5 76 -5q89 0 136 42.5t72 129.5l17 60l-391 1066h175l293 -886h7l293 886h167zM540 1231q-78 0 -132 52.5t-54 129.5t54 129.5t132 52.5t132 -52.5
t54 -129.5t-54 -129.5t-132 -52.5zM437 1413q0 -44 30 -74.5t73 -30.5t72.5 30.5t29.5 74.5t-29.5 74t-72.5 30t-73 -30t-30 -74z" />
    <glyph glyph-name="Adotbelow" unicode="&#x1ea0;" horiz-adv-x="1243" 
d="M217 0h-163l490 1365h155l490 -1365h-171l-142 420h-516zM621 1168h-6l-210 -617h426zM518 -250q0 45 29 73t75 28t75 -28t29 -73t-29 -72t-75 -27t-75 27t-29 72z" />
    <glyph glyph-name="adotbelow" unicode="&#x1ea1;" horiz-adv-x="1108" 
d="M465 -17q-153 0 -247.5 89t-94.5 233q0 140 95.5 223.5t271.5 83.5h280v107q0 104 -61 156t-172 52q-182 0 -221 -128h-153q12 132 112.5 199.5t268.5 67.5q82 0 149.5 -19t121.5 -58.5t84 -108t30 -160.5v-720h-152v141h-7q-99 -158 -305 -158zM505 122q113 0 189 68.5
t76 170.5v120h-277q-106 0 -157 -47t-51 -126q0 -91 63.5 -138.5t156.5 -47.5zM450 -250q0 45 29 73t75 28t75 -28t29 -73t-29 -72t-75 -27t-75 27t-29 72z" />
    <glyph glyph-name="Ahookabove" unicode="&#x1ea2;" horiz-adv-x="1243" 
d="M217 0h-163l490 1365h155l490 -1365h-171l-142 420h-516zM621 1168h-6l-210 -617h426zM500 1678v83q45 14 93 14q80 0 133 -36t53 -100q0 -101 -138 -147l-57 74q33 7 60.5 25t27.5 42q0 54 -84 54q-43 0 -88 -9z" />
    <glyph glyph-name="ahookabove" unicode="&#x1ea3;" horiz-adv-x="1108" 
d="M465 -17q-153 0 -247.5 89t-94.5 233q0 140 95.5 223.5t271.5 83.5h280v107q0 104 -61 156t-172 52q-182 0 -221 -128h-153q12 132 112.5 199.5t268.5 67.5q82 0 149.5 -19t121.5 -58.5t84 -108t30 -160.5v-720h-152v141h-7q-99 -158 -305 -158zM505 122q113 0 189 68.5
t76 170.5v120h-277q-106 0 -157 -47t-51 -126q0 -91 63.5 -138.5t156.5 -47.5zM415 1444v98q45 17 106 17q96 0 153 -47t57 -131q0 -68 -40 -112t-114 -85l-61 82q54 30 76.5 56t22.5 56q0 36 -29.5 58.5t-73.5 22.5q-52 0 -97 -15z" />
    <glyph glyph-name="Acircumflexacute" unicode="&#x1ea4;" horiz-adv-x="1243" 
d="M217 0h-163l490 1365h155l490 -1365h-171l-142 420h-516zM621 1168h-6l-210 -617h426zM300 1514l281 204h82l281 -204h-163l-157 113h-4l-157 -113h-163zM799 1720l190 225h170l-246 -225h-114z" />
    <glyph glyph-name="acircumflexacute" unicode="&#x1ea5;" horiz-adv-x="1108" 
d="M465 -17q-153 0 -247.5 89t-94.5 233q0 140 95.5 223.5t271.5 83.5h280v107q0 104 -61 156t-172 52q-182 0 -221 -128h-153q12 132 112.5 199.5t268.5 67.5q82 0 149.5 -19t121.5 -58.5t84 -108t30 -160.5v-720h-152v141h-7q-99 -158 -305 -158zM505 122q113 0 189 68.5
t76 170.5v120h-277q-106 0 -157 -47t-51 -126q0 -91 63.5 -138.5t156.5 -47.5zM255 1221l249 282h100l249 -282h-138l-159 183h-4l-159 -183h-138zM921 1398h-122l239 354h161z" />
    <glyph glyph-name="Acircumflexgrave" unicode="&#x1ea6;" horiz-adv-x="1243" 
d="M217 0h-163l490 1365h155l490 -1365h-171l-142 420h-516zM621 1168h-6l-210 -617h426zM300 1514l281 204h82l281 -204h-163l-157 113h-4l-157 -113h-163zM1045 1720h-114l-266 225h170z" />
    <glyph glyph-name="acircumflexgrave" unicode="&#x1ea7;" horiz-adv-x="1108" 
d="M465 -17q-153 0 -247.5 89t-94.5 233q0 140 95.5 223.5t271.5 83.5h280v107q0 104 -61 156t-172 52q-182 0 -221 -128h-153q12 132 112.5 199.5t268.5 67.5q82 0 149.5 -19t121.5 -58.5t84 -108t30 -160.5v-720h-152v141h-7q-99 -158 -305 -158zM505 122q113 0 189 68.5
t76 170.5v120h-277q-106 0 -157 -47t-51 -126q0 -91 63.5 -138.5t156.5 -47.5zM255 1221l249 282h100l249 -282h-138l-159 183h-4l-159 -183h-138zM1025 1398h-122l-278 354h161z" />
    <glyph glyph-name="Acircumflexhookabove" unicode="&#x1ea8;" horiz-adv-x="1243" 
d="M217 0h-163l490 1365h155l490 -1365h-171l-142 420h-516zM621 1168h-6l-210 -617h426zM300 1514l281 204h82l281 -204h-163l-157 113h-4l-157 -113h-163zM741 1849v79q40 12 77 12q68 0 112.5 -36.5t44.5 -95.5q0 -50 -31.5 -84.5t-80.5 -47.5l-55 75q69 15 69 54
q0 24 -24 38.5t-50 14.5q-32 0 -62 -9z" />
    <glyph glyph-name="acircumflexhookabove" unicode="&#x1ea9;" horiz-adv-x="1108" 
d="M465 -17q-153 0 -247.5 89t-94.5 233q0 140 95.5 223.5t271.5 83.5h280v107q0 104 -61 156t-172 52q-182 0 -221 -128h-153q12 132 112.5 199.5t268.5 67.5q82 0 149.5 -19t121.5 -58.5t84 -108t30 -160.5v-720h-152v141h-7q-99 -158 -305 -158zM505 122q113 0 189 68.5
t76 170.5v120h-277q-106 0 -157 -47t-51 -126q0 -91 63.5 -138.5t156.5 -47.5zM255 1221l249 282h100l249 -282h-138l-159 183h-4l-159 -183h-138zM696 1658v94q31 18 100 18q89 0 143.5 -49.5t54.5 -128.5q0 -62 -39 -108.5t-106 -72.5l-55 78q52 21 73.5 44t21.5 57
q0 37 -31 63t-76 26q-49 0 -86 -21z" />
    <glyph glyph-name="Acircumflextilde" unicode="&#x1eaa;" horiz-adv-x="1243" 
d="M217 0h-163l490 1365h155l490 -1365h-171l-142 420h-516zM621 1168h-6l-210 -617h426zM300 1514l281 204h82l281 -204h-163l-157 113h-4l-157 -113h-163zM469 1792h-105q0 65 43 109t110 44q38 0 71.5 -20.5t61 -40.5t50.5 -20q26 0 43 17t20 43h105q0 -59 -48.5 -109
t-118.5 -50q-36 0 -67 21t-58 42t-51 21t-39.5 -16t-16.5 -41z" />
    </font>
</defs>
</svg>
